<?xml version="1.0" encoding="UTF-8"?>
<svg width="260px" height="1000px" viewBox="0 0 260 1000" version="1.1" xmlns="http://www.w3.org/2000/svg"
	xmlns:xlink="http://www.w3.org/1999/xlink">
	<title>左侧栏背景图</title>
	<defs>
		<rect id="path-1" x="0" y="0" width="260" height="1000"></rect>
		<linearGradient x1="153.208769%" y1="53.7008338%" x2="4.27732196e-13%" y2="56.8152438%" id="linearGradient-3">
			<stop stop-color="#006AD1" offset="0%"></stop>
			<stop stop-color="#FFFFFF" stop-opacity="0.58" offset="100%"></stop>
		</linearGradient>
		<linearGradient x1="-1.55655841e-13%" y1="55.039066%" x2="146.977912%" y2="71.519867%" id="linearGradient-4">
			<stop stop-color="#FFFFFF" stop-opacity="0.59" offset="0%"></stop>
			<stop stop-color="#FFFFFF" stop-opacity="0" offset="100%"></stop>
		</linearGradient>
	</defs>
	<g id="页面-1" stroke="none" stroke-width="1" fill="none" fill-rule="evenodd">
		<g id="切图" transform="translate(-10.000000, -42.000000)">
			<g id="背景" transform="translate(10.000000, 42.000000)">
				<mask id="mask-2" fill="white">
					<use xlink:href="#path-1"></use>
				</mask>
				<use id="蒙版" fill="#037DF4" xlink:href="#path-1"></use>
				<rect id="矩形" fill="url(#linearGradient-3)" opacity="0.18" mask="url(#mask-2)"
					transform="translate(238.981442, 766.621969) rotate(-45.000000) translate(-238.981442, -766.621969) " x="174.981442"
					y="702.621969" width="128" height="128" rx="8"></rect>
				<rect id="矩形备份-5" fill="url(#linearGradient-3)" opacity="0.19" mask="url(#mask-2)"
					transform="translate(23.421538, 524.883607) scale(-1, 1) rotate(-45.000000) translate(-23.421538, -524.883607) " x="-29.6296731"
					y="471.832396" width="106.102423" height="106.102423" rx="8"></rect>
				<rect id="矩形备份-2" fill="url(#linearGradient-4)" opacity="0.18" mask="url(#mask-2)"
					transform="translate(246.731088, 856.140286) rotate(-315.000000) translate(-246.731088, -856.140286) " x="192.483568"
					y="801.892766" width="108.49504" height="108.49504" rx="8"></rect>
				<rect id="矩形备份-12" fill="url(#linearGradient-4)" opacity="0.19" mask="url(#mask-2)"
					transform="translate(20.943101, 602.504509) scale(-1, 1) rotate(-315.000000) translate(-20.943101, -602.504509) " x="-20.3189519"
					y="561.242456" width="82.5241065" height="82.5241065" rx="8"></rect>
			</g>
		</g>
	</g>
</svg>