<?xml version="1.0" encoding="UTF-8"?>
<svg width="16px" height="16px" viewBox="0 0 16 16" version="1.1" xmlns="http://www.w3.org/2000/svg" xmlns:xlink="http://www.w3.org/1999/xlink">
    <title>左侧菜单收起按钮</title>
    <g id="-页面1" stroke="none" stroke-width="1" fill="none" fill-rule="evenodd">
        <g id="00-切图" transform="translate(-247.000000, -240.000000)" fill="#666666" fill-rule="nonzero">
            <path d="M262.644444,240 L247.355556,240 C247.118519,240 247,240.237037 247,240.355556 L247,241.185185 C247,241.422222 247.237037,241.540741 247.355556,241.540741 L262.644444,241.540741 C262.881481,241.540741 263,241.303704 263,241.185185 L263,240.355556 C263,240.237037 262.762963,240 262.644444,240 Z M262.644444,247.22963 L253.755556,247.22963 C253.518519,247.22963 253.4,247.466667 253.4,247.703704 L253.4,248.533333 C253.4,248.77037 253.637037,248.888889 253.755556,248.888889 L262.644444,248.888889 C262.881481,248.888889 263,248.651852 263,248.533333 L263,247.703704 C263,247.466667 262.762963,247.22963 262.644444,247.22963 Z M262.644444,254.459259 L247.355556,254.459259 C247.118519,254.459259 247,254.696296 247,254.814815 L247,255.644444 C247,255.881481 247.237037,256 247.355556,256 L262.644444,256 C262.881481,256 263,255.762963 263,255.644444 L263,254.814815 C263,254.696296 262.762963,254.459259 262.644444,254.459259 Z M249.725926,250.666667 C250.081481,251.022222 250.674074,250.666667 250.674074,250.192593 L250.674074,245.807407 C250.674074,245.333333 250.081481,245.096296 249.725926,245.333333 L247.237037,247.466667 C247,247.703704 247,248.177778 247.237037,248.533333 L249.725926,250.666667 Z" id="左侧菜单收起按钮"></path>
        </g>
    </g>
</svg>