<?xml version="1.0" encoding="UTF-8"?>
<svg width="16px" height="16px" viewBox="0 0 16 16" version="1.1" xmlns="http://www.w3.org/2000/svg" xmlns:xlink="http://www.w3.org/1999/xlink">
    <title>左侧菜单展开按钮</title>
    <g id="-页面1" stroke="none" stroke-width="1" fill="none" fill-rule="evenodd">
        <g id="00-切图" transform="translate(-306.000000, -240.000000)" fill="#666666" fill-rule="nonzero">
            <path d="M321.644444,240 L306.355556,240 C306.118519,240 306,240.237037 306,240.355556 L306,241.185185 C306,241.422222 306.237037,241.540741 306.355556,241.540741 L321.644444,241.540741 C321.881481,241.540741 322,241.303704 322,241.185185 L322,240.355556 C322,240.237037 321.762963,240 321.644444,240 Z M321.644444,247.22963 L312.755556,247.22963 C312.518519,247.22963 312.4,247.466667 312.4,247.703704 L312.4,248.533333 C312.4,248.77037 312.637037,248.888889 312.755556,248.888889 L321.644444,248.888889 C321.881481,248.888889 322,248.651852 322,248.533333 L322,247.703704 C322,247.466667 321.762963,247.22963 321.644444,247.22963 Z M321.644444,254.459259 L306.355556,254.459259 C306.118519,254.459259 306,254.696296 306,254.814815 L306,255.644444 C306,255.881481 306.237037,256 306.355556,256 L321.644444,256 C321.881481,256 322,255.762963 322,255.644444 L322,254.814815 C322,254.696296 321.762963,254.459259 321.644444,254.459259 Z M308.725926,250.666667 C309.081481,251.022222 309.674074,250.666667 309.674074,250.192593 L309.674074,245.807407 C309.674074,245.333333 309.081481,245.096296 308.725926,245.333333 L306.237037,247.466667 C306,247.703704 306,248.177778 306.237037,248.533333 L308.725926,250.666667 Z" id="左侧菜单展开按钮" transform="translate(314.000000, 248.000000) scale(-1, 1) translate(-314.000000, -248.000000) "></path>
        </g>
    </g>
</svg>