<?xml version="1.0" encoding="UTF-8"?>
<svg width="16px" height="16px" viewBox="0 0 16 16" version="1.1" xmlns="http://www.w3.org/2000/svg" xmlns:xlink="http://www.w3.org/1999/xlink">
    <title>API描述-默认状态</title>
    <g id="页面-1" stroke="none" stroke-width="1" fill="none" fill-rule="evenodd">
        <g id="各系统图标规范整理" transform="translate(-600.000000, -1286.000000)">
            <g id="朱雀能力平台系统" transform="translate(30.000000, 1081.000000)">
                <g id="编组-14" transform="translate(525.000000, 70.000000)">
                    <g id="API描述-默认状态" transform="translate(45.000000, 135.000000)">
                        <rect id="矩形备份-40" x="0" y="0" width="16" height="16"></rect>
                        <g id="API描述-点击状态" transform="translate(1.707601, 1.109332)" fill="#666666" fill-rule="nonzero">
                            <path d="M9.66826598,13.6 C9.34523058,13.6 9.08252291,13.3372923 9.08252291,13.0142569 C9.08252291,12.6913128 9.34523058,12.4806214 9.66826598,12.4806214 L11.5977597,12.4806214 C11.4750361,11.4100819 10.9605807,10.2951892 10.2272956,9.49471775 L10.1008613,9.35681713 L10.8233738,8.57044444 L10.9613504,8.71921834 C11.4623731,9.25953693 11.8614455,9.87650078 12.1476486,10.5531993 C12.4775577,11.3332472 12.6447477,12.1613048 12.6447477,13.0142569 C12.6447477,13.3372923 12.3820249,13.6 12.0589895,13.6 L9.66826598,13.6 Z M0,13.0142569 C0,12.1610159 0.167250884,11.3330495 0.49709919,10.5531993 C0.815541953,9.80035737 1.27132266,9.12422157 1.85177356,8.54381629 C2.43205718,7.96350226 3.10811694,7.50773676 3.86117173,7.18917234 C3.91525384,7.1663115 3.96965086,7.14420289 4.02434703,7.12285291 C3.85292693,6.9988785 3.69166376,6.8614346 3.54209026,6.71182755 C2.79949816,5.96928107 2.3905258,4.98191081 2.3905258,3.9316884 C2.3905258,2.88152682 2.79949816,1.89415656 3.54213588,1.15156446 C4.2847736,0.408972361 5.27209824,0 6.32232065,0 C7.37258868,0 8.35989811,0.408972361 9.10253583,1.15156446 C9.84518876,1.89414135 10.2541003,2.8814812 10.2541003,3.9316884 C10.2541003,4.98195643 9.84517355,5.96932669 9.10255104,6.71182755 C8.95299561,6.86144241 8.79174191,6.99888691 8.62032468,7.12285291 C8.67502519,7.144192 8.72942235,7.16630067 8.78349998,7.18917234 C8.81367144,7.20187051 8.84363,7.21513135 8.87351253,7.2283922 L9.13393909,7.34377067 L8.93907159,7.548158 L8.05546225,8.13486307 L7.93751373,8.09048791 C7.35891813,7.87252037 6.7497861,7.76200826 6.12681533,7.76200826 C3.51053582,7.76200826 1.27210418,9.85212333 0.978860064,12.4285595 L2.97604076,12.4285595 C3.29898491,12.4285595 3.56169258,12.6912824 3.56169258,13.0142265 C3.56169258,13.3372619 3.29898491,13.6 2.97605596,13.6 L0.585682242,13.6 C0.262768505,13.6 0,13.3372923 0,13.0142569 Z M6.32237387,0.918821742 C4.66641495,0.918821742 3.3191801,2.26597386 3.3191801,3.92188315 C3.3191801,5.57779245 4.66638186,6.92502729 6.32237387,6.92502729 C7.97823353,6.92502729 9.32543528,5.57782554 9.32543528,3.92188315 C9.32543528,2.26594077 7.97823353,0.918821742 6.32237387,0.918821742 Z" id="形状" stroke="#666666" stroke-width="0.2"></path>
                            <path d="M5.91877922,12.1145014 L3.83628866,10.0320274 C3.71555591,9.91136107 3.6491164,9.750904 3.6491164,9.5801259 C3.6491164,9.40946396 3.71553932,9.24900688 3.83628866,9.12832391 C3.95697163,9.00765754 4.1174287,8.94110187 4.28814043,8.94110187 C4.45885215,8.94110187 4.61932582,9.00764095 4.73999219,9.12832391 L6.37069736,10.7588631 L10.2830623,6.84658118 C10.4038614,6.72578206 10.5643185,6.65935914 10.7349804,6.65935914 C10.9056424,6.65935914 11.0660994,6.72579865 11.186882,6.84648162 C11.4359638,7.09587871 11.4359638,7.50123609 11.186882,7.7503179 L6.8226155,12.1144848 C6.70191594,12.2352673 6.5413593,12.3017235 6.37069736,12.3017235 C6.19993585,12.3017235 6.03946219,12.2351844 5.91877922,12.1145014 Z" id="路径"></path>
                        </g>
                    </g>
                </g>
            </g>
        </g>
    </g>
</svg>