<?xml version="1.0" encoding="UTF-8"?>
<svg width="16px" height="16px" viewBox="0 0 16 16" version="1.1" xmlns="http://www.w3.org/2000/svg" xmlns:xlink="http://www.w3.org/1999/xlink">
    <title>一键提交</title>
    <g id="页面-1" stroke="none" stroke-width="1" fill="none" fill-rule="evenodd">
        <g id="各系统图标规范整理" transform="translate(-1829.000000, -1214.000000)">
            <g id="朱雀能力平台系统" transform="translate(30.000000, 1081.000000)">
                <g id="编组-16" transform="translate(1574.000000, 70.000000)">
                    <g id="一键提交" transform="translate(225.000000, 63.000000)">
                        <polygon id="矩形备份" points="2.27373675e-13 0 16 0 16 16 2.27373675e-13 16"></polygon>
                        <g transform="translate(2.000000, 1.000000)" fill="#FFFFFF" fill-rule="nonzero" stroke="#FFFFFF" stroke-width="0.2">
                            <path d="M11.1995261,6.56905446 C10.9075602,6.26595881 10.5045955,6.09506803 10.0837507,6.09587224 L10.0370166,6.09587224 C9.82906411,6.11159445 9.62829923,6.17885069 9.45284107,6.29157106 C9.29803454,5.87972727 9.03515552,5.46204172 8.43929643,5.46204172 C8.24368925,5.46901559 8.05085931,5.51054819 7.86972523,5.58471859 C7.5325583,5.05685009 6.88927042,4.81235322 6.28660939,4.98301775 L6.28660939,3.50505351 C6.30797499,3.05812659 6.14949645,2.62125286 5.84655608,2.29196985 C5.54361571,1.96268685 5.12143994,1.76841458 4.67428477,1.75252676 C3.69803921,1.76071878 2.8981121,2.52987946 2.85165695,3.50505351 L2.85165695,6.53984567 C2.54881373,6.28275974 2.16224462,6.14559006 1.76509036,6.15428979 C1.31633466,6.14963131 0.884253509,6.32414585 0.56460953,6.63915553 C-0.0546165956,7.28174867 -0.261998919,8.39168229 0.444853544,9.1569523 L2.87794485,12.7700783 L2.92759978,12.8314167 C3.01230524,12.9190431 3.18171616,13.0680078 3.25765899,13.1235045 C4.05797954,13.7807021 5.9156579,13.9998846 7.39070125,13.9998846 C11.3660161,14.0202141 11.6960753,11.3505316 11.6960753,8.85318099 L11.6960753,7.83671547 C11.7032992,7.36537785 11.52496,6.91008833 11.1995261,6.56905446 Z M10.8402581,8.85318099 C10.8402581,11.1898833 10.5832208,13.1410298 7.4111474,13.1439507 C5.78421839,13.1439507 4.30625417,12.8518629 3.80970492,12.4458608 C3.76004999,12.4049685 3.64321487,12.2998169 3.57603468,12.2355576 L1.14002249,8.6282734 L1.09328844,8.56985584 C0.649314994,8.10835712 0.96476981,7.48621012 1.18675653,7.25546077 C1.3457523,7.10919697 1.55492611,7.02971092 1.77093212,7.03347405 C1.97484158,7.0286119 2.17270446,7.10294134 2.32297805,7.24085638 L3.69579068,9.00798753 L3.69579068,3.50505351 C3.75419884,3.01144558 4.16853903,2.63704179 4.66552214,2.62879013 C4.88330637,2.64136843 5.08669606,2.7416699 5.22925272,2.90679344 C5.37180938,3.07191698 5.44136178,3.28776466 5.42202953,3.50505351 L5.42202953,6.39672266 L6.06462267,6.01116677 C6.23769739,5.90752497 6.4290782,5.83811224 6.62835211,5.80670532 C6.92989044,5.78455491 7.19850281,5.9961505 7.24757823,6.29449193 L7.40530564,6.81148732 L7.86388347,6.54568744 C8.03594033,6.43936418 8.22767198,6.36883078 8.42761292,6.3383051 C8.53860628,6.3383051 8.59702383,6.42008968 8.74306774,6.92248069 L8.96213358,7.64101666 L9.52878389,7.27006517 C9.68615468,7.15470304 9.85558461,7.05676666 10.0340958,6.97797736 L10.0808298,6.97797736 C10.2737627,6.9762928 10.4587894,7.05453267 10.5919835,7.19412233 C10.7565224,7.36937788 10.8456767,7.60222783 10.8402581,7.84255723 L10.8402581,8.85318099 Z" id="形状"></path>
                            <path d="M1.32695867,4.24987738 C1.54602451,-0.078863704 7.82591206,-0.099309845 8.04497791,4.24987738 C8.07418668,4.81360682 8.95045006,4.81652771 8.92124128,4.24987738 C8.80440617,1.95114646 7.07524643,0 4.68596829,0 C2.29669016,0 0.56460953,1.93362119 0.45069529,4.24987738 C0.421486516,4.81652771 1.29774989,4.81360682 1.32695867,4.24987738 Z" id="路径"></path>
                        </g>
                    </g>
                </g>
            </g>
        </g>
    </g>
</svg>