<?xml version="1.0" encoding="UTF-8"?>
<svg width="16px" height="16px" viewBox="0 0 16 16" version="1.1" xmlns="http://www.w3.org/2000/svg" xmlns:xlink="http://www.w3.org/1999/xlink">
    <title>上涨</title>
    <g id="页面-1" stroke="none" stroke-width="1" fill="none" fill-rule="evenodd">
        <g id="各系统图标规范整理" transform="translate(-898.000000, -893.000000)">
            <g id="财务中心系统" transform="translate(30.000000, 724.000000)">
                <g id="上涨" transform="translate(868.000000, 169.000000)">
                    <rect id="矩形" x="0" y="0" width="16" height="16"></rect>
                    <path d="M7.52149529,2 L11.8446976,6.32320227 C12.1090882,6.58759296 12.1090882,7.01625495 11.8446976,7.28064564 C11.6096836,7.51565958 11.2448751,7.54177224 10.9810179,7.35898362 L10.8872542,7.28064564 L8.198,4.591 L8.19850998,13.4241366 C8.19850998,13.7421772 7.89540018,14 7.52149529,14 C7.18913538,14 6.91271234,13.7962881 6.8553882,13.5276487 L6.84448059,13.4241366 L6.844,4.589 L4.15573638,7.28064564 C3.92072244,7.51565958 3.55591388,7.54177224 3.29205669,7.35898362 L3.19829301,7.28064564 C2.96327907,7.0456317 2.93716641,6.68082314 3.11995503,6.41696595 L3.19829301,6.32320227 L7.52149529,2 Z" fill="#1DFF5B" fill-rule="nonzero"></path>
                </g>
            </g>
        </g>
    </g>
</svg>