<?xml version="1.0" encoding="UTF-8"?>
<svg width="16px" height="16px" viewBox="0 0 16 16" version="1.1" xmlns="http://www.w3.org/2000/svg" xmlns:xlink="http://www.w3.org/1999/xlink">
    <title>价值考核</title>
    <g id="页面-1" stroke="none" stroke-width="1" fill="none" fill-rule="evenodd">
        <g id="各系统图标规范整理" transform="translate(-39.000000, -270.000000)">
            <g id="经营核算管理系统" transform="translate(30.000000, 100.000000)">
                <g id="价值考核" transform="translate(9.000000, 170.000000)">
                    <rect id="矩形" x="0" y="0" width="16" height="16"></rect>
                    <g transform="translate(0.276554, 1.072658)" fill="#474747">
                        <path d="M10.7715024,7.15272075 C10.7638687,6.91634034 10.5848483,6.72107206 10.3503751,6.69337171 C10.107057,6.69337171 9.82630544,6.80586535 9.79823028,7.00272922 L8.72201587,10.8181386 L8.49741461,10.4431598 C8.03753613,9.67305098 7.39452488,9.0289346 6.62573738,8.56826574 L6.36370257,8.43702316 L6.55087029,8.25890823 C7.21721298,7.69773098 7.60386096,6.87169281 7.60836792,5.99966091 C7.60836792,4.31701342 6.24665296,2.95295811 4.56689243,2.95295811 C2.8871319,2.95295811 1.52541694,4.31701342 1.52541694,5.99966091 C1.52885417,6.86989415 1.91172897,7.69517463 2.57355619,8.25890823 L2.80751584,8.43702316 L2.57355619,8.56826574 C1.11050129,9.36031224 0.143328428,10.8364647 0,12.4961687 C0,12.7757471 0.226254178,13.0023901 0.505352851,13.0023901 C0.786005086,13.0024366 1.01496132,12.7772569 1.02006409,12.4961687 C1.22489722,10.6355126 2.70639672,9.17496099 4.56689243,8.99949137 C6.41939639,9.1920532 7.89195446,10.6437898 8.11372078,12.4961687 C8.11495247,12.5888048 8.14800079,12.6781886 8.20730464,12.7492794 C8.25864014,12.9483399 8.42506491,13.0965273 8.62843201,13.1242583 L8.72201587,13.1242583 C8.92290762,13.1122627 9.09839379,12.9840841 9.17121841,12.7961518 L10.7715024,7.15272075 Z M4.56689243,7.99642306 C3.47111223,7.97580601 2.59748738,7.07290283 2.61114453,5.97513098 C2.62480168,4.87735913 3.52061738,3.99654492 4.61657018,4.00328856 C5.71252297,4.0100322 6.59746895,4.90180384 6.59766222,5.99966091 C6.59272125,6.534215 6.37598431,7.04490631 5.99513604,7.41937681 C5.61428778,7.79384732 5.10052893,8.00141879 4.56689243,7.99642306 Z M8.04821207,2.4842346 C7.80891019,2.49932749 7.625766,2.70363405 7.63644308,2.94358364 C7.62555812,3.18531628 7.80746864,3.39238806 8.04821207,3.41230715 L12.5121623,3.41230715 C12.7566315,3.3972054 12.9439596,3.18870531 12.9332896,2.94358364 C12.9383607,2.82670132 12.8968173,2.71259758 12.8178186,2.62642899 C12.73882,2.54026041 12.628853,2.48910268 12.5121623,2.4842346 L8.04821207,2.4842346 Z M12.5121623,4.70598403 L10.2942247,4.70598403 C10.0358,4.70598403 9.82630544,4.91583869 9.82630544,5.17470754 C9.82630544,5.43357638 10.0358,5.64343105 10.2942247,5.64343105 L12.530879,5.64343105 C12.7893037,5.64343105 12.9987983,5.43357638 12.9987983,5.17470754 C12.9987983,4.91583869 12.7893037,4.70598403 12.530879,4.70598403 L12.5121623,4.70598403 Z" id="形状" stroke="#474747" stroke-width="0.1" fill-rule="nonzero"></path>
                        <path d="M14.2934254,12.157377 C14.2934254,12.957377 13.5946264,13.657377 12.795999,13.657377 L2.81315631,13.657377 C2.0145289,13.657377 1.3157299,12.957377 1.3157299,12.157377 L1.3157299,2.15737697 C1.3157299,1.35737696 2.01452888,0.657376969 2.81315631,0.657376969 L12.795999,0.657376969 C13.5946264,0.657376969 14.2934254,1.35737697 14.2934254,2.15737697 L14.2934254,12.157377 Z" id="路径" opacity="0.05"></path>
                        <path d="M14.9734178,2.671724 C14.9910122,1.98048095 14.7336484,1.31056932 14.2579869,0.80947517 C13.7823255,0.30838102 13.1273632,0.017186405 12.4372952,0 L3.3035103,0 C1.86504189,0.0358208125 0.726640507,1.23068115 0.758029277,2.671724 L0.758029277,3.49667738 C0.763132041,3.77776549 0.992088279,4.00294524 1.27274051,4.00289877 C1.55183919,4.00289877 1.77809336,3.77625573 1.77809336,3.49667738 L1.77809336,2.671724 C1.74108505,1.78962157 2.42307299,1.04359402 3.3035103,1.00306831 L12.4372952,1.00306831 C13.3177325,1.04359402 13.9997204,1.78962157 13.9627121,2.671724 L13.9627121,11.3337344 C13.9804484,11.7564944 13.8296194,12.1689652 13.5434738,12.4802217 C13.2573282,12.7914782 12.8593592,12.9759657 12.4372952,12.9930157 L10.4065254,12.9930157 C10.2113094,12.966218 10.0183465,13.0555245 9.91218397,13.2218051 C9.80602146,13.3880857 9.80602146,13.601014 9.91218397,13.7672946 C10.0183465,13.9335751 10.2113094,14.0228816 10.4065254,13.996084 L12.4372952,13.996084 C13.8668708,13.9602542 14.999585,12.7753499 14.9734178,11.3431089 L14.9734178,2.671724 Z" id="路径" stroke="#474747" stroke-width="0.1" fill-rule="nonzero"></path>
                    </g>
                </g>
            </g>
        </g>
    </g>
</svg>