<?xml version="1.0" encoding="UTF-8"?>
<svg width="16px" height="16px" viewBox="0 0 16 16" version="1.1" xmlns="http://www.w3.org/2000/svg"
	xmlns:xlink="http://www.w3.org/1999/xlink">
	<title>保存</title>
	<g id="页面-1" stroke="none" stroke-width="1" fill="none" fill-rule="evenodd">
		<g id="各系统图标规范整理" transform="translate(-1793.000000, -1214.000000)">
			<g id="朱雀能力平台系统" transform="translate(30.000000, 1081.000000)">
				<g id="编组-16" transform="translate(1574.000000, 70.000000)">
					<g id="保存" transform="translate(189.000000, 63.000000)">
						<polygon id="矩形备份" points="2.27373675e-13 0 16 0 16 16 2.27373675e-13 16"></polygon>
						<g transform="translate(1.450856, 1.768916)" fill="currentColor" fill-rule="nonzero" stroke="currentColor" stroke-width="0.2">
							<path
								d="M9.89994311,12.9773108 C11.4999801,12.9773108 12.7977076,11.6814388 12.800013,10.0814034 L12.800013,5.12563175 C12.8011435,4.34429728 12.5021511,3.59236691 11.9647789,3.02516675 L10.0084879,0.958673768 C9.42964287,0.34819218 8.62584023,0.00169454702 7.78456357,0 L2.89590736,0 C1.29587197,0.00228576719 0,1.30001326 0,2.90005029 L0,10.0847177 C0.00410914008,11.6828117 1.30029416,12.9764029 2.89839312,12.9773108 L9.89994311,12.9773108 Z M4.54313593,12.0658664 L4.54313593,9.84857079 C4.54541121,9.07156919 5.17473018,8.44225021 5.95173179,8.43997494 L6.84329011,8.43997494 C7.62029171,8.44225021 8.24961069,9.07156919 8.25188596,9.84857079 L8.25188596,12.0633806 L4.54313593,12.0658664 Z M0.913930135,2.89673595 C0.913930135,1.80007511 1.80173466,0.910414745 2.89839312,0.908130035 L7.78704933,0.908130035 C8.37725627,0.910492342 8.94064794,1.15489829 9.34561922,1.58425605 L11.2985959,3.65572054 C11.6751362,4.05250436 11.8851086,4.57862175 11.8852347,5.12563175 L11.8852347,10.0805748 C11.88295,11.1772333 10.9932896,12.0650378 9.89662877,12.0650378 L9.16333034,12.0650378 L9.16333034,9.84857079 C9.16014228,8.56857082 8.12329008,7.53171862 6.84329011,7.52853056 L5.95504613,7.52853056 C4.67504615,7.53171862 3.63819396,8.56857082 3.6350059,9.84857079 L3.6350059,12.0633806 L2.89839312,12.0633806 C1.80334985,12.0611017 0.916209109,11.1739609 0.913930135,10.0789176 L0.913930135,2.89673595 Z"
								id="形状"></path>
							<path
								d="M2.43521366,3.68637822 L4.78259723,3.68637822 C5.03428564,3.68637822 5.23831941,3.48234444 5.23831941,3.23065603 C5.23831941,2.97896761 5.03428564,2.77493384 4.78259723,2.77493384 L2.43521366,2.77493384 C2.18352525,2.77493384 1.97949147,2.97896761 1.97949147,3.23065603 C1.97949147,3.48234444 2.18352525,3.68637822 2.43521366,3.68637822 Z"
								id="路径"></path>
						</g>
					</g>
				</g>
			</g>
		</g>
	</g>
</svg>