<?xml version="1.0" encoding="UTF-8"?>
<svg width="16px" height="16px" viewBox="0 0 16 16" version="1.1" xmlns="http://www.w3.org/2000/svg" xmlns:xlink="http://www.w3.org/1999/xlink">
    <title>修改</title>
    <g id="页面-1" stroke="none" stroke-width="1" fill="none" fill-rule="evenodd">
        <g id="各系统图标规范整理" transform="translate(-1685.000000, -929.000000)">
            <g id="财务中心系统" transform="translate(30.000000, 724.000000)">
                <g id="修改" transform="translate(1655.000000, 205.000000)">
                    <rect id="矩形备份-6" x="0" y="0" width="16" height="16"></rect>
                    <g id="修改账单" transform="translate(2.000000, 2.000000)" fill="#FFFFFF" fill-rule="nonzero" stroke="#FFFFFF" stroke-width="0.3">
                        <g id="修改">
                            <path d="M11.9998554,6.00005783 C11.9998554,5.76902169 11.8100819,5.5814747 11.5812723,5.5814747 C11.3524337,5.5814747 11.1626602,5.76899277 11.1626602,6.00005783 L11.9998554,6.00005783 Z M5.99994217,0.837339759 C6.22875181,0.837339759 6.4185253,0.649792771 6.4185253,0.418727711 C6.4185253,0.187691566 6.22875181,0.000144578316 5.99994217,0.000144578316 L5.99994217,0.837339759 Z M4.43345465,8.22702651 L4.35345542,7.81231807 L4.43345465,8.22702651 Z M3.36,7.52877108 L3.77300241,7.60873123 L3.36,7.52877108 Z M4.33110361,5.27282892 L4.03529639,4.97702169 L4.33110361,5.27282892 Z M4.42600482,5.99186429 L4.01297349,5.91190414 L4.42600482,5.99186429 Z M6.72549398,7.66776867 L7.0213012,7.96415422 L6.72549398,7.66776867 Z M6.16923296,8.40170602 L6.08923373,7.98702651 L6.16923296,8.40170602 Z M11.2519518,1.54785542 L10.9561446,1.84366265 L11.2519518,1.54785542 Z M11.2519518,3.14411566 L10.9561446,2.84830843 L11.2519518,3.14411566 Z M10.4538217,0.749146988 L10.7496289,0.453339759 L10.4538217,0.749146988 Z M8.85756145,0.749146988 L9.15336867,1.04553253 L8.85756145,0.749146988 Z M8.47807229,1.54785542 C8.47807229,1.31676145 8.2882988,1.12924337 8.05946024,1.12924337 C7.82504096,1.12924337 7.64087711,1.31676145 7.64087711,1.54785542 L8.47807229,1.54785542 Z M10.8724627,3.94279518 C10.8724627,3.71118072 10.6826892,3.52418313 10.4538506,3.52418313 L10.4538506,4.36137831 C10.6826892,4.36137831 10.8724627,4.17386024 10.8724627,3.94279518 Z M11.1626892,6.00005783 L11.1626892,9.34886747 L11.9998843,9.34886747 L11.9998843,6.00005783 L11.1626892,6.00005783 Z M9.34872289,11.1628048 L2.65113253,11.1628048 L2.65113253,12 L9.34872289,12 L9.34872289,11.1628048 Z M0.837195181,9.34886747 L0.837195181,2.65127711 L3.63820085e-13,2.65127711 L3.63820085e-13,9.34886747 L0.837195181,9.34886747 Z M5.99994217,0.837339759 L5.99994217,0.000144578316 L2.65113253,0.000144578316 L2.65113253,0.837339759 L5.99994217,0.837339759 Z M0.837195181,2.65127711 C0.837195181,1.64943614 1.65206747,0.837339759 2.65113253,0.837339759 L2.65113253,0.000144578313 C1.18880964,0.000144578313 0,1.18727711 0,2.65127711 L0.837195181,2.65127711 Z M2.65113253,11.1628048 C1.65209639,11.1628048 0.837195181,10.3507084 0.837195181,9.34886747 L3.63709063e-13,9.34886747 C3.63709063e-13,10.8128675 1.18880964,12 2.65113253,12 L2.65113253,11.1628048 Z M9.34872289,11.1628048 L9.34872289,12 C10.8110458,12 11.9998554,10.8128386 11.9998554,9.34886747 L11.1626602,9.34886747 C11.1626602,10.3507084 10.347788,11.1628048 9.34872289,11.1628048 Z M10.1580145,1.04553253 L10.9561446,1.84366265 L11.547759,1.25146988 L10.7496289,0.453339759 L10.1580145,1.04553253 Z M6.42968675,7.37196145 L7.0213012,7.96415422 L11.547759,3.44047229 L10.9561446,2.84827952 L6.42968675,7.37196145 Z M9.15336867,1.04553253 L8.56175422,0.453339759 L4.03529639,4.97702169 L4.62691084,5.56921446 L9.15336867,1.04553253 Z M6.02784578,7.57289639 L4.35342651,7.81231807 L4.4706506,8.64115663 L6.14504096,8.40173494 L6.02784578,7.57289639 Z M4.42600482,5.97105542 L3.59997108,5.85273253 L3.35997108,7.5288 L4.18600482,7.64712289 L4.42600482,5.97105542 Z M4.35342651,7.81231807 C4.25855422,7.82628434 4.17484337,7.74367229 4.18600482,7.64712289 L3.35997108,7.5288 C3.26506988,8.1778988 3.8232,8.73380241 4.47062169,8.64115663 L4.35342651,7.81231807 Z M3.59997108,5.85273253 L4.42600482,5.97105542 C4.44832771,5.81866988 4.52087711,5.6780241 4.62691084,5.56918554 L4.03529639,4.97699277 C3.80087711,5.21366747 3.64461687,5.52121446 3.59997108,5.85273253 Z M6.42968675,7.37196145 C6.32365301,7.4808 6.1785253,7.55112289 6.02784578,7.57289639 L6.14504096,8.40170602 C6.47991325,8.35428434 6.78691084,8.2008 7.0213012,7.96415422 L6.42968675,7.37196145 Z M10.9561446,1.84366265 C11.2296289,2.1210506 11.2296289,2.57089157 10.9561446,2.84827952 L11.547759,3.44047229 C12.1505639,2.83601928 12.1505639,1.85592289 11.547759,1.25146988 L10.9561446,1.84366265 Z M10.7496289,0.453339759 C10.1412723,-0.151113253 9.16455904,-0.151113253 8.56175422,0.453339759 L9.15336867,1.04553253 C9.42685301,0.768144578 9.8789494,0.768144578 10.1580145,1.04553253 L10.7496289,0.453339759 Z M8.05943133,1.54785542 L7.64084819,1.54785542 L7.64084819,1.61146988 C7.64084819,1.64440482 7.64642892,1.6896 7.65759036,1.74430843 C7.66875181,1.85314699 7.70223614,2.00272771 7.75804337,2.17908434 C7.87526747,2.5323759 8.10965783,2.99005301 8.56175422,3.44047229 L9.15336867,2.84827952 C8.80175422,2.50001928 8.63433253,2.15956627 8.55617349,1.91453494 C8.51152771,1.79118072 8.49478554,1.69130602 8.48359518,1.62595663 C8.47804337,1.5930506 8.47804337,1.5690506 8.47804337,1.55566265 L8.47804337,1.54337349 C8.47804337,1.54730602 8.47804337,1.54785542 8.05943133,1.54785542 Z M9.82314217,4.2397012 C9.99617349,4.29889157 10.146853,4.32902169 10.2584964,4.34466506 C10.3087229,4.35247229 10.3533687,4.3563759 10.3868819,4.35860241 C10.4035952,4.35973012 10.4203373,4.36027952 10.4314988,4.36082892 C10.4370795,4.36082892 10.4370795,4.36082892 10.4426602,4.36140723 L10.4538217,4.36140723 L10.4538217,3.94279518 L10.4538217,3.52418313 C10.4538217,3.52418313 10.4538217,3.52363373 10.4426602,3.52363373 C10.4202934,3.52142319 10.3979671,3.51882038 10.3756916,3.51582651 C10.3087229,3.50634217 10.2082699,3.48679518 10.0854651,3.44550361 C9.83988434,3.36401928 9.49943133,3.19656867 9.15336867,2.84827952 L8.56175422,3.44047229 C9.00826988,3.89031325 9.46594699,4.12195663 9.82314217,4.2397012 Z" id="形状"></path>
                        </g>
                    </g>
                </g>
            </g>
        </g>
    </g>
</svg>