<?xml version="1.0" encoding="UTF-8"?>
<svg width="16px" height="16px" viewBox="0 0 16 16" version="1.1" xmlns="http://www.w3.org/2000/svg" xmlns:xlink="http://www.w3.org/1999/xlink">
    <title>内部交易</title>
    <g id="页面-1" stroke="none" stroke-width="1" fill="none" fill-rule="evenodd">
        <g id="各系统图标规范整理" transform="translate(-255.000000, -234.000000)">
            <g id="经营核算管理系统" transform="translate(30.000000, 100.000000)">
                <g id="内部交易" transform="translate(225.000000, 134.000000)">
                    <rect id="矩形" x="0" y="0" width="16" height="16"></rect>
                    <g transform="translate(0.142419, 0.199716)" fill="#474747">
                        <rect id="矩形" opacity="0.05" x="0.998284271" y="1" width="13.9759798" height="14" rx="6.5"></rect>
                        <path d="M8.55595088,8.83653205 L8.55595088,7.84334939 L10.3129164,7.84334939 C10.6312282,7.84334939 10.8899166,7.58421638 10.8899166,7.26535754 C10.8899166,6.9464987 10.6312282,6.68736569 10.3129164,6.68736569 L9.25219775,6.68736569 L10.4283164,5.34353464 C10.5293602,5.22832928 10.5805576,5.07762204 10.5706376,4.924591 C10.5607176,4.77155996 10.4904933,4.62875079 10.3754248,4.52760282 C10.1357412,4.31736577 9.77142136,4.34106356 9.56089284,4.5805854 L7.97895071,6.38777325 L6.3960469,4.58154872 C6.29507247,4.46628237 6.15250832,4.39593746 5.99973984,4.38600038 C5.84697136,4.3760633 5.6965227,4.4273487 5.58151499,4.52856614 C5.4664464,4.62971411 5.39622219,4.77252328 5.38630216,4.92555432 C5.37638213,5.07858536 5.42757954,5.2292926 5.52862331,5.34449796 L6.70474199,6.68832901 L5.64498501,6.68832901 C5.32667325,6.68832901 5.06798484,6.94746202 5.06798484,7.26632086 C5.06798484,7.5851797 5.32667325,7.84431271 5.64498501,7.84431271 L7.40195053,7.84431271 L7.40195053,8.83749537 L5.64498501,8.83749537 C5.32667325,8.83749537 5.06798484,9.09662838 5.06798484,9.41548722 C5.06798484,9.73434605 5.32667325,9.99347907 5.64498501,9.99347907 L7.40195053,9.99347907 L7.40195053,11.0223046 C7.40195053,11.3411634 7.66063894,11.6002964 7.97895071,11.6002964 C8.29726247,11.6002964 8.55595088,11.3411634 8.55595088,11.0223046 L8.55595088,9.99347907 L10.3129164,9.99347907 C10.6312282,9.99347907 10.8899166,9.73434605 10.8899166,9.41548722 C10.8899166,9.09662838 10.6312282,8.83653205 10.3129164,8.83653205 L8.55595088,8.83653205 Z" id="路径" fill-rule="nonzero"></path>
                        <path d="M14.4125026,15.6 L7.78661732,15.6 C3.49277437,15.6 0,12.1002594 0,7.8 C0,3.49974064 3.49373604,0 7.78661732,0 C12.0794986,0 15.5732346,3.49974064 15.5732346,7.8 C15.5732346,8.88662468 15.3539746,9.93856984 14.9221861,10.9259726 C14.8609125,11.0664201 14.746416,11.176707 14.6039178,11.2325395 C14.4614195,11.2883719 14.3026092,11.2851698 14.1624692,11.2236384 C14.0222626,11.1622595 13.912165,11.0475662 13.8564283,10.904823 C13.8006917,10.7620798 13.8038883,10.6029966 13.8653141,10.4626158 C14.2326709,9.62163764 14.4192343,8.72575028 14.4192343,7.8 C14.4192343,4.136495 11.4438367,1.1559837 7.78661732,1.1559837 C4.12939789,1.1559837 1.15303868,4.13553168 1.15303868,7.8 C1.15303868,11.4644683 4.12843623,14.4440163 7.78565565,14.4440163 L13.0190472,14.4440163 L11.4496067,12.8718785 C11.2245767,12.6464617 11.2245767,12.2804001 11.4496067,12.05402 C11.6746368,11.8286032 12.0400702,11.8286032 12.266062,12.05402 L14.8202494,14.6125973 C14.9856561,14.7782883 15.0347011,15.0268247 14.9452661,15.2426084 C14.8558311,15.458392 14.6461877,15.6 14.4125026,15.6 Z" id="路径" fill-rule="nonzero"></path>
                    </g>
                </g>
            </g>
        </g>
    </g>
</svg>