<?xml version="1.0" encoding="UTF-8"?>
<svg width="16px" height="16px" viewBox="0 0 16 16" version="1.1" xmlns="http://www.w3.org/2000/svg" xmlns:xlink="http://www.w3.org/1999/xlink">
    <title>分配角色</title>
    <g id="页面-1" stroke="none" stroke-width="1" fill="none" fill-rule="evenodd">
        <g id="各系统图标规范整理" transform="translate(-1613.000000, -598.000000)">
            <g id="朱雀平台系统" transform="translate(30.000000, 428.000000)">
                <g id="分配角色" transform="translate(1583.000000, 170.000000)">
                    <rect id="矩形备份-16" x="0" y="0" width="16" height="16"></rect>
                    <g id="人员管理" transform="translate(1.074300, 1.892747)" fill="#FFFFFF" fill-rule="nonzero" stroke="#FFFFFF" stroke-width="0.3">
                        <path d="M0.876478722,12.1847065 L10.3853036,12.1847065 C10.3853036,9.5479867 8.94681273,7.31016316 6.93847007,6.46154598 C8.18598354,5.71611818 8.93911203,4.22988301 8.53405519,2.59579438 C8.2306476,1.37138302 7.22955655,0.384153229 6.00052476,0.0976871748 C3.71341675,-0.435201292 1.68197198,1.28513518 1.68197198,3.48137493 C1.68197198,4.75199049 2.3704146,5.85319065 3.38844719,6.46154598 C1.6326875,7.2038935 0.312787453,9.00893767 0.00783971743,11.2128781 C-0.0630067262,11.728825 0.355911375,12.1847065 0.876478722,12.1847065 Z M3.72727801,7.26395896 L3.76116109,7.2500977 C3.91363496,7.18541182 4.04916728,7.07760201 4.14773625,6.92974856 C4.24630521,6.78189512 4.29250942,6.61401985 4.29250942,6.44922486 L4.29250942,6.48464808 C4.29250942,6.33833477 4.25554605,6.19048133 4.17853905,6.054949 C4.10153205,5.91941667 3.99372224,5.81160687 3.86743075,5.73768014 L3.83354767,5.71765832 C3.03113469,5.23867476 2.55215113,4.40391884 2.55215113,3.48599535 C2.55215113,2.04596437 3.72265759,0.875457915 5.16268856,0.875457915 C6.60271953,0.875457915 7.77322599,2.04596437 7.77322599,3.48599535 C7.77322599,4.40391884 7.29424243,5.23867476 6.49182945,5.71765832 L6.45794637,5.73768014 C6.33319502,5.81314701 6.22384508,5.91941667 6.14683807,6.054949 C6.06983107,6.19048133 6.03286771,6.33833477 6.03286771,6.48464808 L6.03286771,6.44768472 C6.03286771,6.61247971 6.07907191,6.78035498 6.17764087,6.92820842 C6.27620984,7.07606187 6.41174217,7.18387168 6.56421603,7.24855756 L6.59809911,7.26241882 C8.10897653,7.90003681 9.19015487,9.46943955 9.45197868,11.3129872 L0.873398442,11.3129872 C1.13522226,9.47097969 2.21640059,7.90157695 3.72727801,7.26395896 Z" id="形状"></path>
                        <path d="M11.1630743,7.34404625 C12.1518442,6.70488811 12.7494186,5.51589997 12.5060765,4.20524076 C12.2966174,3.07785823 11.4202777,2.13837278 10.3113768,1.8472863 C9.58597087,1.65630893 8.89598811,1.73793636 8.2999539,1.99822003 C8.42470525,2.26158399 8.52327421,2.5388092 8.57871926,2.83297595 C8.86364517,2.69590349 9.17783375,2.61273592 9.51512442,2.61273592 C10.8950899,2.61273592 11.9778084,3.90337331 11.6220361,5.340324 C11.4849636,5.89323429 11.0968483,6.35065589 10.6178647,6.65868391 L10.7826597,6.55241424 C10.6640689,6.62942125 10.5624197,6.73415077 10.4900331,6.86660282 C10.4176465,6.99905487 10.3837634,7.1422879 10.3837634,7.28244064 L10.3837634,7.38563003 C10.3837634,7.54426446 10.4268874,7.70597916 10.5177556,7.84921219 C10.6086239,7.99398536 10.7349154,8.10179516 10.8781484,8.16956133 L10.78574,8.12489727 C11.9316042,8.67318713 12.7309369,9.87295625 12.9388558,11.3114471 L9.51512442,11.3114471 C9.55054765,11.596373 9.57364975,11.8859193 9.57364975,12.1816262 L12.9234544,12.1816262 C13.447102,12.1816262 13.8691004,11.7195842 13.7905533,11.2020971 C13.5210288,9.45095787 12.5368793,8.00014592 11.1630743,7.34404625 Z" id="路径"></path>
                    </g>
                </g>
            </g>
        </g>
    </g>
</svg>