<?xml version="1.0" encoding="UTF-8"?>
<svg width="16px" height="16px" viewBox="0 0 16 16" version="1.1" xmlns="http://www.w3.org/2000/svg" xmlns:xlink="http://www.w3.org/1999/xlink">
    <title>删除节点</title>
    <g id="页面-1" stroke="none" stroke-width="1" fill="none" fill-rule="evenodd">
        <g id="各系统图标规范整理" transform="translate(-636.000000, -1214.000000)">
            <g id="朱雀能力平台系统" transform="translate(30.000000, 1081.000000)">
                <g id="编组-14" transform="translate(525.000000, 70.000000)">
                    <g id="删除节点" transform="translate(81.000000, 63.000000)">
                        <rect id="矩形" x="0" y="0" width="16" height="16"></rect>
                        <g id="添加-(1)" transform="translate(1.000000, 1.000000)" fill="#FC6B6B" fill-rule="nonzero">
                            <path d="M7,0 C10.8659091,0 14,3.13409091 14,7 C14,10.8659091 10.8659091,14 7,14 C3.13409091,14 0,10.8659091 0,7 C0,3.13409091 3.13409091,0 7,0 Z M7,1.11363635 C3.74913636,1.11363635 1.11363635,3.74913636 1.11363635,7 C1.11363635,10.2508636 3.74913636,12.8863636 7,12.8863636 C10.2508636,12.8863636 12.8863636,10.2508636 12.8863636,7 C12.8863636,3.74913636 10.2508636,1.11363635 7,1.11363635 Z" id="形状"></path>
                            <g id="编组-7" transform="translate(7.000000, 7.000000) rotate(-315.000000) translate(-7.000000, -7.000000) translate(3.897970, 3.897970)">
                                <path d="M5.64748475,2.54521202 C5.94599077,2.54534633 6.19128806,2.78084832 6.20358011,3.07910118 C6.21587216,3.37735404 5.99078557,3.6322422 5.69330293,3.65693929 L5.64748475,3.65884838 L0.556575647,3.65884838 C0.258069625,3.65871407 0.0127723341,3.42321208 0.000480287061,3.12495922 C-0.0118117599,2.82670636 0.213274832,2.5718182 0.510757465,2.54712111 L0.556575647,2.54521202 L5.64748475,2.54521202 Z" id="路径"></path>
                                <path d="M2.54521202,0.556575647 C2.54534633,0.258069625 2.78084832,0.0127723341 3.07910118,0.000480287061 C3.37735404,-0.0118117599 3.6322422,0.213274832 3.65693929,0.510757465 L3.65884838,0.556575647 L3.65884838,5.64748475 C3.65871407,5.94599077 3.42321208,6.19128806 3.12495922,6.20358011 C2.82670636,6.21587216 2.5718182,5.99078557 2.54712111,5.69330293 L2.54521202,5.64748475 L2.54521202,0.556575647 Z" id="路径"></path>
                            </g>
                        </g>
                    </g>
                </g>
            </g>
        </g>
    </g>
</svg>