<?xml version="1.0" encoding="UTF-8"?>
<svg width="16px" height="16px" viewBox="0 0 16 16" version="1.1" xmlns="http://www.w3.org/2000/svg" xmlns:xlink="http://www.w3.org/1999/xlink">
    <title>删除</title>
    <g id="页面-1" stroke="none" stroke-width="1" fill="none" fill-rule="evenodd">
        <g id="各系统图标规范整理" transform="translate(-1829.000000, -857.000000)">
            <g id="财务中心系统" transform="translate(30.000000, 724.000000)">
                <g id="删除" transform="translate(1799.000000, 133.000000)">
                    <rect id="矩形备份-7" x="0" y="0" width="16" height="16"></rect>
                    <g id="账单作废" transform="translate(1.470026, 1.080395)" fill="#FFFFFF" fill-rule="nonzero">
                        <g id="删除">
                            <path d="M8.50396563,0 C9.30464953,0 9.96433312,0.628546039 10.0029868,1.42829637 L10.0047118,1.50074619 L10.0047118,2.24249431 L12.3334559,2.24249431 C12.657121,2.24263983 12.9230928,2.49799066 12.9364208,2.82138122 C12.9497489,3.14477179 12.7056912,3.42114272 12.3831358,3.44792126 L12.3334559,3.44999125 L0.603485684,3.44999125 C0.279820616,3.44984573 0.0138488271,3.19449491 0.000520767069,2.87110434 C-0.012807293,2.54771377 0.231250377,2.27134284 0.55380581,2.24456431 L0.603485684,2.24249431 L2.93222977,2.24249431 L2.93222977,1.50074619 C2.93221653,0.700062291 3.56077581,0.0403787064 4.36052614,0.00172500101 L4.43297596,0 L8.50396563,0 Z M8.50396563,1.20749694 L4.43297596,1.20749694 C4.2853229,1.20753835 4.1607286,1.31735278 4.1421417,1.46383129 L4.13972671,1.50074619 L4.13972671,2.24249431 L8.79721488,2.24249431 L8.79721488,1.50074619 C8.79721488,1.35309313 8.68735904,1.22849883 8.54088053,1.20991193 L8.50396563,1.20749694 Z M11.900137,4.17659444 L11.902207,4.22627431 L11.902207,11.1262568 C11.902207,12.5698704 10.7562197,13.7527969 9.31333358,13.79862 L9.22846379,13.8 L3.7084778,13.8 C2.26486423,13.8 1.08193767,12.6540127 1.03611459,11.2111266 L1.03473459,11.1262568 L1.03473459,4.22627431 C1.03488012,3.90260924 1.29023094,3.63663745 1.61362151,3.62330939 C1.93701208,3.60998133 2.213383,3.854039 2.24016154,4.17659444 L2.24223153,4.22627431 L2.24223153,11.1262568 C2.24223238,11.9084136 2.85617048,12.5528665 3.63740799,12.5907781 L3.7084778,12.5925031 L9.22846379,12.5925031 C10.0106206,12.5925022 10.6550735,11.9785641 10.6929851,11.1973266 L10.6947101,11.1262568 L10.6947101,4.22627431 C10.6947101,3.89300516 10.9651894,3.62252585 11.2984585,3.62252585 C11.6126294,3.62252585 11.8742852,3.86348902 11.900137,4.17659444 Z" id="形状"></path>
                            <path d="M4.91597474,5.00252234 C5.23014558,5.00252234 5.49180143,5.24348551 5.51765321,5.55659093 L5.5197232,5.6062708 L5.5197232,9.74626029 C5.51957758,10.0699253 5.26422678,10.335897 4.94083629,10.349225 C4.61744579,10.3625531 4.3410749,10.1184955 4.31429627,9.79594016 L4.31222628,9.74626029 L4.31222628,5.6062708 C4.31222628,5.27300165 4.58270558,5.00252234 4.91597474,5.00252234 Z M8.02096685,5.00252234 C8.33513769,5.00252234 8.59679355,5.24348551 8.62264532,5.55659093 L8.62471532,5.6062708 L8.62471532,9.74626029 C8.62456969,10.0699253 8.3692189,10.335897 8.0458284,10.349225 C7.72243791,10.3625531 7.44606702,10.1184955 7.41928839,9.79594016 L7.41721839,9.74626029 L7.41721839,5.6062708 C7.41721839,5.27300165 7.6876977,5.00252234 8.02096685,5.00252234 Z" id="形状"></path>
                        </g>
                    </g>
                </g>
            </g>
        </g>
    </g>
</svg>