<?xml version="1.0" encoding="UTF-8"?>
<svg width="16px" height="16px" viewBox="0 0 16 16" version="1.1" xmlns="http://www.w3.org/2000/svg" xmlns:xlink="http://www.w3.org/1999/xlink">
    <title>动因管理</title>
    <g id="页面-1" stroke="none" stroke-width="1" fill="none" fill-rule="evenodd">
        <g id="各系统图标规范整理" transform="translate(-219.000000, -234.000000)">
            <g id="经营核算管理系统" transform="translate(30.000000, 100.000000)">
                <g id="动因管理" transform="translate(189.000000, 134.000000)">
                    <rect id="矩形" x="0" y="0" width="16" height="16"></rect>
                    <g transform="translate(0.230610, 0.815031)" fill="#474747">
                        <path d="M15.134323,5.52703525 L12.858485,1.6255986 C12.2732695,0.617727472 11.2003744,0 10.0624554,0 L5.51077927,0 C4.37286025,0 3.2674532,0.617727472 2.71474967,1.6255986 L0.438911619,5.52703525 C-0.146303873,6.53490638 -0.146303873,7.80287331 0.438911619,8.81074443 L2.71474967,12.7121811 C3.29996516,13.7200522 4.37286025,14.3377797 5.51077927,14.3377797 L10.0624554,14.3377797 C11.2003744,14.3377797 12.3057814,13.7200522 12.858485,12.7121811 L15.134323,8.81074443 C15.7195385,7.77036133 15.7195385,6.53490638 15.134323,5.52703525 Z M14.1945707,8.11367646 L11.8527333,12.1282548 C11.4847303,12.7304415 10.8156339,13.1318994 10.1130827,13.1318994 L5.429408,13.1318994 C4.72685679,13.1318994 4.05776041,12.7638963 3.6897574,12.1282548 L1.34792004,8.11367646 C0.979917029,7.47803489 0.979917029,6.70857404 1.34792004,6.1063873 L3.6897574,2.09180899 C4.05776041,1.48962225 4.72685679,1.08816441 5.429408,1.08816441 L10.1130827,1.08816441 C10.8156339,1.08816441 11.4847303,1.45616743 11.8527333,2.09180899 L14.1945707,6.1063873 C14.5625737,6.70857404 14.5625737,7.51148971 14.1945707,8.11367646 Z" id="形状" fill-rule="nonzero"></path>
                        <path d="M7.78661731,4.22655636 C6.16101871,4.22655636 4.86053983,5.52703525 4.86053983,7.15263385 C4.86053983,8.77823245 6.16101872,10.0787113 7.78661731,10.0787113 C9.4122159,10.0787113 10.7126948,8.77823245 10.7126948,7.15263385 C10.7126948,5.52703525 9.41221591,4.22655636 7.78661731,4.22655636 Z M7.77124535,8.99644959 C6.75421884,8.99644959 5.95512659,8.19735734 5.95512659,7.18033082 C5.95512659,6.1633043 6.75421884,5.36421207 7.77124535,5.36421207 C8.78827185,5.36421207 9.58736411,6.16330432 9.58736411,7.18033082 C9.58736411,8.19735733 8.78827186,8.99644959 7.77124535,8.99644959 Z" id="形状" fill-rule="nonzero"></path>
                        <path d="M14.1945707,8.11367646 L11.8527333,12.1282548 C11.4847303,12.7304415 10.8156339,13.1318994 10.1130827,13.1318994 L5.429408,13.1318994 C4.72685679,13.1318994 4.05776041,12.7638963 3.6897574,12.1282548 L1.34792004,8.11367646 C0.979917029,7.47803489 0.979917029,6.70857404 1.34792004,6.1063873 L3.6897574,2.09180899 C4.05776041,1.48962225 4.72685679,1.08816441 5.429408,1.08816441 L10.1130827,1.08816441 C10.8156339,1.08816441 11.4847303,1.45616743 11.8527333,2.09180899 L14.1945707,6.1063873 C14.5625737,6.70857404 14.5625737,7.51148971 14.1945707,8.11367646 Z" id="路径" opacity="0.05"></path>
                    </g>
                </g>
            </g>
        </g>
    </g>
</svg>