<?xml version="1.0" encoding="UTF-8"?>
<svg width="16px" height="16px" viewBox="0 0 16 16" version="1.1" xmlns="http://www.w3.org/2000/svg" xmlns:xlink="http://www.w3.org/1999/xlink">
    <title>单选框-选中状态</title>
    <g id="页面-1" stroke="none" stroke-width="1" fill="none" fill-rule="evenodd">
        <g id="各系统图标规范整理" transform="translate(-898.000000, -276.000000)">
            <g id="经营核算管理系统" transform="translate(30.000000, 100.000000)">
                <g id="编组-10" transform="translate(787.000000, 70.000000)">
                    <g id="单选框-选中状态" transform="translate(81.000000, 106.000000)">
                        <rect id="矩形备份-31" x="0" y="0" width="16" height="16"></rect>
                        <g id="矩形" transform="translate(1.000000, 1.000000)" fill="#0C9AF3">
                            <path d="M7,0 C10.8659932,-7.10171439e-16 14,3.13400675 14,7 C14,10.8659932 10.8659932,14 7,14 C3.13400675,14 -3.07926605e-15,10.8659932 0,7 C-4.73447626e-16,3.13400675 3.13400675,7.10171439e-16 7,0 Z M7,3.88888889 C5.28178078,3.88888889 3.88888889,5.28178078 3.88888889,7 C3.88888889,8.71821922 5.28178078,10.1111111 7,10.1111111 C8.71821922,10.1111111 10.1111111,8.71821922 10.1111111,7 C10.1111111,5.28178078 8.71821922,3.88888889 7,3.88888889 Z" id="形状结合"></path>
                        </g>
                    </g>
                </g>
            </g>
        </g>
    </g>
</svg>