<?xml version="1.0" encoding="UTF-8"?>
<svg width="16px" height="16px" viewBox="0 0 16 16" version="1.1" xmlns="http://www.w3.org/2000/svg" xmlns:xlink="http://www.w3.org/1999/xlink">
    <title>发布能力</title>
    <g id="页面-1" stroke="none" stroke-width="1" fill="none" fill-rule="evenodd">
        <g id="各系统图标规范整理" transform="translate(-1865.000000, -1214.000000)">
            <g id="朱雀能力平台系统" transform="translate(30.000000, 1081.000000)">
                <g id="编组-16" transform="translate(1574.000000, 70.000000)">
                    <g id="发布能力" transform="translate(261.000000, 63.000000)">
                        <polygon id="矩形备份" points="2.27373675e-13 0 16 0 16 16 2.27373675e-13 16"></polygon>
                        <path d="M14.3853029,1.80928469 C14.0235492,1.44226896 13.4892995,1.30387897 12.9948558,1.44910863 L2.4157312,4.46453606 C1.93492653,4.60457559 1.56389307,4.9882291 1.4400076,5.47344719 C1.31612213,5.95866528 1.45782334,6.47322977 1.81264572,6.82662088 L4.09096867,9.11332002 C4.2551931,9.27754445 4.52145352,9.27754445 4.68567796,9.11332001 C4.8499024,8.94909558 4.8499024,8.68283516 4.68567796,8.51861072 L2.39897883,6.23191159 C2.25478443,6.08687516 2.1979782,5.87643192 2.24960301,5.67853682 C2.30122781,5.48064173 2.45359561,5.32476562 2.65026445,5.26865005 L13.2210128,2.22809405 C13.2599877,2.22387221 13.2993046,2.22387221 13.3382795,2.22809405 L5.58193001,10.0095721 C5.5037697,10.0874077 5.45874728,10.19246 5.4562872,10.3027386 L5.4562872,14.2814276 C5.4562872,14.5127296 5.64379454,14.700237 5.87509656,14.700237 C6.10639859,14.700237 6.29390593,14.5127296 6.29390593,14.2814276 L6.29390593,11.3162573 L9.35121429,14.3735656 C9.6139095,14.6411194 9.97302239,14.7920072 10.3479806,14.792375 C10.4696869,14.7909939 10.5907209,14.7741055 10.7081566,14.7421179 C11.1947362,14.6193891 11.5782932,14.245421 11.7132991,13.762104 L14.7371027,3.19135559 C14.8830137,2.70102653 14.7478887,2.17017822 14.3853029,1.80928469 Z M10.9175613,13.5359469 C10.8614457,13.7326158 10.7055696,13.8849836 10.5076745,13.9366084 C10.3097794,13.9882332 10.0993362,13.9314269 9.95429978,13.7872325 L6.46980586,10.3027386 L13.9581173,2.83955573 C13.962892,2.88130058 13.962892,2.92345368 13.9581173,2.96519854 L10.9175613,13.5359469 Z" id="形状" stroke="#FFFFFF" stroke-width="0.3" fill="#FFFFFF" fill-rule="nonzero"></path>
                    </g>
                </g>
            </g>
        </g>
    </g>
</svg>