<?xml version="1.0" encoding="UTF-8"?>
<svg width="16px" height="16px" viewBox="0 0 16 16" version="1.1" xmlns="http://www.w3.org/2000/svg" xmlns:xlink="http://www.w3.org/1999/xlink">
    <title>启用</title>
    <g id="页面-1" stroke="none" stroke-width="1" fill="none" fill-rule="evenodd">
        <g id="各系统图标规范整理" transform="translate(-1649.000000, -893.000000)">
            <g id="财务中心系统" transform="translate(30.000000, 724.000000)">
                <g id="启用" transform="translate(1619.000000, 169.000000)">
                    <rect id="矩形备份-9" x="0" y="0" width="16" height="16"></rect>
                    <g transform="translate(1.000000, 1.000000)" fill="#FFFFFF" fill-rule="nonzero">
                        <g>
                            <path d="M7,0 C10.8659091,0 14,3.13409091 14,7 C14,10.8659091 10.8659091,14 7,14 C3.13409091,14 0,10.8659091 0,7 C0,3.13409091 3.13409091,0 7,0 Z M7,1.11363635 C3.74913636,1.11363635 1.11363635,3.74913636 1.11363635,7 C1.11363635,10.2508636 3.74913636,12.8863636 7,12.8863636 C10.2508636,12.8863636 12.8863636,10.2508636 12.8863636,7 C12.8863636,3.74913636 10.2508636,1.11363635 7,1.11363635 Z" id="形状"></path>
                            <path d="M5.21797081,7.0360235 L6.51522224,8.32784403 L9.44422776,5.39441214 C9.63632057,5.20205198 9.94798145,5.20183507 10.1403418,5.39392766 C10.3327022,5.58602024 10.3329191,5.89768077 10.1408263,6.09004094 L6.8645059,9.37129491 C6.67261565,9.56349269 6.36130975,9.56393321 6.16887632,9.37227929 L4.52335637,7.73345186 C4.39670422,7.60979304 4.34620854,7.42764913 4.39111184,7.25643018 C4.43601515,7.08521123 4.56940068,6.95129127 4.74043885,6.90570354 C4.91147702,6.86011581 5.09382165,6.9098825 5.21798619,7.03603888 L5.21797081,7.0360235 Z" id="路径"></path>
                        </g>
                    </g>
                </g>
            </g>
        </g>
    </g>
</svg>