<?xml version="1.0" encoding="UTF-8"?>
<svg width="16px" height="16px" viewBox="0 0 16 16" version="1.1" xmlns="http://www.w3.org/2000/svg" xmlns:xlink="http://www.w3.org/1999/xlink">
    <title>响应示例-点击状态</title>
    <g id="页面-1" stroke="none" stroke-width="1" fill="none" fill-rule="evenodd">
        <g id="各系统图标规范整理" transform="translate(-564.000000, -1322.000000)">
            <g id="朱雀能力平台系统" transform="translate(30.000000, 1081.000000)">
                <g id="编组-14" transform="translate(525.000000, 70.000000)">
                    <g id="响应示例-点击状态" transform="translate(9.000000, 171.000000)">
                        <rect id="矩形备份-44" x="0" y="0" width="16" height="16"></rect>
                        <g id="响应示例" transform="translate(1.489503, 1.576085)" fill="#037DF4" fill-rule="nonzero" stroke="#037DF4">
                            <path d="M9.25,4 L3.25,4 C3,4 2.75,3.8 2.75,3.5 C2.75,3.25 2.95,3 3.25,3 L9.25,3 C9.50000001,3 9.75,3.19999999 9.75,3.5 C9.75,3.80000001 9.55,4 9.25,4 L9.25,4 Z M7.05,7.05 L3.25,7.05 C3,7.05 2.75,6.85 2.75,6.55 C2.75,6.3 2.95,6.05 3.25,6.05 L7.05,6.05 C7.3,6.05 7.55,6.25 7.55,6.55 C7.55,6.80000001 7.29999999,7.05 7.05,7.05 Z" id="形状" stroke-width="0.15"></path>
                            <path d="M12.5,9.35 L8.7,9.35 C8.45,9.35 8.2,9.15000001 8.2,8.85 C8.2,8.59999999 8.45,8.35 8.7,8.35 L12.5,8.35 C12.75,8.35 13,8.6 13,8.85 C13,9.09999999 12.75,9.35 12.5,9.35 L12.5,9.35 Z" id="路径" stroke-width="0.2"></path>
                            <path d="M12.5,8.35 L8.7,8.35 C8.45,8.35 8.2,8.55 8.2,8.85 C8.2,9.14999999 8.45,9.35 8.7,9.35 L12.5,9.35 C12.75,9.35 13,9.15000001 13,8.85 C13,8.54999999 12.75,8.35 12.5,8.35 L12.5,8.35 Z" id="路径" stroke-width="0.15"></path>
                            <path d="M1,10.5 L1,2.5 C1,1.65 1.65,1 2.5,1 L10.5,1 C11.35,1 12,1.65 12,2.5 L12,3.84999999 C12,4.14999999 12.2,4.34999999 12.5,4.35 C12.8,4.35000001 13,4.15 13,3.84999999 L13,2 C13,0.900000004 12.1,0 11,0 L2,0 C0.900000004,0 0,0.900000004 0,2 L0,11 C0,12.1 0.900000004,13 2,13 L3.84999999,13 C4.14999999,13 4.34999999,12.8 4.35,12.5 C4.35000001,12.2 4.15,12 3.84999999,12 L2.5,12 C1.65,12 1,11.35 1,10.5 Z" id="路径" stroke-width="0.15"></path>
                            <path d="M8.35,8.50000001 L10.65,6.2 C10.85,6 11.15,6 11.35,6.2 C11.55,6.4 11.55,6.7 11.35,6.9 L9.04999999,9.2 C8.85,9.4 8.55,9.4 8.35,9.2 C8.15,9 8.15,8.7 8.35,8.50000001 Z" id="路径" stroke-width="0.2"></path>
                            <path d="M11.05,6.05 C10.9,6.05 10.8,6.1 10.7,6.2 L8.35,8.50000001 C8.15,8.7 8.15,9 8.35,9.2 C8.45,9.3 8.6,9.35 8.7,9.35 C8.8,9.35 8.95000001,9.3 9.04999999,9.2 L11.35,6.9 C11.55,6.7 11.55,6.4 11.35,6.2 C11.3,6.1 11.15,6.05 11.05,6.05 L11.05,6.05 Z" id="路径" stroke-width="0.15"></path>
                            <path d="M8.50000001,12.15 L12.15,8.50000001 C12.35,8.30000001 12.65,8.30000001 12.85,8.50000001 C13.05,8.7 13.05,9 12.85,9.2 L9.2,12.85 C9,13.05 8.7,13.05 8.50000001,12.85 C8.30000001,12.65 8.30000001,12.35 8.50000001,12.15 Z" id="路径" stroke-width="0.2"></path>
                            <path d="M12.5,8.35 C12.35,8.35 12.25,8.40000001 12.15,8.50000001 L8.50000001,12.15 C8.30000001,12.35 8.30000001,12.65 8.50000001,12.85 C8.6,12.95 8.75000001,13 8.85000001,13 C8.94999998,13 9.1,12.95 9.2,12.85 L12.85,9.2 C13.05,9 13.05,8.7 12.85,8.50000001 C12.75,8.40000001 12.65,8.35 12.5,8.35 Z" id="路径" stroke-width="0.15"></path>
                        </g>
                    </g>
                </g>
            </g>
        </g>
    </g>
</svg>