<?xml version="1.0" encoding="UTF-8"?>
<svg width="16px" height="16px" viewBox="0 0 16 16" version="1.1" xmlns="http://www.w3.org/2000/svg" xmlns:xlink="http://www.w3.org/1999/xlink">
    <title>复制角色</title>
    <g id="页面-1" stroke="none" stroke-width="1" fill="none" fill-rule="evenodd">
        <g id="各系统图标规范整理" transform="translate(-1793.000000, -929.000000)">
            <g id="财务中心系统" transform="translate(30.000000, 724.000000)">
                <g id="复制角色" transform="translate(1763.000000, 205.000000)">
                    <rect id="矩形" x="0" y="0" width="16" height="16"></rect>
                    <g id="复制-(2)" transform="translate(1.626776, 1.204834)" fill="#FFFFFF" fill-rule="nonzero">
                        <path d="M11.6066667,0.999376541 C10.9108114,0.359656543 9.9639501,0.00105585216 8.97714843,0.00351046935 L4.78124418,0 C3.48267154,0 2.39892286,0.856375 2.16982158,1.98383929 C0.936659017,2.19330357 0,3.18416071 0,4.37142857 L0,11.1714286 C0,12.5104821 1.19165871,13.6 2.65624677,13.6 L7.96874031,13.6 C9.26731295,13.6 10.3510616,12.743625 10.5801629,11.6161607 C11.8133255,11.4066964 12.6959212,10.4193498 12.6959212,9.2320819 L12.6959212,3.40351047 C12.6985786,2.50129071 12.3063596,1.63558787 11.6066667,0.999376541 Z M9.64907899,11.1693983 C9.64807263,11.9737747 8.93511649,12.6256211 8.05533093,12.6265412 L2.59906148,12.6271033 C1.71927592,12.6261832 1.00631978,11.9743367 1.00531342,11.1699604 L1.00531342,4.3699604 C1.00631978,3.56558404 1.71927592,2.91373764 2.59906148,2.91281754 L8.05533093,2.91225546 C8.93511649,2.91317556 9.64807263,3.56502196 9.64907899,4.36939832 L9.64907899,11.1693983 Z M11.6874858,9.22857143 C11.6874858,9.68779765 11.4504126,10.1200848 11.0479944,10.3948929 C10.8738442,10.5143482 10.6249871,10.3982321 10.6249871,10.1990893 L10.6249871,4.37142857 C10.6249871,3.72733138 10.3451333,3.10961474 9.84699041,2.65416925 C9.34884751,2.19872376 8.67322075,1.94285714 7.96874031,1.94285714 L3.71974157,1.94285714 C3.50192933,1.94285714 3.37492754,1.71517857 3.50558167,1.55610714 C3.80615258,1.1881815 4.27896611,0.971428571 4.78124418,0.971428571 L9.03123901,0.971428571 C10.4982436,0.971428571 11.6874858,2.05873704 11.6874858,3.4 L11.6874858,9.22857143 Z" id="形状" stroke="#FFFFFF" stroke-width="0.2"></path>
                        <path d="M2.65624677,9.77498747 L5.04686886,9.77498747 C5.19356932,9.77498747 5.31249354,9.89391169 5.31249354,10.0406121 L5.28681519,10.6716863 C5.28681519,10.8183867 5.16789097,10.9373109 5.02119051,10.9373109 L2.63056842,10.9373109 C2.3371675,10.9373109 2.12499742,10.5996377 2.12499742,10.3062368 C2.12499742,10.0128359 2.36284585,9.77498747 2.65624677,9.77498747 Z" id="路径"></path>
                    </g>
                </g>
            </g>
        </g>
    </g>
</svg>