<?xml version="1.0" encoding="UTF-8"?>
<svg width="16px" height="16px" viewBox="0 0 16 16" version="1.1" xmlns="http://www.w3.org/2000/svg" xmlns:xlink="http://www.w3.org/1999/xlink">
    <title>复选框-选中状态</title>
    <g id="页面-1" stroke="none" stroke-width="1" fill="none" fill-rule="evenodd">
        <g id="各系统图标规范整理" transform="translate(-826.000000, -276.000000)">
            <g id="经营核算管理系统" transform="translate(30.000000, 100.000000)">
                <g id="编组-10" transform="translate(787.000000, 70.000000)">
                    <g id="复选框-选中状态" transform="translate(9.000000, 106.000000)">
                        <rect id="矩形备份-29" x="0" y="0" width="16" height="16"></rect>
                        <g id="勾选框-已选状态" transform="translate(1.000000, 1.000000)" fill="#0C9AF3">
                            <path d="M12,0 C13.1045695,5.56104062e-16 14,0.8954305 14,2 L14,12 C14,13.1045695 13.1045695,14 12,14 L2,14 C0.8954305,14 8.94280938e-16,13.1045695 0,12 L0,2 C-3.57315355e-16,0.8954305 0.8954305,-1.91384796e-17 2,0 L12,0 Z M11.4618311,4.09506222 C11.1869333,3.82016445 10.7411733,3.82016445 10.4662444,4.09506222 L10.4662444,4.09506222 L5.93360444,8.62770222 L3.53506221,6.22916 C3.26016444,5.95426222 2.81440444,5.95426222 2.53950666,6.22916 C2.26460889,6.50412 2.26460889,6.94988 2.53950666,7.22477777 L2.53950666,7.22477777 L5.43570222,10.1209733 L5.43570222,10.1209733 C5.4787289,10.1639689 5.52586223,10.2002444 5.57585778,10.2298 C5.84580889,10.3892444 6.19941777,10.3530311 6.43132,10.1210667 C6.43141332,10.1209733 6.43147555,10.1209111 6.43147555,10.1209111 L11.4617689,5.09058667 C11.7366667,4.8156889 11.7366667,4.36996001 11.4618311,4.09506222 Z"></path>
                        </g>
                    </g>
                </g>
            </g>
        </g>
    </g>
</svg>