<?xml version="1.0" encoding="UTF-8"?>
<svg width="16px" height="16px" viewBox="0 0 16 16" version="1.1" xmlns="http://www.w3.org/2000/svg" xmlns:xlink="http://www.w3.org/1999/xlink">
    <title>如何获得此API权限-点击状态</title>
    <g id="页面-1" stroke="none" stroke-width="1" fill="none" fill-rule="evenodd">
        <g id="各系统图标规范整理" transform="translate(-708.000000, -1322.000000)">
            <g id="朱雀能力平台系统" transform="translate(30.000000, 1081.000000)">
                <g id="编组-14" transform="translate(525.000000, 70.000000)">
                    <g id="如何获得此API权限-点击状态" transform="translate(153.000000, 171.000000)">
                        <rect id="矩形备份-46" x="0" y="0" width="16" height="16"></rect>
                        <g id="如何获得此API权限" transform="translate(1.626263, 1.034884)" fill="#037DF4" fill-rule="nonzero" stroke="#037DF4" stroke-width="0.2">
                            <path d="M11.4856642,1.94167571 L7.20319862,0.160436392 C6.68797099,-0.0534787972 6.09699906,-0.0534787972 5.58260378,0.160436392 L1.30013823,1.94167571 C0.510233505,2.27045586 0,3.03455759 0,3.89021834 L0,9.16818026 C0,9.89399367 0.365403766,10.5590452 0.978016915,10.9485872 L5.26048247,13.6720522 C5.60424501,13.8909615 5.99878119,14 6.39331738,14 C6.78785357,14 7.18238975,13.8909615 7.52615229,13.6720522 L11.8086178,10.9485872 C12.421231,10.5590452 12.7866348,9.89316131 12.7866348,9.16818026 L12.7866348,3.89021834 C12.7849701,3.03455759 12.2747365,2.27045586 11.4856642,1.94167571 L11.4856642,1.94167571 Z M11.7861443,9.16818026 C11.7861443,9.55023113 11.5938703,9.90065251 11.2709166,10.1062441 L6.98845108,12.8297091 C6.62637673,13.0602714 6.15776097,13.0602714 5.79485426,12.8297091 L1.51405342,10.1062441 C1.19229236,9.90308636 0.997651919,9.54870869 0.998820505,9.16818026 L0.998820505,3.89021834 C0.998820505,3.43991439 1.26767639,3.03705465 1.6838538,2.86392485 L5.96631936,1.08268553 C6.10199319,1.02608541 6.24765529,0.997785342 6.39331738,0.997785342 C6.53897947,0.997785342 6.68464157,1.02608541 6.8203154,1.08268553 L11.102781,2.86392485 C11.5189584,3.03705465 11.787809,3.43991439 11.787809,3.89021834 L11.787809,9.16818026 L11.7861443,9.16818026 Z" id="形状"></path>
                            <path d="M8.9944262,5.45587776 C8.9944262,4.04170692 7.84411183,2.89222491 6.43077335,2.89222491 C5.01743486,2.89222491 3.8671205,4.04253928 3.8671205,5.45587776 C3.8671205,6.68609819 4.73776364,7.71655346 5.8955692,7.96293048 L5.8955692,10.4966186 C5.8955692,10.772128 6.11947264,10.9960315 6.39498209,10.9960315 C6.67049154,10.9960315 6.89439498,10.772128 6.89439498,10.4966186 L6.89439498,9.62764013 L7.89571783,9.62764013 C8.17122728,9.62764013 8.39513072,9.40373668 8.39513072,9.12822723 C8.39513072,8.85271779 8.17122728,8.62881434 7.89571783,8.62881434 L6.89439498,8.62881434 L6.89439498,7.97624816 C8.08715944,7.7581712 8.9944262,6.71106883 8.9944262,5.45587776 Z M4.86511393,5.45587776 C4.86511393,4.59272581 5.5676214,3.8910507 6.42994099,3.8910507 C7.29309294,3.8910507 7.99476806,4.59355817 7.99476806,5.45587776 C7.99476806,6.31819736 7.29226059,7.02070483 6.42994099,7.02070483 C5.56678904,7.02070483 4.86511393,6.31902971 4.86511393,5.45587776 L4.86511393,5.45587776 Z" id="形状"></path>
                        </g>
                    </g>
                </g>
            </g>
        </g>
    </g>
</svg>