<?xml version="1.0" encoding="UTF-8"?>
<svg width="16px" height="16px" viewBox="0 0 16 16" version="1.1" xmlns="http://www.w3.org/2000/svg" xmlns:xlink="http://www.w3.org/1999/xlink">
    <title>导入 2</title>
    <g id="页面-1" stroke="none" stroke-width="1" fill="none" fill-rule="evenodd">
        <g id="各系统图标规范整理" transform="translate(-1757.000000, -562.000000)">
            <g id="朱雀平台系统" transform="translate(30.000000, 428.000000)">
                <g id="导入" transform="translate(1727.000000, 134.000000)">
                    <rect id="矩形备份-10" x="0" y="0" width="16" height="16"></rect>
                    <g id="导出" transform="translate(1.000000, 1.000000)" fill="#FFFFFF">
                        <g id="导入" transform="translate(7.000769, 7.000000) scale(1, -1) translate(-7.000769, -7.000000) ">
                            <path d="M6.99376952,13.9999608 C5.13765968,14.0016837 3.35716854,13.2646393 2.04536904,11.9515022 C1.40924063,11.3124432 0.902273183,10.5567449 0.552216612,9.72577186 C-0.556741814,7.10151218 0.035592496,4.06695214 2.05003514,2.0523682 C2.68848072,1.41372987 3.44422005,0.904358396 4.27576549,0.552216612 C6.90002517,-0.556741814 9.93458521,0.035592496 11.9491692,2.05003514 C12.5878075,2.68848072 13.097179,3.44422005 13.4493207,4.27576549 C14.5582792,6.90002517 13.9659449,9.93458521 11.9515022,11.9491692 C11.3130566,12.5878075 10.5573173,13.097179 9.72577186,13.4493207 C8.86173475,13.8158001 7.93230939,14.0031139 6.99376952,13.9999608 Z M6.99376952,1.12148025 C3.98430786,1.11999175 1.462857,3.39813286 1.15999836,6.39231696 C0.857139729,9.38650105 2.87132275,12.1234169 5.820126,12.7246 C8.76892925,13.3257831 11.6937933,11.5958086 12.5872566,8.72203322 C13.48072,5.84825784 12.0523471,2.76485193 9.28249224,1.58809111 C8.55858439,1.28068024 7.78024504,1.1219974 6.99376952,1.12148025 Z" id="形状" fill-rule="nonzero"></path>
                            <path d="M7.56490466,10.8042355 C7.48989642,10.8792437 7.38988543,10.9292492 7.26487171,10.954252 L7.16486074,10.954252 C7.13985799,10.954252 7.11485526,10.954252 7.08985251,10.9292492 L7.01484427,10.9042465 C6.93983603,10.8792437 6.88983055,10.8292383 6.83982505,10.7792328 L4.51456974,8.45397746 C4.31454778,8.2539555 4.31454778,7.95392256 4.51456974,7.75390059 C4.7145917,7.55387863 5.01462464,7.55387863 5.21464661,7.75390059 L6.68980858,9.22906255 L6.68980858,3.70345586 C6.68980858,3.42842566 6.91483328,3.20340096 7.18986348,3.20340096 C7.46489367,3.20340096 7.68991838,3.42842566 7.68991839,3.70345586 L7.68991839,9.22906255 L9.16508036,7.75390059 C9.36510231,7.55387863 9.66513526,7.55387863 9.86515723,7.75390059 C10.0901819,7.95392254 10.0901819,8.27895824 9.89015996,8.47898019 L7.56490466,10.8042355 Z" id="路径" stroke="#FFFFFF" stroke-width="0.2" transform="translate(7.200871, 7.078826) scale(-1, -1) translate(-7.200871, -7.078826) "></path>
                        </g>
                    </g>
                </g>
            </g>
        </g>
    </g>
</svg>