<?xml version="1.0" encoding="UTF-8"?>
<svg width="16px" height="16px" viewBox="0 0 16 16" version="1.1" xmlns="http://www.w3.org/2000/svg" xmlns:xlink="http://www.w3.org/1999/xlink">
    <title>批量设置</title>
    <g id="页面-1" stroke="none" stroke-width="1" fill="none" fill-rule="evenodd">
        <g id="各系统图标规范整理" transform="translate(-1829.000000, -598.000000)">
            <g id="朱雀平台系统" transform="translate(30.000000, 428.000000)">
                <g id="批量设置" transform="translate(1799.000000, 170.000000)">
                    <rect id="矩形备份-17" x="0" y="0" width="16" height="16"></rect>
                    <g id="编组-3" transform="translate(1.101509, 1.662481)" fill="#FFFFFF" fill-rule="nonzero" stroke="#FFFFFF" stroke-width="0.04">
                        <path d="M13.605428,4.96868476 L11.559499,1.46137787 C11.0334029,0.555323593 10.0688935,0 9.04592902,0 L4.95407098,0 C3.93110648,0 2.93736952,0.555323593 2.44050105,1.46137787 L0.394572021,4.96868476 C-0.131524007,5.87473903 -0.131524007,7.01461378 0.394572021,7.92066806 L2.44050105,11.4279749 C2.96659707,12.3340292 3.93110648,12.8893528 4.95407098,12.8893528 L9.04592902,12.8893528 C10.0688935,12.8893528 11.0626305,12.3340292 11.559499,11.4279749 L13.605428,7.92066806 C14.131524,6.98538622 14.131524,5.87473903 13.605428,4.96868476 Z M12.611691,7.30688935 L10.565762,10.8141962 C10.2442589,11.3402923 9.65970773,11.691023 9.04592902,11.691023 L4.95407098,11.691023 C4.34029227,11.691023 3.75574113,11.3695198 3.434238,10.8141962 L1.38830898,7.30688935 C1.06680585,6.75156576 1.06680585,6.07933193 1.38830898,5.5532359 L3.434238,2.04592902 C3.75574113,1.519833 4.34029227,1.1691023 4.95407098,1.1691023 L9.04592902,1.1691023 C9.65970773,1.1691023 10.2442589,1.49060543 10.565762,2.04592902 L12.611691,5.5532359 C12.9331942,6.07933193 12.9331942,6.78079332 12.611691,7.30688935 Z" id="形状"></path>
                        <path d="M6.99999999,3.79958246 C5.53862213,3.79958246 4.36951984,4.96868476 4.36951984,6.43006263 C4.36951984,7.89144049 5.53862214,9.06054279 6.99999999,9.06054279 C8.46137785,9.06054279 9.63048016,7.89144049 9.63048016,6.43006263 C9.63048016,4.96868476 8.46137786,3.79958246 6.99999999,3.79958246 Z M6.99999999,7.8914405 C6.18162839,7.8914405 5.53862213,7.24843424 5.53862213,6.43006263 C5.53862213,5.61169101 6.18162839,4.96868476 6.99999999,4.96868476 C7.8183716,4.96868476 8.46137787,5.61169102 8.46137787,6.43006263 C8.46137787,7.24843423 7.81837161,7.8914405 6.99999999,7.8914405 Z" id="形状"></path>
                    </g>
                </g>
            </g>
        </g>
    </g>
</svg>