<?xml version="1.0" encoding="UTF-8"?>
<svg width="16px" height="16px" viewBox="0 0 16 16" version="1.1" xmlns="http://www.w3.org/2000/svg" xmlns:xlink="http://www.w3.org/1999/xlink">
    <title>提交</title>
    <g id="页面-1" stroke="none" stroke-width="1" fill="none" fill-rule="evenodd">
        <g id="各系统图标规范整理" transform="translate(-1721.000000, -857.000000)">
            <g id="财务中心系统" transform="translate(30.000000, 724.000000)">
                <g id="提交" transform="translate(1691.000000, 133.000000)">
                    <polygon id="矩形备份-3" points="0 -3.63797881e-12 16 -3.63797881e-12 16 16 0 16"></polygon>
                    <path d="M14.0059847,11.5974539 C13.8567562,11.8460848 13.5342271,11.9266665 13.2855959,11.7774381 C13.0369647,11.6282097 12.9563829,11.305681 13.1056114,11.05705 C13.6599124,10.133807 13.951852,9.07684227 13.9499903,7.99998428 C13.9499903,4.71383876 11.2861454,2.04999682 8,2.04999682 C4.71384688,2.04999682 2.05000192,4.71383876 2.05000192,7.99998428 C2.05000192,11.2861298 4.71384688,13.9499717 8,13.9499717 C9.0767059,13.9518748 10.1335421,13.6600575 11.0567208,13.1059384 C11.305352,12.9567598 11.6278407,13.0373819 11.7770194,13.2860128 C11.9261981,13.5346437 11.845576,13.8571321 11.5969448,14.0063106 C10.5105817,14.6583473 9.2670138,15.0018832 8,15 C4.13408391,15 1,11.8658921 1,7.99998428 C1,4.13407645 4.13408391,1 8,1 C11.8659083,1 15,4.13407645 15,7.99998428 C15,9.28447492 14.652964,10.5194516 14.0059847,11.5974539 Z M7.12920324,9.00796482 L10.2534723,5.87897429 C10.4583711,5.67379035 10.790809,5.67355898 10.9959932,5.87845751 C11.2011773,6.08335603 11.2014087,6.41579356 10.99651,6.62097751 L7.50177206,10.1209779 C7.29708936,10.3259886 6.9650301,10.3264585 6.759768,10.1220279 L5.00454867,8.37394721 C4.8694532,8.24204462 4.8155912,8.047758 4.863488,7.86512465 C4.91138481,7.68249131 5.05366255,7.53964351 5.23610306,7.49101666 C5.41854357,7.4423898 5.6130443,7.49547421 5.74548633,7.63004087 L7.12920324,9.00796482 Z" id="形状" stroke="#FFFFFF" stroke-width="0.2" fill="#FFFFFF" fill-rule="nonzero"></path>
                </g>
            </g>
        </g>
    </g>
</svg>