<?xml version="1.0" encoding="UTF-8"?>
<svg width="16px" height="16px" viewBox="0 0 16 16" version="1.1" xmlns="http://www.w3.org/2000/svg" xmlns:xlink="http://www.w3.org/1999/xlink">
    <title>日志中心</title>
    <g id="页面-1" stroke="none" stroke-width="1" fill="none" fill-rule="evenodd">
        <g id="各系统图标规范整理" transform="translate(-147.000000, -270.000000)">
            <g id="经营核算管理系统" transform="translate(30.000000, 100.000000)">
                <g id="日志中心" transform="translate(117.000000, 170.000000)">
                    <rect id="矩形" x="0" y="0" width="16" height="16"></rect>
                    <g transform="translate(1.151980, 0.216309)" fill="#474747">
                        <path d="M10.21924,1.68194464 C9.97563011,0.715945982 9.10479777,0 8.06471079,0 L5.28377604,0 C4.24368906,0 3.37285672,0.715945982 3.12922945,1.68197946 C1.38356718,1.78997813 0,3.23839286 0,5.01428571 L0,12.2571429 C0,14.1033576 1.49409196,15.6 3.33712171,15.6 L10.0113651,15.6 C11.8544122,15.6 13.3484868,14.1033576 13.3484868,12.2571429 L13.3484868,5.01428571 C13.3484868,3.23839286 11.964937,1.78997812 10.21924,1.68194464 Z M10.3213979,2.03365134 C10.3157077,1.99995803 10.3064236,1.96720066 10.3002343,1.93365134 C10.3066233,1.96712866 10.3153084,2.00003003 10.3213979,2.03365134 Z M10.3055065,2.629575 C10.2933274,2.66262711 10.2880365,2.6967214 10.2747593,2.729575 C10.2880365,2.6967214 10.2934272,2.66262711 10.3055065,2.629575 Z M5.14822806,1.2115344 L8.14308087,1.2115344 C8.6385044,1.2115344 9.04153672,1.6152594 9.04153672,2.1115344 C9.04153672,2.60779065 8.6385044,3.0115344 8.14308087,3.0115344 L5.14822806,3.0115344 C4.65282325,3.0115344 4.24977221,2.60779065 4.24977221,2.11151565 C4.24977221,1.6152594 4.65282325,1.2115344 5.14822806,1.2115344 Z M3.13070014,1.93366875 C3.12451078,1.96721807 3.11522673,1.99997545 3.10953651,2.03366875 C3.11562605,1.99997545 3.12431112,1.96707408 3.13070014,1.93366875 Z M3.15615773,2.729575 C3.14288054,2.6967214 3.13758964,2.66262711 3.12541057,2.629575 C3.13758964,2.66262711 3.14298037,2.6967214 3.15615773,2.729575 Z M12.0467589,12.2532353 C12.0467589,13.3538637 11.1528829,14.2492583 10.0541606,14.2492583 L3.22239489,14.2492583 C2.12367261,14.2492583 1.22979656,13.3538637 1.22979656,12.2532353 L1.22979656,4.83943572 C1.22979656,3.77787229 2.06204439,2.90969141 3.10696651,2.84925825 C3.4463665,3.68186715 4.26173062,4.26914344 5.21499322,4.26914344 L8.06156226,4.26914344 C9.01482485,4.26914344 9.83018897,3.68186715 10.169589,2.84925825 C11.2145111,2.90969141 12.0467589,3.77787229 12.0467589,4.83943572 L12.0467589,12.2532353 Z" id="形状" fill-rule="nonzero"></path>
                        <path d="M12.0467589,12.2532353 C12.0467589,13.3538637 11.1528829,14.2492583 10.0541606,14.2492583 L3.22239489,14.2492583 C2.12367261,14.2492583 1.22979656,13.3538637 1.22979656,12.2532353 L1.22979656,4.83943572 C1.22979656,3.77787229 2.06204439,2.90969141 3.10696651,2.84925825 C3.4463665,3.68186715 4.26173062,4.26914344 5.21499322,4.26914344 L8.06156226,4.26914344 C9.01482485,4.26914344 9.83018897,3.68186715 10.169589,2.84925825 C11.2145111,2.90969141 12.0467589,3.77787229 12.0467589,4.83943572 L12.0467589,12.2532353 Z" id="路径" opacity="0.05"></path>
                        <path d="M9.03803796,6.68571429 L4.31044887,6.68571429 C3.9264713,6.68571429 3.61521518,6.95433429 3.61521518,7.28571429 C3.61521518,7.61707929 3.9264713,7.88571429 4.31044887,7.88571429 L9.03803796,7.88571429 C9.42201552,7.88571429 9.73327164,7.61707929 9.73327164,7.28571429 C9.73327164,6.95433429 9.42201552,6.68571429 9.03803796,6.68571429 Z" id="路径" fill-rule="nonzero"></path>
                        <path d="M6.81329015,9.75 L4.31044887,9.75 C3.9264713,9.75 3.61521518,10.01862 3.61521518,10.35 C3.61521518,10.681365 3.9264713,10.95 4.31044887,10.95 L6.81329015,10.95 C7.19726772,10.95 7.50852384,10.681365 7.50852384,10.35 C7.50852384,10.01862 7.19726772,9.75 6.81329015,9.75 Z" id="路径" fill-rule="nonzero"></path>
                    </g>
                </g>
            </g>
        </g>
    </g>
</svg>