<?xml version="1.0" encoding="UTF-8"?>
<svg width="16px" height="16px" viewBox="0 0 16 16" version="1.1" xmlns="http://www.w3.org/2000/svg" xmlns:xlink="http://www.w3.org/1999/xlink">
    <title>日历</title>
    <g id="页面-1" stroke="none" stroke-width="1" fill="none" fill-rule="evenodd">
        <g id="各系统图标规范整理" transform="translate(-1218.000000, -574.000000)">
            <g id="朱雀平台系统" transform="translate(30.000000, 428.000000)">
                <g id="日历" transform="translate(1188.000000, 146.000000)">
                    <rect id="矩形备份-4" x="0" y="0" width="16" height="16"></rect>
                    <g transform="translate(2.000000, 2.000000)" fill="#A3A3A3" fill-rule="nonzero">
                        <path d="M10.21875,12 L1.78125,12 C0.79921875,12 0,11.2007813 0,10.21875 L0,2.859375 C0,1.87734375 0.79921875,1.078125 1.78125,1.078125 L2.25,1.078125 C2.45742187,1.078125 2.625,1.24570312 2.625,1.453125 C2.625,1.66054687 2.45742187,1.828125 2.25,1.828125 L1.78125,1.828125 C1.21289062,1.828125 0.75,2.29101562 0.75,2.859375 L0.75,10.21875 C0.75,10.7871094 1.21289062,11.25 1.78125,11.25 L10.21875,11.25 C10.7871094,11.25 11.25,10.7871094 11.25,10.21875 L11.25,2.859375 C11.25,2.29101562 10.7871094,1.828125 10.21875,1.828125 L9.75234375,1.828125 C9.54492188,1.828125 9.37734375,1.66054687 9.37734375,1.453125 C9.37734375,1.24570313 9.54492188,1.078125 9.75234375,1.078125 L10.21875,1.078125 C11.2007812,1.078125 12,1.87734375 12,2.859375 L12,10.21875 C12,11.2007813 11.2007812,12 10.21875,12 Z" id="路径" stroke="#A3A3A3" stroke-width="0.1"></path>
                        <path d="M6.890625,1.828125 L5.109375,1.828125 C4.903125,1.828125 4.734375,1.659375 4.734375,1.453125 C4.734375,1.246875 4.903125,1.078125 5.109375,1.078125 L6.890625,1.078125 C7.096875,1.078125 7.265625,1.246875 7.265625,1.453125 C7.265625,1.659375 7.096875,1.828125 6.890625,1.828125 Z M3.61523438,3.09375 C3.40898437,3.09375 3.24023438,2.925 3.24023438,2.71875 L3.24023438,0.375 C3.24023438,0.16875 3.40898437,0 3.61523438,0 C3.82148438,0 3.99023438,0.16875 3.99023438,0.375 L3.99023438,2.71875 C3.99023438,2.925 3.82148438,3.09375 3.61523438,3.09375 Z M8.4,3.09375 C8.19375,3.09375 8.025,2.925 8.025,2.71875 L8.025,0.375 C8.025,0.16875 8.19375,0 8.4,0 C8.60625,0 8.775,0.16875 8.775,0.375 L8.775,2.71875 C8.775,2.925 8.60625,3.09375 8.4,3.09375 Z M0.48046875,4.125 L11.3320312,4.125 L11.3320312,4.875 L0.48046875,4.875 L0.48046875,4.125 Z" id="形状" stroke="#A3A3A3" stroke-width="0.1"></path>
                        <path d="M5.3578125,6.75117187 C5.3578125,7.10066457 5.64532964,7.38398437 6,7.38398437 C6.35467036,7.38398437 6.6421875,7.10066457 6.6421875,6.75117187 C6.6421875,6.40167918 6.35467036,6.11835937 6,6.11835937 C5.64532964,6.11835937 5.3578125,6.40167918 5.3578125,6.75117187 L5.3578125,6.75117187 Z" id="路径"></path>
                        <path d="M5.3578125,9.30351563 C5.3578125,9.65300832 5.64532964,9.93632813 6,9.93632813 C6.35467036,9.93632813 6.6421875,9.65300832 6.6421875,9.30351563 C6.6421875,8.95402293 6.35467036,8.67070313 6,8.67070313 C5.64532964,8.67070313 5.3578125,8.95402293 5.3578125,9.30351563 L5.3578125,9.30351563 Z" id="路径"></path>
                        <path d="M2.14453125,6.75117187 C2.14453125,7.10066457 2.43204839,7.38398437 2.78671875,7.38398437 C3.14138911,7.38398437 3.42890625,7.10066457 3.42890625,6.75117187 C3.42890625,6.40167918 3.14138911,6.11835937 2.78671875,6.11835937 C2.43204839,6.11835937 2.14453125,6.40167918 2.14453125,6.75117187 L2.14453125,6.75117187 Z" id="路径"></path>
                        <path d="M2.14453125,9.30351563 C2.14453125,9.65300832 2.43204839,9.93632813 2.78671875,9.93632813 C3.14138911,9.93632813 3.42890625,9.65300832 3.42890625,9.30351563 C3.42890625,8.95402293 3.14138911,8.67070313 2.78671875,8.67070313 C2.43204839,8.67070313 2.14453125,8.95402293 2.14453125,9.30351563 L2.14453125,9.30351563 Z" id="路径"></path>
                        <path d="M8.55585937,6.75117187 C8.55585937,7.10066457 8.84337651,7.38398437 9.19804688,7.38398437 C9.55271724,7.38398437 9.84023438,7.10066457 9.84023438,6.75117187 C9.84023438,6.40167918 9.55271724,6.11835937 9.19804687,6.11835937 C8.84337651,6.11835937 8.55585937,6.40167918 8.55585937,6.75117187 L8.55585937,6.75117187 Z" id="路径"></path>
                        <path d="M8.55585937,9.30351563 C8.55585937,9.65300832 8.84337651,9.93632813 9.19804688,9.93632813 C9.55271724,9.93632813 9.84023438,9.65300832 9.84023438,9.30351563 C9.84023438,8.95402293 9.55271724,8.67070313 9.19804687,8.67070313 C8.84337651,8.67070313 8.55585937,8.95402293 8.55585937,9.30351563 L8.55585937,9.30351563 Z" id="路径"></path>
                    </g>
                </g>
            </g>
        </g>
    </g>
</svg>