<?xml version="1.0" encoding="UTF-8"?>
<svg width="16px" height="16px" viewBox="0 0 16 16" version="1.1" xmlns="http://www.w3.org/2000/svg" xmlns:xlink="http://www.w3.org/1999/xlink">
    <title>日志管理</title>
    <g id="页面-1" stroke="none" stroke-width="1" fill="none" fill-rule="evenodd">
        <g id="各系统图标规范整理" transform="translate(-147.000000, -234.000000)">
            <g id="经营核算管理系统" transform="translate(30.000000, 100.000000)">
                <g id="日志管理" transform="translate(117.000000, 134.000000)">
                    <rect id="矩形" x="0" y="0" width="16" height="16"></rect>
                    <g transform="translate(0.909812, 0.499493)" fill="#474747">
                        <path d="M12.3777909,1.26061341 L11.5500677,1.26061341 L11.5500677,0.519840582 C11.5500677,0.233061861 11.3174057,0 11.031119,0 C10.7448324,0 10.5121704,0.233061861 10.5121704,0.519840582 L10.5121704,1.26061341 L8.99597531,1.26061341 L8.99597531,0.519840582 C8.99597531,0.233061861 8.76331332,0 8.47702664,0 C8.19073995,0 7.95807796,0.233061861 7.95807796,0.519840582 L7.95807796,1.26061341 L6.44101799,1.26061341 L6.44101799,0.519840582 C6.44101799,0.233061861 6.208356,0 5.92206932,0 C5.63578263,0 5.40312064,0.233061861 5.40312064,0.519840582 L5.40312064,1.26061341 L3.88692559,1.26061341 L3.88692559,0.519840582 C3.88692559,0.233061861 3.6542636,0 3.36797691,0 C3.08169023,0 2.84902824,0.233061861 2.84902824,0.519840582 L2.84902824,1.26061341 L1.99881732,1.26061341 C0.896916296,1.26061341 0,2.15907122 0,3.26286605 L0,12.9977474 C0,14.1015422 0.896916296,15 1.99881732,15 L12.3777909,15 C13.4796919,15 14.3766082,14.1015422 14.3766082,12.9977474 L14.3766082,3.26199965 C14.3766082,2.15820482 13.4796919,1.26061341 12.3777909,1.26061341 Z M1.99881732,2.30029458 L2.84902824,2.30029458 L2.84902824,2.68757581 C2.84902824,2.97435453 3.08169023,3.20741639 3.36797691,3.20741639 C3.6542636,3.20741639 3.88692559,2.97435453 3.88692559,2.68757581 L3.88692559,2.30029458 L5.40312064,2.30029458 L5.40312064,2.68757581 C5.40312064,2.97435453 5.63578263,3.20741639 5.92206932,3.20741639 C6.208356,3.20741639 6.44101799,2.97435453 6.44101799,2.68757581 L6.44101799,2.30029458 L7.95721304,2.30029458 L7.95721304,2.68757581 C7.95721304,2.97435453 8.18987503,3.20741639 8.47616172,3.20741639 C8.76244841,3.20741639 8.9951104,2.97435453 8.9951104,2.68757581 L8.9951104,2.30029458 L10.5113054,2.30029458 L10.5113054,2.68757581 C10.5113054,2.97435453 10.7439674,3.20741639 11.0302541,3.20741639 C11.3165408,3.20741639 11.5492028,2.97435453 11.5492028,2.68757581 L11.5492028,2.30029458 L12.3769259,2.30029458 C12.9062536,2.30029458 13.3378459,2.73176226 13.3378459,3.26286605 L13.3378459,4.9991336 L1.03876227,4.9991336 L1.03876227,3.26199965 C1.03876227,2.73176226 1.46948967,2.30029458 1.99881732,2.30029458 Z M12.3777909,13.9594524 L1.99881732,13.9594524 C1.46948967,13.9594524 1.03789735,13.5279848 1.03789735,12.996881 L1.03789735,6.03794836 L13.3378785,6.03794836 L13.3378785,12.996881 C13.3387108,13.5279848 12.9079834,13.9594524 12.3777909,13.9594524 Z" id="形状" stroke="#474747" stroke-width="0.1" fill-rule="nonzero"></path>
                        <path d="M12.3777909,1.26061341 L11.5500677,1.26061341 L11.5500677,0.519840582 C11.5500677,0.233061861 11.3174057,0 11.031119,0 C10.7448324,0 10.5121704,0.233061861 10.5121704,0.519840582 L10.5121704,1.26061341 L8.99597531,1.26061341 L8.99597531,0.519840582 C8.99597531,0.233061861 8.76331332,0 8.47702664,0 C8.19073995,0 7.95807796,0.233061861 7.95807796,0.519840582 L7.95807796,1.26061341 L6.44101799,1.26061341 L6.44101799,0.519840582 C6.44101799,0.233061861 6.208356,0 5.92206932,0 C5.63578263,0 5.40312064,0.233061861 5.40312064,0.519840582 L5.40312064,1.26061341 L3.88692559,1.26061341 L3.88692559,0.519840582 C3.88692559,0.233061861 3.6542636,0 3.36797691,0 C3.08169023,0 2.84902824,0.233061861 2.84902824,0.519840582 L2.84902824,1.26061341 L1.99881732,1.26061341 C0.896916296,1.26061341 0,2.15907122 0,3.26286605 L0,12.9977474 C0,14.1015422 0.896916296,15 1.99881732,15 L12.3777909,15 C13.4796919,15 14.3766082,14.1015422 14.3766082,12.9977474 L14.3766082,3.26199965 C14.3766082,2.15820482 13.4796919,1.26061341 12.3777909,1.26061341 Z" id="路径" opacity="0.05"></path>
                        <path d="M6.30090185,12.2760353 C6.04315734,12.2656385 5.80530586,12.1426096 5.64702652,11.938139 L4.23808086,10.1134985 C4.15372354,10.004416 4.1161631,9.86619258 4.13368785,9.72932962 C4.1512126,9.59246665 4.22238209,9.4682136 4.33149162,9.38398891 C4.44038703,9.29948661 4.57837326,9.26186161 4.7150014,9.27941648 C4.85162955,9.29697135 4.97566941,9.36826316 5.0597496,9.47756021 L6.34760723,11.1453821 L9.36702362,7.83399757 C9.45984966,7.73207305 9.589338,7.67132358 9.72693033,7.66514729 C9.86452265,7.658971 9.99891629,7.70787525 10.1004711,7.80107434 C10.3123751,7.99428175 10.3270787,8.32351412 10.1333378,8.53578236 L6.9798597,11.9927222 C6.81529424,12.1740649 6.58187913,12.2772839 6.33722826,12.2769228 C6.32511946,12.2769228 6.31301065,12.2769228 6.30090185,12.2760353 Z" id="路径" fill-rule="nonzero"></path>
                    </g>
                </g>
            </g>
        </g>
    </g>
</svg>