<?xml version="1.0" encoding="UTF-8"?>
<svg width="16px" height="16px" viewBox="0 0 16 16" version="1.1" xmlns="http://www.w3.org/2000/svg" xmlns:xlink="http://www.w3.org/1999/xlink">
    <title>服务调用情况-默认状态</title>
    <g id="页面-1" stroke="none" stroke-width="1" fill="none" fill-rule="evenodd">
        <g id="各系统图标规范整理" transform="translate(-255.000000, -858.000000)">
            <g id="财务中心系统" transform="translate(30.000000, 724.000000)">
                <g id="服务调用情况-默认状态" transform="translate(225.000000, 134.000000)">
                    <rect id="矩形" x="0" y="0" width="16" height="16"></rect>
                    <g transform="translate(0.129287, 0.122741)" fill="#FFFFFF">
                        <path d="M7.9,0 C12.262775,0 15.8,3.537225 15.8,7.9 C15.8,12.262775 12.262775,15.8 7.9,15.8 C3.537225,15.8 0,12.262775 0,7.9 C0,3.537225 3.537225,0 7.9,0 Z M9.38401332,10.3620862 L6.48734665,10.3620862 C5.09971521,10.3622697 3.83293615,11.6482708 3.53025866,13.0024891 C4.73020496,14.0567037 6.27339161,14.6371835 7.87065033,14.6351718 C9.46777015,14.6375076 11.0152591,14.1221588 12.2147819,13.0676721 L12.232767,13.1104558 C11.98296,11.7579957 10.9005935,10.4320109 9.52687165,10.3653779 L9.38401332,10.3620862 Z M7.9108625,1.17920229 C4.19668669,1.17920229 1.18593798,4.189951 1.18593798,7.90412681 C1.18593798,9.36679789 1.65264774,10.7198527 2.44551634,11.8234128 C3.12837535,10.3109547 4.60833866,9.31519623 6.26661846,9.25247418 L6.4313791,9.24911171 L9.3903459,9.24911171 C11.1468962,9.24911171 12.6855589,10.291475 13.3762087,11.8227403 C14.1974903,10.6813868 14.6382209,9.3102511 14.6358266,7.90412681 C14.6358266,4.189951 11.6250383,1.17920229 7.9108625,1.17920229 Z" id="形状" fill-rule="nonzero"></path>
                        <path d="M9.38401332,10.3620862 L6.48734665,10.3620862 C5.09971521,10.3622697 3.83293615,11.6482708 3.53025866,13.0024891 C4.73020496,14.0567037 6.27339161,14.6371835 7.87065033,14.6351718 C9.46777015,14.6375076 11.0152591,14.1221588 12.2147819,13.0676721 L12.232767,13.1104558 C11.98296,11.7579957 10.9005935,10.4320109 9.52687165,10.3653779 L9.38401332,10.3620862 Z" id="路径" fill-opacity="0.15"></path>
                        <path d="M7.9108625,1.17920229 C4.19668669,1.17920229 1.18593798,4.189951 1.18593798,7.90412681 C1.18593798,9.36679789 1.65264774,10.7198527 2.44551634,11.8234128 C3.12837535,10.3109547 4.60833866,9.31519623 6.26661846,9.25247418 L6.4313791,9.24911171 L9.3903459,9.24911171 C11.1468962,9.24911171 12.6855589,10.291475 13.3762087,11.8227403 C14.1974903,10.6813868 14.6382209,9.3102511 14.6358266,7.90412681 C14.6358266,4.189951 11.6250383,1.17920229 7.9108625,1.17920229 Z" id="路径" fill-opacity="0.15"></path>
                        <path d="M7.9,1.975 C6.0820627,1.975 4.60833333,3.44872937 4.60833333,5.26666667 C4.60833333,7.08460397 6.0820627,8.55833334 7.9,8.55833334 C9.7179373,8.55833334 11.1916667,7.08460397 11.1916667,5.26666667 C11.1916667,3.44872937 9.7179373,1.975 7.9,1.975 Z M7.91090148,3.15954356 C9.08347104,3.15954356 10.0340265,4.110099 10.0340265,5.28266856 C10.0340265,6.45523812 9.08347104,7.40579356 7.91090148,7.40579356 C6.73833192,7.40579356 5.78777648,6.45523812 5.78777648,5.28266856 C5.78777648,4.110099 6.73833192,3.15954356 7.91090148,3.15954356 Z" id="形状" fill-rule="nonzero"></path>
                    </g>
                </g>
            </g>
        </g>
    </g>
</svg>