<?xml version="1.0" encoding="UTF-8"?>
<svg width="16px" height="16px" viewBox="0 0 16 16" version="1.1" xmlns="http://www.w3.org/2000/svg" xmlns:xlink="http://www.w3.org/1999/xlink">
    <title>服务错误日志-默认状态</title>
    <g id="页面-1" stroke="none" stroke-width="1" fill="none" fill-rule="evenodd">
        <g id="各系统图标规范整理" transform="translate(-147.000000, -894.000000)">
            <g id="财务中心系统" transform="translate(30.000000, 724.000000)">
                <g id="服务错误日志-默认状态" transform="translate(117.000000, 170.000000)">
                    <rect id="矩形" x="0" y="0" width="16" height="16"></rect>
                    <g transform="translate(0.553948, 0.210565)" fill="#037DF4">
                        <path d="M4.76666667,0 C5.15099079,0 5.29975833,0.328324554 5.29975833,0.733333366 L5.29975833,1.4666667 L9.32806175,1.4666667 L9.32806175,0.733333366 C9.32802163,0.471311862 9.41192287,0.19642126 9.61673256,0.0981545104 C9.82154226,0 9.96702206,0 10.1641157,0.0981545104 C10.3612093,0.196308992 10.4281019,0.471311862 10.4280617,0.733333366 L10.4280617,1.4666667 L11.7333333,1.4666667 C13.3533686,1.4666667 14.6666666,2.77996476 14.6666666,4.40000002 L14.6666666,12.4666667 C14.6666666,14.0867019 13.3533686,15.4 11.7333333,15.4 L2.93333333,15.4 C1.31329807,15.4 0,14.0867019 0,12.4666667 L0,4.40000002 C0,2.77996476 1.31329807,1.4666667 2.93333333,1.4666667 L4.19975833,1.4666667 L4.19975833,0.733333366 C4.19975833,0.328324547 4.38968022,0 4.76666667,0 Z M5.29975833,2.59171609 L5.29975833,3.32504943 C5.29969633,3.7300144 5.10210338,4.05815824 4.72758952,4.05827049 C4.35307566,4.05838275 4.19982032,3.7300144 4.19975833,3.32504943 L4.19975833,2.59171609 L2.52715103,2.59171609 C1.7171334,2.59171609 1.06048437,3.24836512 1.06048437,4.05838275 L1.08482994,12.8333333 C1.08482994,13.643351 1.74147897,14.3 2.5514966,14.3 L12.0848299,14.3 C12.8948476,14.3 13.5514966,13.643351 13.5514966,12.8333333 L13.527151,4.05838275 C13.527151,3.24836512 12.870502,2.59171609 12.0604844,2.59171609 L10.4280617,2.59171609 L10.4280617,3.32504943 C10.4281019,3.58707093 10.3668472,3.85296941 10.1918952,3.96022828 C10.0169432,4.06748715 9.78571089,4.0993171 9.57054408,3.96022828 C9.35537726,3.82113946 9.32802163,3.58707093 9.32806175,3.32504943 L9.32806175,2.59171609 L5.29975833,2.59171609 Z" id="形状" fill-rule="nonzero"></path>
                        <path d="M5.29975833,2.59171609 L5.29975833,3.32504943 C5.29969633,3.7300144 5.10210338,4.05815824 4.72758952,4.05827049 C4.35307566,4.05838275 4.19982032,3.7300144 4.19975833,3.32504943 L4.19975833,2.59171609 L2.52715103,2.59171609 C1.7171334,2.59171609 1.06048437,3.24836512 1.06048437,4.05838275 L1.08482994,12.8333333 C1.08482994,13.643351 1.74147897,14.3 2.5514966,14.3 L12.0848299,14.3 C12.8948476,14.3 13.5514966,13.643351 13.5514966,12.8333333 L13.527151,4.05838275 C13.527151,3.24836512 12.870502,2.59171609 12.0604844,2.59171609 L10.4280617,2.59171609 L10.4280617,3.32504943 C10.4281019,3.58707093 10.3668472,3.85296941 10.1918952,3.96022828 C10.0169432,4.06748715 9.78571089,4.0993171 9.57054408,3.96022828 C9.35537726,3.82113946 9.32802163,3.58707093 9.32806175,3.32504943 L9.32806175,2.59171609 L5.29975833,2.59171609 Z" id="路径" fill-rule="nonzero" opacity="0.05"></path>
                        <path d="M7.32065938,3.22682478 C7.62441599,3.22682478 7.87065938,3.47306816 7.87065938,3.77682477 L7.87065938,10.7434914 C7.87065938,11.047248 7.62441599,11.2934914 7.32065938,11.2934914 C7.01690277,11.2934914 6.77065938,11.047248 6.77065938,10.7434914 L6.77065938,3.77682477 C6.77065938,3.47306816 7.01690277,3.22682478 7.32065938,3.22682478 Z" id="矩形备份-5" transform="translate(7.320659, 7.260158) rotate(-270.000000) translate(-7.320659, -7.260158) "></path>
                        <path d="M5.85404885,7.62676856 C6.15780546,7.62676856 6.40404885,7.87301195 6.40404885,8.17676856 L6.40404885,12.2102142 C6.40404885,12.5139708 6.15780546,12.7602142 5.85404885,12.7602142 C5.55029224,12.7602142 5.30404885,12.5139708 5.30404885,12.2102142 L5.30404885,8.17676856 C5.30404885,7.87301195 5.55029224,7.62676856 5.85404885,7.62676856 Z" id="矩形备份-6" transform="translate(5.854049, 10.193491) rotate(-270.000000) translate(-5.854049, -10.193491) "></path>
                    </g>
                </g>
            </g>
        </g>
    </g>
</svg>