<?xml version="1.0" encoding="UTF-8"?>
<svg width="16px" height="16px" viewBox="0 0 16 16" version="1.1" xmlns="http://www.w3.org/2000/svg" xmlns:xlink="http://www.w3.org/1999/xlink">
    <title>权限管理备份</title>
    <g id="页面-1" stroke="none" stroke-width="1" fill="none" fill-rule="evenodd">
        <g id="各系统图标规范整理" transform="translate(-291.000000, -894.000000)">
            <g id="财务中心系统" transform="translate(30.000000, 724.000000)">
                <g id="权限管理备份" transform="translate(261.000000, 170.000000)">
                    <rect id="矩形" x="0" y="0" width="16" height="16"></rect>
                    <g id="权限管理" transform="translate(0.829602, 0.545127)" fill="#037DF4">
                        <path d="M10.5275687,9.13404063 C10.5275687,9.63327613 10.7144188,10.0886324 11.0199753,10.437487 L9.93243814,11.525896 L9.37682795,10.973337 C9.17414065,10.7725385 8.84780686,10.7735556 8.64657252,10.9756617 C8.44562877,11.1782037 8.44693643,11.5054093 8.64889724,11.7066436 L9.20218271,12.2568779 L8.66124737,12.7982491 L7.47549039,11.611475 C7.27382017,11.4096595 6.94719577,11.4096595 6.74552556,11.611475 C6.54385534,11.8132906 6.54385534,12.1402056 6.74552556,12.3420211 L7.93128253,13.5287951 L7.42245752,14.038056 C7.2207873,14.2398715 7.2207873,14.5667865 7.42245752,14.768602 C7.52329263,14.8695824 7.65536628,14.92 7.78743993,14.92 C7.91951358,14.92 8.05158723,14.8695824 8.15242235,14.768602 L11.8990134,11.0186692 C12.0908035,11.0807104 12.2947985,11.1151454 12.50693,11.1151454 C13.5985354,11.1151454 14.4864365,10.2265179 14.4864365,9.13389533 C14.4864365,8.04127281 13.5986807,7.15279051 12.5070753,7.15279051 C11.4154698,7.15279051 10.5275687,8.04141809 10.5275687,9.13404063 Z M12.5070753,10.0818035 C11.9847378,10.0818035 11.5600389,9.65666873 11.5600389,9.13389533 C11.5600389,8.61112194 11.9848831,8.18598717 12.5070753,8.18598717 C13.0294128,8.18598717 13.4541117,8.61112194 13.4541117,9.13389533 C13.4541117,9.65666873 13.0292675,10.0818035 12.5070753,10.0818035 Z" id="形状" stroke="#037DF4" stroke-width="0.1" fill-rule="nonzero"></path>
                        <path d="M12.5070753,10.0818035 C11.9847378,10.0818035 11.5600389,9.65666873 11.5600389,9.13389533 C11.5600389,8.61112194 11.9848831,8.18598717 12.5070753,8.18598717 C13.0294128,8.18598717 13.4541117,8.61112194 13.4541117,9.13389533 C13.4541117,9.65666873 13.0292675,10.0818035 12.5070753,10.0818035 Z" id="路径" opacity="0.15"></path>
                        <path d="M5.40760977,13.8369311 L1.05470039,13.8369311 C1.31477942,10.8325097 3.81938411,8.46782463 6.86056526,8.46782463 C6.92638414,8.46782463 6.98886123,8.45431214 7.04683415,8.43179133 C9.28554797,8.33255447 11.0777686,6.47277144 11.0777686,4.19468252 C11.0777686,1.88157736 9.18587523,0 6.86056526,0 C4.53540058,0 2.64365252,1.88157736 2.64365252,4.19453722 C2.64365252,5.72173875 3.45105988,7.05918428 4.65599589,7.80760164 C1.95262689,8.73662139 0,11.3167798 0,14.3534567 C0,14.6386719 0.231165225,14.8701277 0.516235087,14.8701277 L5.40760977,14.8701277 C5.69267963,14.8701277 5.92384485,14.6386719 5.92384485,14.3534567 C5.92384485,14.0682416 5.69267963,13.8369311 5.40760977,13.8369311 Z M3.67612269,4.19453722 C3.67612269,2.45142652 5.10452324,1.03334194 6.86056526,1.03334194 C8.61660727,1.03334194 10.0452984,2.45142651 10.0452984,4.19453722 C10.0452984,5.96656174 8.61660727,7.40789359 6.86056526,7.40789359 C5.10452324,7.40789359 3.67612269,5.96656174 3.67612269,4.19453722 Z" id="形状" stroke="#037DF4" stroke-width="0.2" fill-rule="nonzero"></path>
                        <path d="M3.67612269,4.19453722 C3.67612269,2.45142652 5.10452324,1.03334194 6.86056526,1.03334194 C8.61660727,1.03334194 10.0452984,2.45142651 10.0452984,4.19453722 C10.0452984,5.96656174 8.61660727,7.40789359 6.86056526,7.40789359 C5.10452324,7.40789359 3.67612269,5.96656174 3.67612269,4.19453722 Z" id="路径" opacity="0.05"></path>
                    </g>
                </g>
            </g>
        </g>
    </g>
</svg>