<?xml version="1.0" encoding="UTF-8"?>
<svg width="16px" height="16px" viewBox="0 0 16 16" version="1.1" xmlns="http://www.w3.org/2000/svg" xmlns:xlink="http://www.w3.org/1999/xlink">
    <title>查询</title>
    <g id="页面-1" stroke="none" stroke-width="1" fill="none" fill-rule="evenodd">
        <g id="各系统图标规范整理" transform="translate(-1613.000000, -234.000000)">
            <g id="经营核算管理系统" transform="translate(30.000000, 100.000000)">
                <g id="查询" transform="translate(1583.000000, 134.000000)">
                    <polygon id="矩形备份" points="2.27373675e-13 0 16 0 16 16 2.27373675e-13 16"></polygon>
                    <g transform="translate(1.000000, 1.000000)" fill="#FFFFFF" fill-rule="nonzero" stroke="#FFFFFF" stroke-width="0.1">
                        <g>
                            <path d="M6.57939119,0 C8.33778258,0 9.99183661,0.684330333 11.2346787,1.92717242 C13.8001503,4.49264398 13.8001503,8.66920714 11.2346787,11.2346787 C9.99183661,12.4775208 8.33778258,13.1618511 6.57939119,13.1618511 C4.82099979,13.1618511 3.16694576,12.4775208 1.92410367,11.2346787 C-0.641367891,8.66920714 -0.641367891,4.49264398 1.92410367,1.92717242 C3.16694576,0.684330333 4.82099979,0 6.57939119,0 Z M6.58245993,1.10474852 C5.11866814,1.10474852 3.74386998,1.67553526 2.70970262,2.70970262 C0.573855481,4.84554976 0.573855481,8.3193701 2.70663387,10.4521485 C3.74080124,11.4863159 5.1155994,12.0571026 6.57939119,12.0571026 C8.04318297,12.0571026 9.41798113,11.4863159 10.4521485,10.4521485 C12.5879956,8.3193701 12.5879956,4.84554976 10.4552172,2.70970262 C9.42104988,1.67553526 8.04625172,1.10474852 6.58245993,1.10474852 Z"></path>
                            <path d="M11.3784948,10.5552947 C11.21892,10.39572 10.8660142,10.3097951 10.5990333,10.5552947 C10.3473962,10.7854507 10.4394586,11.1997314 10.5990333,11.3593062 L12.6550931,13.4153659 C12.7348805,13.4951533 13.1552987,13.703828 13.452967,13.3938847 C13.6984667,13.1422475 13.5971981,12.7709293 13.4345545,12.6113545 L11.3784948,10.5552947 Z" id="路径"></path>
                        </g>
                    </g>
                </g>
            </g>
        </g>
    </g>
</svg>