<?xml version="1.0" encoding="UTF-8"?>
<svg width="16px" height="16px" viewBox="0 0 16 16" version="1.1" xmlns="http://www.w3.org/2000/svg" xmlns:xlink="http://www.w3.org/1999/xlink">
    <title>树-展开</title>
    <g id="页面-1" stroke="none" stroke-width="1" fill="none" fill-rule="evenodd">
        <g id="各系统图标规范整理" transform="translate(-1042.000000, -240.000000)">
            <g id="经营核算管理系统" transform="translate(30.000000, 100.000000)">
                <g id="编组-10" transform="translate(787.000000, 70.000000)">
                    <g id="树-展开" transform="translate(225.000000, 70.000000)">
                        <rect id="矩形备份-27" x="0" y="0" width="16" height="16"></rect>
                        <path d="M8.31709586,5.38856341 L12.504945,10.8349048 C12.6396054,11.010032 12.6068005,11.2611644 12.4316733,11.3958248 C12.3617603,11.449583 12.2760408,11.4787289 12.1878491,11.4787289 L3.81215085,11.4787289 C3.59123695,11.4787289 3.41215085,11.2996428 3.41215085,11.0787289 C3.41215085,10.9905372 3.44129683,10.9048178 3.49505499,10.8349048 L7.68290414,5.38856341 C7.81756451,5.2134362 8.06869696,5.18063135 8.24382416,5.31529171 C8.27132169,5.33643536 8.29595221,5.36106588 8.31709586,5.38856341 Z" id="三角形" fill="#0C9AF3" transform="translate(8.000000, 8.227453) scale(1, -1) translate(-8.000000, -8.227453) "></path>
                    </g>
                </g>
            </g>
        </g>
    </g>
</svg>