<?xml version="1.0" encoding="UTF-8"?>
<svg width="16px" height="16px" viewBox="0 0 16 16" version="1.1" xmlns="http://www.w3.org/2000/svg" xmlns:xlink="http://www.w3.org/1999/xlink">
    <title>浏览眼睛</title>
    <g id="页面-1" stroke="none" stroke-width="1" fill="none" fill-rule="evenodd">
        <g id="各系统图标规范整理" transform="translate(-600.000000, -1250.000000)">
            <g id="朱雀能力平台系统" transform="translate(30.000000, 1081.000000)">
                <g id="编组-14" transform="translate(525.000000, 70.000000)">
                    <g id="浏览眼睛" transform="translate(45.000000, 99.000000)">
                        <rect id="矩形备份-34" x="0" y="0" width="16" height="16"></rect>
                        <g transform="translate(0.995630, 3.746105)">
                            <path d="M13.8683535,4.25389453 C12.7132852,2.1370918 9.98790625,0 7,0 C4.01172461,0 1.28631836,2.13710547 0.138277344,4.25389453 L0,4.49606445 L0.138277344,4.73786523 C1.28633203,6.84764063 4.01172461,8.99175977 7,8.99175977 C9.98790625,8.99175977 12.7132715,6.84761328 13.8683535,4.73786523 L14,4.49606445 L13.8683535,4.25389453 Z M6.9998137,8.03498304 C4.51419093,8.03498304 2.161037,6.25436114 1.08581616,4.50211259 C2.1610508,2.7423843 4.51419093,0.969242142 6.9998137,0.969242142 C9.48503626,0.969242142 11.8381764,2.7423843 12.9134386,4.50211259 C11.8381902,6.25436114 9.48503626,8.03498304 6.9998137,8.03498304 Z" id="形状" fill="#037DF4" fill-rule="nonzero"></path>
                            <path d="M6.96535509,3.16435421 C7.33447093,3.16435421 7.66864261,3.31396796 7.91053533,3.55586068 C8.15242805,3.7977534 8.30204181,4.13192508 8.30204181,4.50104092 C8.30204181,4.87015677 8.15242805,5.20432845 7.91053533,5.44622117 C7.66864261,5.68811389 7.33447093,5.83772764 6.96535509,5.83772764 C6.59623924,5.83772764 6.26206756,5.68811389 6.02017484,5.44622117 C5.77828213,5.20432845 5.62866837,4.87015677 5.62866837,4.50104092 C5.62866837,4.13192508 5.77828213,3.7977534 6.02017484,3.55586068 C6.26206756,3.31396796 6.59623924,3.16435421 6.96535509,3.16435421 Z" id="矩形" stroke="#037DF4" stroke-width="1.2"></path>
                        </g>
                    </g>
                </g>
            </g>
        </g>
    </g>
</svg>