<?xml version="1.0" encoding="UTF-8"?>
<svg width="16px" height="16px" viewBox="0 0 16 16" version="1.1" xmlns="http://www.w3.org/2000/svg" xmlns:xlink="http://www.w3.org/1999/xlink">
    <title>添加原始事项表</title>
    <g id="页面-1" stroke="none" stroke-width="1" fill="none" fill-rule="evenodd">
        <g id="各系统图标规范整理" transform="translate(-1649.000000, -965.000000)">
            <g id="财务中心系统" transform="translate(30.000000, 724.000000)">
                <g id="添加原始事项表" transform="translate(1619.000000, 241.000000)">
                    <rect id="矩形备份-25" x="0" y="0" width="16" height="16"></rect>
                    <g id="增加文件-通用-4" transform="translate(1.584738, 1.602700)" fill="#037DF4" fill-rule="nonzero" stroke="#037DF4">
                        <path d="M5.97043109,12.7555888 L1.27063057,12.7555888 C0.567474269,12.7555888 0,12.1493957 0,11.3982629 L0,1.38361025 C0,0.61926021 0.579706742,0 1.29523612,0 L11.1020239,0 C11.8791374,0 12.39726,0.579758528 12.39726,1.44293787 L12.39726,5.42915324 C12.39726,5.73885844 12.1628745,5.98923603 11.8729509,5.98923603 C11.5830272,5.98923603 11.3486418,5.73885844 11.3486418,5.42915324 L11.3486418,1.44293787 C11.3486418,1.12016557 11.2375653,1.12016557 11.1018833,1.12016557 L1.29523612,1.12016557 C1.16574063,1.12016557 1.05466415,1.23882081 1.05466415,1.38376045 L1.05466415,11.3985633 C1.05466415,11.5302857 1.15336755,11.6357236 1.2766765,11.6357236 L5.96424455,11.6357236 C6.25416823,11.6357236 6.48855366,11.8728839 6.50078613,12.1825891 C6.50092674,12.4921441 6.2665413,12.7555888 5.97043109,12.7555888 Z" id="路径" stroke-width="0.15"></path>
                        <path d="M12.5303706,9.56676669 L7.27099945,9.56676669 C7.01131162,9.56676669 6.80137001,9.31638911 6.80137001,9.00668391 C6.80137001,8.69697871 7.01131162,8.44660112 7.27099945,8.44660112 L12.5303706,8.44660112 C12.7900584,8.44660112 13,8.69697871 13,9.00668391 C13,9.31638911 12.7900584,9.56676669 12.5303706,9.56676669 Z M8.02499952,3.99267382 L3.13625332,3.99267382 C2.82654812,3.99267382 2.57617054,3.74229624 2.57617054,3.43259104 C2.57617054,3.12288583 2.82654812,2.87250825 3.13625332,2.87250825 L8.02499952,2.87250825 C8.33470472,2.87250825 8.58508231,3.12288583 8.58508231,3.43259104 C8.58508231,3.74229624 8.33470472,3.99267382 8.02499952,3.99267382 Z M5.27760496,6.50290809 L3.14286197,6.50290809 C2.83315677,6.50290809 2.58277918,6.25253051 2.58277918,5.94282531 C2.58277918,5.6331201 2.83315677,5.38274252 3.14286197,5.38274252 L5.27760496,5.38274252 C5.58731017,5.38274252 5.83768775,5.6331201 5.83768775,5.94282531 C5.83768775,6.25253051 5.58715997,6.50290809 5.27760496,6.50290809 Z" id="形状" stroke-width="0.08"></path>
                        <path d="M12.5303706,9.56676669 L7.27099945,9.56676669 C7.01131162,9.56676669 6.80137001,9.31638911 6.80137001,9.00668391 C6.80137001,8.69697871 7.01131162,8.44660112 7.27099945,8.44660112 L12.5303706,8.44660112 C12.7900584,8.44660112 13,8.69697871 13,9.00668391 C13,9.31638911 12.7900584,9.56676669 12.5303706,9.56676669 Z" id="路径" stroke-width="0.15" transform="translate(9.900685, 9.006684) rotate(-270.000000) translate(-9.900685, -9.006684) "></path>
                    </g>
                </g>
            </g>
        </g>
    </g>
</svg>