<?xml version="1.0" encoding="UTF-8"?>
<svg width="16px" height="16px" viewBox="0 0 16 16" version="1.1" xmlns="http://www.w3.org/2000/svg" xmlns:xlink="http://www.w3.org/1999/xlink">
    <title>用户中心</title>
    <g id="页面-1" stroke="none" stroke-width="1" fill="none" fill-rule="evenodd">
        <g id="各系统图标规范整理" transform="translate(-75.000000, -270.000000)">
            <g id="经营核算管理系统" transform="translate(30.000000, 100.000000)">
                <g id="用户中心" transform="translate(45.000000, 170.000000)">
                    <rect id="矩形" x="0" y="0" width="16" height="16"></rect>
                    <g transform="translate(0.527481, 0.583164)" fill="#474747">
                        <path d="M12.4785534,0 L2.49571068,0 C1.09811269,0 0,1.1 0,2.5 L0,12.5 C0,13.9 1.09811269,15 2.49571068,15 L12.4785534,15 C13.8761514,15 14.9742641,13.9 14.9742641,12.5 L14.9742641,2.5 C14.9742641,1.1 13.8761514,0 12.4785534,0 Z M13.9759798,12.5 C13.9759798,13.3 13.2771808,14 12.4785534,14 L2.49571068,14 C1.69708327,14 0.998284276,13.3 0.998284276,12.5 L0.998284276,2.5 C0.998284276,1.7 1.69708326,1 2.49571068,1 L12.4785534,1 C13.2771808,1 13.9759798,1.70000001 13.9759798,2.5 L13.9759798,12.5 Z" id="形状" stroke="#474747" stroke-width="0.15" fill-rule="nonzero"></path>
                        <path d="M13.9759798,12.5 C13.9759798,13.3 13.2771808,14 12.4785534,14 L2.49571068,14 C1.69708327,14 0.998284276,13.3 0.998284276,12.5 L0.998284276,2.5 C0.998284276,1.7 1.69708326,1 2.49571068,1 L12.4785534,1 C13.2771808,1 13.9759798,1.70000001 13.9759798,2.5 L13.9759798,12.5 Z" id="路径" opacity="0.05"></path>
                        <path d="M10.4819849,5.5 C10.4819849,3.80000001 9.18421529,2.5 7.48713203,2.5 C5.79004878,2.5 4.49227922,3.80000001 4.49227922,5.5 C4.49227922,6.4 4.89159293,7.2 5.4905635,7.8 C3.69365181,8.4 2.49571068,10.1 2.49571068,12 C2.49571068,12.3 2.69536753,12.5 2.99485281,12.5 C3.2943381,12.5 3.49399494,12.3 3.49399494,12 C3.49399494,10.1 5.09124978,8.5 6.9879899,8.5 L7.48713203,8.5 C9.18421529,8.5 10.4819849,7.2 10.4819849,5.5 Z M5.4905635,5.5 C5.4905635,4.40000001 6.38901934,3.5 7.48713203,3.5 C8.58524473,3.5 9.48370058,4.4 9.48370058,5.5 C9.48370058,6.60000001 8.58524473,7.5 7.48713203,7.5 C6.38901934,7.5 5.4905635,6.6 5.4905635,5.5 Z M11.4802691,9 L8.48541631,9 C8.18593103,9 7.98627417,9.2 7.98627417,9.5 C7.98627417,9.8 8.18593101,10 8.48541631,10 L11.4802691,10 C11.7797544,10 11.9794113,9.80000001 11.9794113,9.5 C11.9794113,9.19999998 11.7797544,9 11.4802691,9 Z M11.4802691,11 L8.48541631,11 C8.18593103,11 7.98627417,11.2 7.98627417,11.5 C7.98627417,11.8 8.18593101,12 8.48541631,12 L11.4802691,12 C11.7797544,12 11.9794113,11.8 11.9794113,11.5 C11.9794113,11.2 11.7797544,11 11.4802691,11 Z" id="形状" stroke="#474747" stroke-width="0.05" fill-rule="nonzero"></path>
                    </g>
                </g>
            </g>
        </g>
    </g>
</svg>