<?xml version="1.0" encoding="UTF-8"?>
<svg width="16px" height="16px" viewBox="0 0 16 16" version="1.1" xmlns="http://www.w3.org/2000/svg" xmlns:xlink="http://www.w3.org/1999/xlink">
    <title>系统管理员</title>
    <g id="页面-1" stroke="none" stroke-width="1" fill="none" fill-rule="evenodd">
        <g id="各系统图标规范整理" transform="translate(-546.000000, -257.000000)">
            <g id="经营核算管理系统" transform="translate(30.000000, 100.000000)">
                <g id="编组-9" transform="translate(394.000000, 70.000000)">
                    <g id="系统管理员" transform="translate(122.000000, 87.000000)">
                        <rect id="矩形" x="0" y="0" width="16" height="16"></rect>
                        <g transform="translate(0.683652, 0.238786)" fill="#FFFFFF" fill-rule="nonzero" id="形状">
                            <path d="M0.0059509489,14.8613027 C0.00188979827,14.8911582 -9.61395738e-05,14.9212593 3.57568945e-06,14.9513895 L3.57568945e-06,14.9997019 C0.00484715175,15.0575239 0.0164794756,15.1145817 0.0348194897,15.1695168 C0.126244382,15.427724 0.370540217,15.6002281 0.644455146,15.5999982 C0.925498882,15.5999982 1.31352603,15.3554642 1.30333714,15.0370612 C1.30333714,12.2640142 3.16470026,9.99352942 5.71063937,9.31077895 C5.75959052,9.2976516 5.18409181,8.20204378 5.08392088,8.23366355 C2.22817212,9.13510394 0.134647375,11.7290087 0.0059509489,14.8613027 Z M13.3695381,15.0311176 C13.3593492,15.3495207 13.7473764,15.5940551 14.028505,15.5940551 C14.302406,15.5943228 14.5467085,15.421848 14.6381407,15.1636582 C14.6563958,15.1086382 14.6681979,15.0515803 14.6729527,14.9938433 L14.6729527,14.945446 C14.6729527,14.9153888 14.6710848,14.8852466 14.6670092,14.8553592 C14.5859389,12.8056195 13.6376567,10.8868922 12.0585667,9.57751065 C11.3928922,9.09438713 10.6287249,9.94261279 11.2536439,10.5063984 C12.5060291,11.6356678 13.3695381,13.193635 13.3695381,15.0311176 Z"></path>
                            <path d="M7.3224279,0 C4.58619967,0 2.36807685,2.21812282 2.36807685,4.95435105 C2.36807685,7.69057928 4.58619967,9.9087021 7.3224279,9.9087021 C10.0586561,9.9087021 12.2767789,7.69049437 12.2767789,4.95435105 C12.2767789,2.21812282 10.0586561,0 7.3224279,0 Z M7.32465165,8.81822925 C5.19743986,8.81822925 3.47299708,7.09378646 3.47299708,4.96657468 C3.47299708,2.8393629 5.19743986,1.11492011 7.32465165,1.11492011 C9.45186343,1.11492011 11.1763062,2.8393629 11.1763062,4.96657468 C11.1763062,7.09378646 9.45186343,8.81822925 7.32465165,8.81822925 Z"></path>
                        </g>
                    </g>
                </g>
            </g>
        </g>
    </g>
</svg>