<?xml version="1.0" encoding="UTF-8"?>
<svg width="16px" height="16px" viewBox="0 0 16 16" version="1.1" xmlns="http://www.w3.org/2000/svg" xmlns:xlink="http://www.w3.org/1999/xlink">
    <title>请求示例-点击状态</title>
    <g id="页面-1" stroke="none" stroke-width="1" fill="none" fill-rule="evenodd">
        <g id="各系统图标规范整理" transform="translate(-780.000000, -1286.000000)">
            <g id="朱雀能力平台系统" transform="translate(30.000000, 1081.000000)">
                <g id="编组-14" transform="translate(525.000000, 70.000000)">
                    <g id="请求示例-点击状态" transform="translate(225.000000, 135.000000)">
                        <rect id="矩形备份-43" x="0" y="0" width="16" height="16"></rect>
                        <g id="请求示例" transform="translate(1.654819, 1.635688)" fill="#037DF4" fill-rule="nonzero" stroke="#037DF4" stroke-width="0.4">
                            <path d="M11.578626,12.8 L1.21323155,12.8 C0.543182268,12.8 0,12.2568177 0,11.5867684 L0,1.22137405 C0,0.549994876 0.541867302,0.00447586097 1.21323155,0 L11.578626,0 C12.2531722,0 12.8,0.546827786 12.8,1.22137405 L12.8,11.5867684 C12.7955241,12.2581327 12.2500051,12.8 11.578626,12.8 Z M1.21323155,0.814249355 C1.10598889,0.814249355 1.00325246,0.857378419 0.928190255,0.933972506 C0.85312805,1.01056659 0.812060736,1.11415372 0.81416616,1.22137405 L0.81416616,11.5867684 C0.81416616,11.8071202 0.992879774,11.9857506 1.21323155,11.9857506 L11.578626,11.9857506 C11.8003329,11.9857506 11.9813165,11.808431 11.9857506,11.5867684 L11.9857506,1.22137405 C11.9857506,0.996525293 11.8034747,0.814249355 11.578626,0.814249355 L1.21323155,0.814249355 Z" id="形状"></path>
                            <path d="M12.2356854,3.08152274 L1.01744436,3.08152274 C0.801567589,3.08152274 0.626564885,2.91118677 0.626564885,2.70106671 C0.626564885,2.49094665 0.801567589,2.32061069 1.01744436,2.32061069 L12.2356854,2.32061069 C12.4515622,2.32061069 12.6265649,2.49094665 12.6265649,2.70106671 C12.6265649,2.91118677 12.4515622,3.08152274 12.2356854,3.08152274 Z M5.46605482,10.6677398 C5.26433957,10.6089061 5.14851111,10.3976896 5.20734473,10.1959743 L6.94222421,4.19998732 C6.98028288,4.06406347 7.08796506,3.95876872 7.2247079,3.92376658 C7.36145075,3.88876444 7.50647976,3.92937256 7.60516393,4.03029427 C7.70384809,4.13121597 7.74119494,4.27711885 7.70313626,4.4130427 L5.9378203,10.3938114 C5.88834442,10.554653 5.74084368,10.6652786 5.57258251,10.6677398 L5.46605482,10.6677398 Z M3.79204831,9.54919905 L1.57018512,7.85236517 C1.47844518,7.78132995 1.4250039,7.67163468 1.42561183,7.55560947 C1.42195318,7.43847479 1.47248121,7.32619028 1.562576,7.25124465 L3.78443919,5.45549221 C3.95102072,5.32517097 4.19128198,5.35224266 4.32468675,5.51636517 C4.45417757,5.68048246 4.42699448,5.91833449 4.26381378,6.04900361 L2.42240662,7.54039123 L4.25620466,8.94046941 C4.42182546,9.06885686 4.45244391,9.30700037 4.32468675,9.47310784 C4.25692321,9.56967604 4.14589529,9.62661344 4.02793105,9.62529025 C3.94301431,9.62696686 3.85997839,9.60018108 3.79204831,9.54919905 Z M8.79124049,9.62529025 C8.62606977,9.62863964 8.47761347,9.52501284 8.42381177,9.36881436 C8.37001007,9.21261589 8.42316005,9.03954692 8.55535776,8.94046941 L10.3891558,7.54039123 L8.54774864,6.06422185 C8.37965259,5.93184621 8.35069547,5.68826578 8.48307111,5.52016973 C8.61544675,5.35207368 8.85902718,5.32311657 9.02712323,5.45549221 L11.2489864,7.23602641 C11.3420868,7.3086502 11.3933403,7.42254693 11.3859506,7.54039123 C11.3865585,7.65641644 11.3331172,7.76611171 11.2413773,7.83714693 L9.01951411,9.53398081 C8.95593509,9.58935102 8.87546682,9.62153832 8.79124049,9.62529025 Z" id="形状"></path>
                        </g>
                    </g>
                </g>
            </g>
        </g>
    </g>
</svg>