<?xml version="1.0" encoding="UTF-8"?>
<svg width="16px" height="16px" viewBox="0 0 16 16" version="1.1" xmlns="http://www.w3.org/2000/svg" xmlns:xlink="http://www.w3.org/1999/xlink">
    <title>请求参数-默认状态</title>
    <g id="页面-1" stroke="none" stroke-width="1" fill="none" fill-rule="evenodd">
        <g id="各系统图标规范整理" transform="translate(-672.000000, -1286.000000)">
            <g id="朱雀能力平台系统" transform="translate(30.000000, 1081.000000)">
                <g id="编组-14" transform="translate(525.000000, 70.000000)">
                    <g id="请求参数-默认状态" transform="translate(117.000000, 135.000000)">
                        <rect id="矩形备份-42" x="0" y="0" width="16" height="16"></rect>
                        <g id="请求参数" transform="translate(2.304810, 1.504911)" fill="#666666" fill-rule="nonzero" stroke="#666666">
                            <path d="M1.59199999,0 L9.79699999,0 C10.726,0 11.48,0.732999996 11.48,1.64 L11.48,10.161 C11.48,10.457 11.311,10.866 11.1,11.081 L9.582,12.615 C9.372,12.828 8.962,13 8.66,13 L1.68299999,13 C0.754999998,13 0,12.265 0,11.359 L0,1.59200001 C0,0.709000004 0.710999994,0 1.59199999,0 Z M8.92999999,12.05 L10.513,10.449 C10.562,10.399 10.61,10.279 10.61,10.201 L10.61,1.639 C10.6023327,1.19754018 10.238467,0.845758617 9.79699999,0.852890178 L1.73199999,0.852890178 C1.50357916,0.851668853 1.2840568,0.941477033 1.12206756,1.10252775 C0.96007832,1.26357847 0.869000002,1.4825753 0.869000002,1.71100001 L0.869000002,11.359 C0.869000002,11.793 1.233,12.147 1.682,12.147 L8.69199999,12.147 C8.78008467,12.1419747 8.86391617,12.1074559 8.92999999,12.049 L8.92999999,12.05 Z M8.815,9.072 L10.619,9.092 C10.858,9.092 11.053,9.282 11.054,9.519 C11.0529452,9.63321975 11.0064884,9.74232634 10.9248795,9.8222467 C10.8432707,9.90216707 10.7332168,9.94633307 10.619,9.94500001 L8.815,9.925 C8.708,9.925 8.625,10.005 8.625,10.105 L8.625,12.158 C8.62394523,12.2722198 8.57748835,12.3813263 8.49587953,12.4612467 C8.41427071,12.5411671 8.30421684,12.5853331 8.19,12.5840293 C8.07578315,12.5853331 7.96572929,12.5411671 7.88412047,12.4612467 C7.80251164,12.3813263 7.75605477,12.2722198 7.755,12.158 L7.755,10.105 C7.755,9.53200001 8.22899999,9.072 8.815,9.072 L8.815,9.072 Z" id="形状" stroke-width="0.25"></path>
                            <path d="M4.153,7.212 C4.25556588,7.31558517 4.28576795,7.47069152 4.22956184,7.60519252 C4.17335573,7.73969351 4.04177245,7.827192 3.89599999,7.82700215 C3.80031412,7.82732882 3.70834689,7.78996713 3.64,7.723 L1.958,6.06000001 C1.88984893,5.99224056 1.85152897,5.90010366 1.85152897,5.80400001 C1.85152897,5.70789636 1.88984893,5.61575946 1.958,5.54800001 L3.64,3.884 C3.78,3.745 4.012,3.745 4.153,3.884 C4.29400001,4.024 4.29400001,4.24499999 4.153,4.396 L2.73,5.804 L4.153,7.21 L4.153,7.212 Z" id="路径" stroke-width="0.2"></path>
                            <path d="M7.32599999,4.396 C7.25784893,4.32824055 7.21952897,4.23610365 7.21952897,4.14 C7.21952897,4.04389635 7.25784893,3.95175945 7.32599999,3.884 C7.46699999,3.745 7.699,3.745 7.84,3.884 L9.522,5.54800001 C9.59015107,5.61575946 9.62847103,5.70789636 9.62847103,5.80400001 C9.62847103,5.90010366 9.59015107,5.99224056 9.522,6.06000001 L7.84,7.723 C7.7714065,7.79021128 7.67903163,7.82759256 7.583,7.82700694 C7.43678992,7.82759627 7.30465841,7.7399411 7.24836108,7.60500277 C7.19206376,7.47006443 7.22271933,7.31449322 7.32599999,7.211 L8.75,5.804 L7.32599999,4.396 Z" id="路径" stroke-width="0.2"></path>
                            <path d="M6.86999999,3.78400001 L5.304,8.063 C5.23370589,8.24968825 5.02746654,8.3463768 4.839,8.281 C4.74682457,8.25024263 4.67111177,8.18333735 4.6292466,8.09564679 C4.58738142,8.00795623 4.58296088,7.90701465 4.61699999,7.81600001 L6.183,3.537 C6.25370401,3.34965964 6.46122056,3.25323332 6.65,3.32 C6.835,3.388 6.93,3.592 6.86999999,3.78400001 Z" id="路径" stroke-width="0.2"></path>
                        </g>
                    </g>
                </g>
            </g>
        </g>
    </g>
</svg>