<?xml version="1.0" encoding="UTF-8"?>
<svg width="16px" height="16px" viewBox="0 0 16 16" version="1.1" xmlns="http://www.w3.org/2000/svg" xmlns:xlink="http://www.w3.org/1999/xlink">
    <title>返回-点击状态</title>
    <g id="页面-1" stroke="none" stroke-width="1" fill="none" fill-rule="evenodd">
        <g id="各系统图标规范整理" transform="translate(-708.000000, -1286.000000)">
            <g id="朱雀能力平台系统" transform="translate(30.000000, 1081.000000)">
                <g id="编组-14" transform="translate(525.000000, 70.000000)">
                    <g id="返回-点击状态" transform="translate(153.000000, 135.000000)">
                        <rect id="矩形备份-10" transform="translate(8.000000, 8.000000) scale(1, -1) translate(-8.000000, -8.000000) " x="0" y="0" width="16" height="16"></rect>
                        <path d="M7.99376952,14.9999608 C6.13765968,15.0016837 4.35716854,14.2646393 3.04536904,12.9515022 C2.40924063,12.3124432 1.90227318,11.5567449 1.55221661,10.7257719 C0.443258186,8.10151218 1.0355925,5.06695214 3.05003514,3.0523682 C3.68848072,2.41372987 4.44422005,1.9043584 5.27576549,1.55221661 C7.90002517,0.443258186 10.9345852,1.0355925 12.9491692,3.05003514 C13.5878075,3.68848072 14.097179,4.44422005 14.4493207,5.27576549 C15.5582792,7.90002517 14.9659449,10.9345852 12.9515022,12.9491692 C12.3130566,13.5878075 11.5573173,14.097179 10.7257719,14.4493207 C9.86173475,14.8158001 8.93230939,15.0031139 7.99376952,14.9999608 Z M7.99376952,2.12148025 C4.98430786,2.11999175 2.462857,4.39813286 2.15999836,7.39231696 C1.85713973,10.3865011 3.87132275,13.1234169 6.820126,13.7246 C9.76892925,14.3257831 12.6937933,12.5958086 13.5872566,9.72203322 C14.48072,6.84825784 13.0523471,3.76485193 10.2824922,2.58809111 C9.55858439,2.28068024 8.78024504,2.1219974 7.99376952,2.12148025 Z" id="形状" fill="#037DF4" fill-rule="nonzero" transform="translate(8.000769, 8.000000) rotate(270.000000) translate(-8.000769, -8.000000) "></path>
                        <path d="M8.44362863,11.5253065 C8.36862039,11.6003148 8.26860941,11.6503203 8.14359569,11.675323 L8.04358471,11.675323 C8.01858196,11.675323 7.99357923,11.675323 7.96857648,11.6503203 L7.89356824,11.6253175 C7.81856001,11.6003148 7.76855452,11.5503093 7.71854902,11.5003038 L5.39329371,9.1750485 C5.19327176,8.97502654 5.19327176,8.6749936 5.39329371,8.47497163 C5.59331567,8.27494967 5.89334861,8.27494967 6.09337058,8.47497163 L7.56853255,9.95013359 L7.56853255,4.4245269 C7.56853255,4.14949671 7.79355726,3.924472 8.06858745,3.924472 C8.34361764,3.924472 8.56864235,4.14949671 8.56864236,4.4245269 L8.56864236,9.95013359 L10.0438043,8.47497163 C10.2438263,8.27494967 10.5438592,8.27494967 10.7438812,8.47497163 C10.9689059,8.67499359 10.9689059,9.00002928 10.7688839,9.20005124 L8.44362863,11.5253065 Z" id="路径" fill="#037DF4" transform="translate(8.079595, 7.799898) scale(1, -1) rotate(-270.000000) translate(-8.079595, -7.799898) "></path>
                    </g>
                </g>
            </g>
        </g>
    </g>
</svg>