<?xml version="1.0" encoding="UTF-8"?>
<svg width="16px" height="16px" viewBox="0 0 16 16" version="1.1" xmlns="http://www.w3.org/2000/svg" xmlns:xlink="http://www.w3.org/1999/xlink">
    <title>退出</title>
    <g id="页面-1" stroke="none" stroke-width="1" fill="none" fill-rule="evenodd">
        <g id="各系统图标规范整理" transform="translate(-654.000000, -257.000000)">
            <g id="经营核算管理系统" transform="translate(30.000000, 100.000000)">
                <g id="编组-9" transform="translate(394.000000, 70.000000)">
                    <g id="退出" transform="translate(230.000000, 87.000000)">
                        <rect id="矩形" x="0" y="0" width="16" height="16"></rect>
                        <g transform="translate(0.508183, 0.217352)" fill="#FFFFFF">
                            <path d="M10.7574615,1.36726533 C10.8704674,1.36726533 10.9761766,1.39850649 11.0664234,1.45282317 L11.0714649,1.45408791 C11.3454836,1.60346054 11.6010459,1.76624605 11.8620721,1.95545914 C14.2739955,3.70381813 15.4414642,6.7393135 14.7597366,9.69219997 C13.831086,13.7146279 9.81744377,16.2226299 5.79501586,15.2939792 C1.77258795,14.3653286 -0.735414056,10.3516864 0.1932366,6.32925845 C0.648806292,4.35596932 1.86492033,2.69391806 3.5376563,1.65764967 C3.62133115,1.60581267 3.7061486,1.55554156 3.79207059,1.5068757 C3.87356639,1.47499935 3.95666158,1.45628357 4.04412807,1.45628357 C4.37549892,1.45628357 4.64412807,1.72491272 4.64412807,2.05628357 C4.64412807,2.25415931 4.5483404,2.42966263 4.40060445,2.53895415 C4.4014311,2.54075915 4.40095086,2.54115985 4.40040786,2.5414652 C2.87693817,3.39818418 1.76567935,4.85275438 1.36248068,6.59919972 C0.582914465,9.97587196 2.68828488,13.3451689 6.06495712,14.1247352 C9.44162936,14.9043014 12.8109263,12.7989309 13.5904926,9.4222587 C14.1628378,6.94315893 13.1827708,4.39492039 11.1577864,2.92704631 C10.9455372,2.77319079 10.740315,2.6416623 10.5205929,2.52057934 C10.3062318,2.42572129 10.1574615,2.21386689 10.1574615,1.96726533 C10.1574615,1.63589448 10.4260906,1.36726533 10.7574615,1.36726533 Z" id="形状结合" fill-rule="nonzero"></path>
                            <path d="M7.47564011,0 C7.80701096,-6.08718376e-17 8.07564011,0.26862915 8.07564011,0.6 L8.07564011,6.49057067 C8.07564011,6.82194152 7.80701096,7.09057067 7.47564011,7.09057067 C7.14426926,7.09057067 6.87564011,6.82194152 6.87564011,6.49057067 L6.87564011,0.6 C6.87564011,0.26862915 7.14426926,6.08718376e-17 7.47564011,0 Z" id="矩形"></path>
                        </g>
                    </g>
                </g>
            </g>
        </g>
    </g>
</svg>