<?xml version="1.0" encoding="UTF-8"?>
<svg width="16px" height="16px" viewBox="0 0 16 16" version="1.1" xmlns="http://www.w3.org/2000/svg" xmlns:xlink="http://www.w3.org/1999/xlink">
    <title>退出</title>
    <g id="页面-1" stroke="none" stroke-width="1" fill="none" fill-rule="evenodd">
        <g id="各系统图标规范整理" transform="translate(-546.000000, -880.000000)">
            <g id="财务中心系统" transform="translate(30.000000, 724.000000)">
                <g id="退出" transform="translate(516.000000, 156.000000)">
                    <rect id="矩形" x="0" y="0" width="16" height="16"></rect>
                    <g transform="translate(0.844456, 0.094591)">
                        <path d="M9.35135634,1.22570577 L9.35135634,6.12270916 C9.35135634,7.07298837 8.7746748,7.96387514 7.86846095,8.25125797 C6.36065904,8.73022935 4.96781027,7.60943632 4.96781027,6.17060629 L4.96781027,1.22570577 C1.9866924,2.18364853 -0.143772292,5.04214972 0.0075826641,8.37579053 C0.174264704,12.0370478 3.21094325,15.0526516 6.87411636,15.1944271 C10.9587843,15.3534456 14.3191817,12.0887767 14.3191817,8.04051056 C14.3173316,4.85247706 12.2309323,2.15299436 9.35135634,1.22570577 Z" id="路径" stroke="#037DF4" stroke-width="1.2" fill-rule="nonzero"></path>
                        <path d="M7.14209635,0 C7.45640336,-5.7737262e-17 7.71119954,0.254796179 7.71119954,0.569103194 L7.71119954,6.29551462 C7.71119954,6.60982163 7.45640336,6.86461781 7.14209635,6.86461781 C6.82778933,6.86461781 6.57299315,6.60982163 6.57299315,6.29551462 L6.57299315,0.569103194 C6.57299315,0.254796179 6.82778933,5.7737262e-17 7.14209635,0 Z" id="矩形" fill="#037DF4"></path>
                    </g>
                </g>
            </g>
        </g>
    </g>
</svg>