<?xml version="1.0" encoding="UTF-8"?>
<svg width="16px" height="16px" viewBox="0 0 16 16" version="1.1" xmlns="http://www.w3.org/2000/svg" xmlns:xlink="http://www.w3.org/1999/xlink">
    <title>通知-无信息状态</title>
    <g id="页面-1" stroke="none" stroke-width="1" fill="none" fill-rule="evenodd">
        <g id="各系统图标规范整理" transform="translate(-618.000000, -257.000000)">
            <g id="经营核算管理系统" transform="translate(30.000000, 100.000000)">
                <g id="编组-9" transform="translate(394.000000, 70.000000)">
                    <g id="通知-无信息状态" transform="translate(194.000000, 87.000000)">
                        <rect id="矩形" x="0" y="0" width="16" height="16"></rect>
                        <g id="通知-有信息状态" transform="translate(0.923121, 0.242074)" fill="#FFFFFF">
                            <g id="通知" transform="translate(0.000000, 1.979367)" fill-rule="nonzero">
                                <path d="M6.18439484,13.277502 C5.40863807,13.0342821 4.87713262,12.5698595 4.81909467,12.5177324 C4.63698216,12.2674687 4.62904589,12.0355177 4.79528583,11.8218796 C4.96152578,11.6082414 5.2287013,11.5977287 5.59681239,11.7903415 C5.60085878,11.7939119 6.00565664,12.1472967 6.55564855,12.3110169 C7.21433765,12.5071876 7.78059447,12.3471964 8.2867108,11.8218796 C8.61259717,11.5224883 8.90353497,11.4748986 9.1595242,11.6791104 C9.3575792,11.8525835 9.3575792,12.1221801 9.1595242,12.4879002 C8.5666088,13.1032691 7.85162725,13.4206332 7.08749394,13.4206332 C6.79238503,13.4206332 6.48997676,13.3733062 6.18439484,13.277502 Z" id="路径"></path>
                                <path d="M0.843428006,11.0559292 C0.57583924,11.0559292 0.203349663,11.0089657 0.0646320548,10.7800995 C-0.0734223209,10.5523557 0.0345905809,10.1896967 0.15647229,9.95322879 C0.18937882,9.88042628 0.76310026,9.52024199 0.76310026,6.62859973 C0.76310026,2.97357697 3.53235064,0 6.9362634,0 C10.3401762,0 13.1094265,2.97357697 13.1094265,6.62865075 C13.1094265,9.62692038 13.097514,8.69778087 13.6718732,9.87527347 L13.7109529,9.95537154 C13.8265342,10.1925522 13.8117851,10.4725441 13.6719247,10.6962689 C13.5320643,10.9199937 13.286821,11.0559292 13.0229769,11.0559292 L0.843428006,11.0559292 Z M6.96819631,1.15553358 C4.19356772,1.15553358 1.93628587,3.42945779 1.93628587,6.22443469 C1.93628587,7.99916893 1.71876945,9.06522977 1.51008341,9.85553358 L12.2940204,9.85553358 C12.0054874,9.09865789 12.0001068,8.54370753 12.0001068,6.22443469 C12.0001068,3.42945779 9.74282491,1.15553358 6.96819631,1.15553358 Z" id="形状"></path>
                            </g>
                            <path d="M5.31740588,0 L8.71350258,0 C9.04487343,-8.04506592e-16 9.31350258,0.26862915 9.31350258,0.6 C9.31350258,0.93137085 9.04487343,1.2 8.71350258,1.2 L5.31740588,1.2 C4.98603503,1.2 4.71740588,0.93137085 4.71740588,0.6 C4.71740588,0.26862915 4.98603503,6.08718376e-17 5.31740588,0 Z" id="矩形"></path>
                        </g>
                    </g>
                </g>
            </g>
        </g>
    </g>
</svg>