<?xml version="1.0" encoding="UTF-8"?>
<svg width="16px" height="16px" viewBox="0 0 16 16" version="1.1" xmlns="http://www.w3.org/2000/svg" xmlns:xlink="http://www.w3.org/1999/xlink">
    <title>重置</title>
    <g id="页面-1" stroke="none" stroke-width="1" fill="none" fill-rule="evenodd">
        <g id="各系统图标规范整理" transform="translate(-1649.000000, -234.000000)">
            <g id="经营核算管理系统" transform="translate(30.000000, 100.000000)">
                <g id="重置" transform="translate(1619.000000, 134.000000)">
                    <rect id="矩形备份-2" x="0" y="0" width="16" height="16"></rect>
                    <g transform="translate(1.311820, 1.168850)" fill="#FFFFFF" fill-rule="nonzero" id="路径" stroke="#FFFFFF" stroke-width="0.1">
                        <path d="M10.861256,0.0616264087 C10.9856931,0.127427923 11.0788901,0.239971439 11.1203408,0.374493808 L11.6983425,2.25072495 L11.715628,2.31653102 C11.7672885,2.55219455 11.7126267,2.79865136 11.5661756,2.99037558 C11.4197244,3.1820998 11.1963242,3.29966353 10.9553708,3.31180993 L8.99392533,3.4103674 L8.95025679,3.41097391 C8.67409687,3.40215903 8.45090471,3.18292418 8.43715139,2.90696613 L8.43684814,2.86329759 C8.44580597,2.58736633 8.66482594,2.36439054 8.94055266,2.35049544 L9.82666021,2.30561388 C9.2839078,1.91623488 8.67502339,1.6285406 8.02957831,1.4565033 C5.07770601,0.665617437 2.04304544,2.41751453 1.25185633,5.37029659 C0.460667211,8.32247214 2.2125643,11.3571327 5.16534636,12.1483218 C8.11752191,12.9395109 11.1521825,11.1873106 11.9433716,8.23483179 C12.1699022,7.38996675 12.1926462,6.52144793 12.019185,5.6844675 C11.9807236,5.49876907 12.0442527,5.3066577 12.1858415,5.18049988 C12.3274303,5.05434207 12.5255682,5.01330418 12.7056185,5.07284479 C12.8856687,5.1323854 13.0202775,5.28345888 13.058739,5.46915731 C13.266968,6.47572322 13.2361192,7.51710473 12.9686726,8.50957971 C12.0255534,12.0282333 8.40925204,14.1164388 4.89059844,13.1736229 C1.37194482,12.2305036 -0.7162607,8.61420226 0.226252048,5.0952454 C1.16967456,1.57689505 4.78597588,-0.511310474 8.30493275,0.431202275 C9.02019005,0.622159357 9.69815473,0.932282323 10.31035,1.34854495 L10.1062602,0.686541948 L10.0950398,0.644389677 C10.0357805,0.374695403 10.1932354,0.104622028 10.4571248,0.0233259311 C10.5913372,-0.0178433245 10.7368189,-0.00417510559 10.861256,0.0616264087 Z"></path>
                    </g>
                </g>
            </g>
        </g>
    </g>
</svg>