<?xml version="1.0" encoding="UTF-8"?>
<svg width="16px" height="16px" viewBox="0 0 16 16" version="1.1" xmlns="http://www.w3.org/2000/svg" xmlns:xlink="http://www.w3.org/1999/xlink">
    <title>重置备份</title>
    <g id="页面-1" stroke="none" stroke-width="1" fill="none" fill-rule="evenodd">
        <g id="各系统图标规范整理" transform="translate(-1757.000000, -1214.000000)">
            <g id="朱雀能力平台系统" transform="translate(30.000000, 1081.000000)">
                <g id="编组-16" transform="translate(1574.000000, 70.000000)">
                    <g id="重置备份" transform="translate(153.000000, 63.000000)">
                        <rect id="矩形备份-2" x="0" y="0" width="16" height="16"></rect>
                        <path d="M12.335184,1.2313963 C12.4614783,1.29817992 12.5560664,1.41240319 12.5981358,1.54893336 L13.1847644,3.45316795 L13.2023078,3.5199562 C13.2547394,3.7591371 13.1992617,4.00927237 13.0506247,4.20385814 C12.9019878,4.39844391 12.6752533,4.51776233 12.4307035,4.53009002 L10.4399827,4.6301185 L10.3956624,4.63073406 C10.1153807,4.62178762 9.88885731,4.3992806 9.87489872,4.11920377 L9.87459094,4.07488346 C9.88368247,3.79483383 10.1059714,3.56853005 10.3858134,3.55442755 L11.2851465,3.50887612 C10.7342933,3.11368549 10.116321,2.82169726 9.46124246,2.64709225 C6.46531236,1.84440212 3.38535835,3.62244693 2.58236044,6.61930036 C1.77936253,9.61553823 3.55740734,12.6954922 6.55426078,13.4984901 C9.55049865,14.3014881 12.6304527,12.5231355 13.4334506,9.52658981 C13.6633622,8.66911485 13.6864457,7.78763307 13.5103956,6.93816039 C13.47136,6.74969034 13.5358373,6.55471164 13.6795394,6.42667087 C13.8232415,6.2986301 14.0243366,6.2569797 14.2070743,6.31740898 C14.3898119,6.37783826 14.5264297,6.53116657 14.5654652,6.71963662 C14.7768021,7.7412259 14.7454929,8.79815041 14.4740546,9.80543845 C13.5168589,13.3766093 9.84658296,15.4959821 6.27541214,14.5390942 C2.70424131,13.5818985 0.584868536,9.91162254 1.54144864,6.34014393 C2.49895208,2.76928089 6.16922805,0.649908117 9.74070666,1.60648822 C10.4666394,1.80029541 11.154723,2.11504707 11.7760555,2.53752258 L11.5689196,1.86563893 L11.5575317,1.82285752 C11.497388,1.54913796 11.657193,1.27503364 11.925021,1.19252417 C12.0612366,1.15074045 12.2088896,1.16461267 12.335184,1.2313963 Z" id="路径" stroke="#037DF4" stroke-width="0.1" fill="#037DF4" fill-rule="nonzero"></path>
                    </g>
                </g>
            </g>
        </g>
    </g>
</svg>