<?xml version="1.0" encoding="UTF-8"?>
<svg width="16px" height="16px" viewBox="0 0 16 16" version="1.1" xmlns="http://www.w3.org/2000/svg" xmlns:xlink="http://www.w3.org/1999/xlink">
    <title>飞机引进测算-默认状态</title>
    <g id="页面-1" stroke="none" stroke-width="1" fill="none" fill-rule="evenodd">
        <g id="各系统图标规范整理" transform="translate(-40.000000, -930.000000)">
            <g id="财务中心系统" transform="translate(30.000000, 724.000000)">
                <g id="飞机引进测算-默认状态" transform="translate(10.000000, 206.000000)">
                    <rect id="矩形" x="0" y="0" width="16" height="16"></rect>
                    <g transform="translate(0.201229, 0.170056)" fill="#FFFFFF">
                        <path d="M11.0822593,15.6096111 C11.0101744,15.6096111 10.9375634,15.601894 10.8654786,15.5859336 C10.526978,15.5115687 10.255476,15.2725137 10.138667,14.9462903 L8.41161264,10.1178342 L6.93062887,11.5183145 L7.24703042,13.8215214 C7.28877298,14.1261719 7.18511814,14.4387149 6.96991598,14.657951 L6.34202376,15.2970681 C6.12594465,15.5175319 5.8251527,15.6241684 5.51857292,15.5901429 C5.21129159,15.5557667 4.94189426,15.3854641 4.77913337,15.1227315 L3.23062487,12.621686 L0.436679873,10.7164365 C0.191836984,10.5496417 0.0345131509,10.2849798 0.00504781755,9.98997571 C-0.0245929046,9.69532238 0.0773080397,9.4045276 0.284266928,9.19248244 L0.908475983,8.55248838 C1.14490021,8.30992555 1.48410232,8.20434144 1.81716582,8.2695861 L4.21069798,8.74085605 L5.62538476,7.16744233 L0.683802817,5.33638233 C0.364595039,5.21817022 0.129749317,4.94929905 0.0555598175,4.6171125 C-0.0188050713,4.28492594 0.0794127064,3.9415145 0.317941595,3.69877627 L1.57337526,2.4198405 C1.80927332,2.18008389 2.14654615,2.07467516 2.47645265,2.13869211 L8.99548225,3.40429833 L11.0652465,1.33365711 C11.9271075,0.461974333 12.8129968,0 13.6246966,0 L13.6290813,0 C14.1622635,0.00105233333 14.6419521,0.203451111 15.0165828,0.585448111 C15.2847524,0.857476277 16.5161578,2.33372455 14.3038024,4.587121 L12.2029943,6.68687677 L13.3232031,13.157499 C13.377749,13.474076 13.2760235,13.799247 13.0513503,14.0283049 L11.7931104,15.3098715 C11.6022873,15.5042024 11.3470965,15.6096111 11.0822593,15.6096111 Z M3.8788622,11.7138731 C3.99446721,11.7922878 4.09219037,11.8942546 4.16562304,12.0130865 L5.6499392,14.410828 L6.13506487,13.9171083 L5.81813715,11.6112706 C5.77428992,11.2920628 5.88776653,10.969698 6.1219107,10.7485327 L7.77389864,9.18634382 C8.01996925,8.95342738 8.36355609,8.86082205 8.69363798,8.9404486 C9.0231937,9.01919821 9.28785553,9.25667477 9.4020337,9.57588255 L11.1262819,14.3973231 L12.2143945,13.2892161 L11.0941857,6.81806766 C11.0387628,6.49815833 11.1429438,6.17018111 11.3725279,5.94077244 L13.5117461,3.80225572 C14.4823482,2.81376394 14.7491147,1.90191711 14.221545,1.36715639 C14.0551009,1.19755533 13.86077,1.11547333 13.6266259,1.11494717 C13.1244875,1.11494717 12.4965953,1.47168817 11.8557243,2.11975011 L9.74070964,4.23581705 C9.50481159,4.47136433 9.16876648,4.57414222 8.84271853,4.51012527 L2.32544282,3.24504522 L1.23803171,4.35262605 L6.17189653,6.18070444 C6.48258927,6.2956021 6.71608678,6.55708777 6.79522864,6.87875222 C6.87478778,7.20024314 6.78970105,7.54026157 6.56810003,7.78638971 L4.9964402,9.53484155 C4.76247142,9.79529405 4.40327498,9.91455849 4.05968815,9.84738455 L1.66334976,9.37558844 L1.17822409,9.87264055 L3.8788622,11.7138731 Z" id="形状" fill-rule="nonzero"></path>
                        <path d="M3.8788622,11.7138731 C3.99446721,11.7922878 4.09219037,11.8942546 4.16562304,12.0130865 L5.6499392,14.410828 L6.13506487,13.9171083 L5.81813715,11.6112706 C5.77428992,11.2920628 5.88776653,10.969698 6.1219107,10.7485327 L7.77389864,9.18634382 C8.01996925,8.95342738 8.36355609,8.86082205 8.69363798,8.9404486 C9.0231937,9.01919821 9.28785553,9.25667477 9.4020337,9.57588255 L11.1262819,14.3973231 L12.2143945,13.2892161 L11.0941857,6.81806766 C11.0387628,6.49815833 11.1429438,6.17018111 11.3725279,5.94077244 L13.5117461,3.80225572 C14.4823482,2.81376394 14.7491147,1.90191711 14.221545,1.36715639 C14.0551009,1.19755533 13.86077,1.11547333 13.6266259,1.11494717 C13.1244875,1.11494717 12.4965953,1.47168817 11.8557243,2.11975011 L9.74070964,4.23581705 C9.50481159,4.47136433 9.16876648,4.57414222 8.84271853,4.51012527 L2.32544282,3.24504522 L1.23803171,4.35262605 L6.17189653,6.18070444 C6.48258927,6.2956021 6.71608678,6.55708777 6.79522864,6.87875222 C6.87478778,7.20024314 6.78970105,7.54026157 6.56810003,7.78638971 L4.9964402,9.53484155 C4.76247142,9.79529405 4.40327498,9.91455849 4.05968815,9.84738455 L1.66334976,9.37558844 L1.17822409,9.87264055 L3.8788622,11.7138731 Z" id="路径" fill-opacity="0.15"></path>
                    </g>
                </g>
            </g>
        </g>
    </g>
</svg>