<?xml version="1.0" encoding="UTF-8"?>
<svg width="58px" height="42px" viewBox="0 0 58 42" version="1.1" xmlns="http://www.w3.org/2000/svg" xmlns:xlink="http://www.w3.org/1999/xlink">
    <title>南航logo</title>
    <g id="页面-1" stroke="none" stroke-width="1" fill="none" fill-rule="evenodd">
        <g id="-通用范本管理列表" transform="translate(-88.000000, -127.000000)">
            <g id="路径" transform="translate(88.000000, 127.000000)">
                <polygon fill="#0A92DF" fill-rule="nonzero" points="58 0 41.4099561 0 0 41.4004392 41.4099561 41.4004392"></polygon>
                <path d="M38.5900439,15.9414348 C37.9582723,15.6339678 37.5131772,14.9853587 37.5131772,14.2364568 C37.5131772,13.1888726 38.363836,12.3367496 39.409224,12.3367496 C40.4597365,12.3367496 41.3081991,13.1888726 41.3081991,14.2364568 C41.3081991,14.9904832 40.8653001,15.6434846 40.2262079,15.9443631 L40.2232796,16.4809663 C40.8162518,16.5395315 41.5190337,16.7811127 41.954612,17.0043924 C42.1449488,16.9897511 42.4019034,16.9765739 42.6559297,16.9765739 C45.0549048,16.9765739 46.7335286,18.5549048 46.7335286,20.7357247 C46.7335286,22.0856515 45.5278184,23.3111274 44.1727672,23.3111274 C42.8118594,23.3111274 41.5841874,21.9787701 41.8272328,20.6398243 C41.8272328,20.6398243 41.6888726,21.1002928 41.6888726,21.6625183 C41.6888726,22.0234261 41.6888726,28.5065886 41.6888726,28.5065886 C41.6325037,29.2898975 40.5841874,33.5973646 35.7474378,33.5973646 C30.9077599,33.5973646 29.8550512,29.2906296 29.7979502,28.5065886 C29.7979502,28.5065886 29.7979502,22.0241581 29.7979502,21.6625183 C29.7979502,21.0995608 29.65959,20.6398243 29.65959,20.6398243 C29.9194729,21.9275256 28.6720351,23.3111274 27.3199122,23.3111274 C25.9590044,23.3111274 24.7547584,22.0856515 24.7547584,20.7357247 C24.7547584,18.5556369 26.4355783,16.9765739 28.8382138,16.9765739 C29.0878477,16.9765739 29.3382138,16.9897511 29.5307467,17.0043924 C29.9692533,16.7811127 30.7108346,16.5204978 31.261347,16.4809663 L31.261347,15.9370425 C30.6303075,15.6332357 30.1866764,14.9846266 30.1866764,14.2357247 C30.1866764,13.1881406 31.0373353,12.3360176 32.0878477,12.3360176 C33.1332357,12.3360176 33.9860908,13.1881406 33.9860908,14.2357247 C33.9860908,14.9897511 33.5431918,15.6464129 32.897511,15.9509517 L32.897511,16.6632504 C33.0600293,16.7144949 33.2284041,16.7745242 33.3821376,16.8491947 C33.6764275,16.2144949 34.2693997,15.7218155 34.9370425,15.4970717 L34.9370425,14.9194729 C34.2964861,14.6127379 33.8528551,13.966325 33.8528551,13.2079063 C33.8528551,12.1581259 34.6998536,11.3118594 35.7467057,11.3118594 C36.795022,11.3118594 37.6449488,12.1581259 37.6449488,13.2079063 C37.6449488,13.966325 37.2057101,14.6127379 36.5636896,14.9194729 L36.5636896,15.4970717 C37.227672,15.7188873 37.8103953,16.2137628 38.102489,16.8491947 C38.2562225,16.7745242 38.4326501,16.7137628 38.5885798,16.6632504 L38.5885798,15.9414348 L38.5900439,15.9414348 Z" fill="#FFFFFF"></path>
                <path d="M45.9765739,20.7357247 C45.989019,18.9743777 44.7708638,17.534407 42.3045388,17.534407 C40.6603221,17.534407 38.7027818,18.9077599 38.7027818,22.4326501 C38.7027818,25.1837482 38.7027818,27.658858 38.7027818,27.658858 C39.4158126,27.193265 40.4048316,26.7628111 40.9407028,26.7569546 C40.9407028,25.2144949 40.9407028,22.1508053 40.9407028,21.8828697 C40.9407028,20.0183016 42.2847731,19.4707174 42.9099561,19.4707174 C42.5578331,19.7964861 42.3448023,20.2013177 42.3448023,20.7357247 C42.3448023,21.7284041 43.1617862,22.5490483 44.1603221,22.5490483 C45.1581259,22.5483163 45.9341142,21.8169839 45.9765739,20.7357247 L45.9765739,20.7357247 Z" fill="#E60020" fill-rule="nonzero"></path>
                <path d="M25.5146413,20.7357247 C25.5007321,18.9743777 26.7144949,17.534407 29.1874085,17.534407 C30.8286969,17.534407 32.7869693,18.9077599 32.7869693,22.4326501 C32.7869693,25.1837482 32.7869693,27.658858 32.7869693,27.658858 C32.0739385,27.193265 31.0878477,26.7628111 30.5461201,26.7569546 C30.5461201,25.2144949 30.5461201,22.1508053 30.5461201,21.8828697 C30.5461201,20.0183016 29.204978,19.4707174 28.5768668,19.4707174 C28.931918,19.7964861 29.1471449,20.2013177 29.1471449,20.7357247 C29.1471449,21.7284041 28.3221083,22.5490483 27.329429,22.5490483 C26.3352855,22.5483163 25.5600293,21.8169839 25.5146413,20.7357247 L25.5146413,20.7357247 Z" fill="#E60020" fill-rule="nonzero"></path>
                <path d="M35.7481698,32.8338214 C39.8938507,32.8338214 40.8272328,29.3609078 40.9531479,28.4758419 C40.9531479,28.4758419 40.9531479,27.4948755 40.9531479,27.3016105 C39.6713031,27.6200586 38.5248902,28.2994143 37.750366,29.3213763 C37.4707174,28.1310395 36.7196193,27.1105417 35.7481698,26.4538799 C34.77306,27.1105417 34.0183016,28.1303075 33.7393851,29.3213763 C32.9641288,28.2994143 31.8169839,27.6200586 30.5373353,27.3016105 C30.5373353,27.4948755 30.5373353,28.4758419 30.5373353,28.4758419 C30.6617862,29.3609078 31.5980966,32.8338214 35.7481698,32.8338214 L35.7481698,32.8338214 Z" fill="#E60020" fill-rule="nonzero"></path>
                <path d="M36.0417277,14.5102489 L36.033675,15.9443631 C36.7423133,16.0439239 37.375549,16.5373353 37.5915081,17.1215227 C36.750366,17.6669107 36.0688141,18.4963397 35.7415813,19.5241581 C35.4165447,18.4963397 34.7364568,17.6669107 33.8989751,17.1215227 C34.1581259,16.5373353 34.749634,16.0431918 35.4487555,15.9443631 L35.4487555,14.5029283 C34.8565154,14.3682284 34.4194729,13.8374817 34.4194729,13.2093704 C34.4194729,12.4729136 35.0131772,11.8784773 35.7474378,11.8784773 C36.4831625,11.8784773 37.0834553,12.4729136 37.0834553,13.2093704 C37.0841874,13.8469985 36.6346999,14.374817 36.0417277,14.5102489 L36.0417277,14.5102489 Z" fill="#E60020" fill-rule="nonzero"></path>
                <path d="M32.3777452,15.5285505 L32.3777452,17.0644217 C34.1844802,17.4267936 35.4729136,19.3440703 35.4729136,21.1002928 C35.4729136,22.9758419 35.4729136,26.0036603 35.4729136,26.0036603 C34.6178624,26.4765739 33.7979502,27.4743777 33.5307467,28.3096633 C33.4575403,28.2313324 33.4004392,28.1508053 33.3038067,28.0688141 C33.3038067,28.0688141 33.3038067,24.4816984 33.3038067,21.7284041 C33.3038067,19.8191801 32.2818448,17.9048316 30.454612,17.2789165 C30.454612,17.2789165 31.0490483,17.0248902 31.7855051,17.0314788 L31.7855051,15.5270864 C31.1961933,15.3945827 30.7562225,14.863836 30.7562225,14.2364568 C30.7562225,13.4992679 31.3484627,12.9026354 32.0878477,12.9026354 C32.8206442,12.9026354 33.4194729,13.4992679 33.4194729,14.2364568 C33.420937,14.8653001 32.9714495,15.3967789 32.3777452,15.5285505 L32.3777452,15.5285505 Z" fill="#E60020" fill-rule="nonzero"></path>
                <path d="M39.7005857,15.5402635 L39.7005857,17.0322108 C40.4421669,17.0256223 41.0395315,17.2796486 41.0395315,17.2796486 C39.2086384,17.9055637 38.1866764,19.8528551 38.1866764,21.7291362 C38.1866764,24.4824305 38.1866764,28.0695461 38.1866764,28.0695461 C38.090776,28.1508053 38.0270864,28.2313324 37.9590044,28.3103953 C37.6896047,27.4751098 36.8696925,26.477306 36.0168375,26.0043924 C36.0168375,26.0043924 36.0168375,22.9765739 36.0168375,21.1010249 C36.0168375,19.3448023 37.2986823,17.4267936 39.1098097,17.0651537 L39.1098097,15.5278184 C38.5241581,15.3953148 38.0805271,14.8645681 38.0805271,14.2371889 C38.0805271,13.5 38.6742313,12.9033675 39.409224,12.9033675 C40.1508053,12.9033675 40.7437775,13.5 40.7437775,14.2371889 C40.7437775,14.8653001 40.2928258,15.4077599 39.7005857,15.5402635 L39.7005857,15.5402635 Z" fill="#E60020" fill-rule="nonzero"></path>
            </g>
        </g>
    </g>
</svg>