<?xml version="1.0" encoding="UTF-8"?>
<svg width="197px" height="42px" viewBox="0 0 197 42" version="1.1" xmlns="http://www.w3.org/2000/svg"
	xmlns:xlink="http://www.w3.org/1999/xlink">
	<title>辅助标志1-四色版</title>
	<g id="页面-1" stroke="none" stroke-width="1" fill="none" fill-rule="evenodd">
		<g id="-通用范本管理列表" transform="translate(-157.000000, -126.000000)">
			<g id="辅助标志1-四色版" transform="translate(157.879100, 125.939141)">
				<polyline id="Fill-3" fill="#0A92DF" points="58.2795749 0 41.6095627 0 0 41.6 41.6095627 41.6 58.2795749 0"></polyline>
				<path
					d="M38.7760579,16.0175411 C38.1405054,15.7093275 37.6940003,15.0568564 37.6940003,14.3050802 C37.6940003,13.2517108 38.5487596,12.3962159 39.5991866,12.3962159 C40.6547628,12.3962159 41.5065797,13.2517108 41.5065797,14.3050802 C41.5065797,15.0627411 41.0615458,15.7181547 40.4201086,16.021219 L40.4171662,16.5604088 C41.0129967,16.6192563 41.7199017,16.862002 42.156844,17.0863579 C42.3480982,17.0709105 42.6062914,17.0584054 42.8615423,17.0584054 C45.2720811,17.0584054 46.9587962,18.6443442 46.9587962,20.8349407 C46.9587962,22.1913745 45.7480098,23.423493 44.3856913,23.423493 C43.0182236,23.423493 41.7846339,22.0847135 42.0288508,20.7393136 C42.0288508,20.7393136 41.8898237,21.2020017 41.8898237,21.7669372 C41.8898237,22.1295846 41.8898237,28.6439977 41.8898237,28.6439977 C41.8339186,29.4310823 40.7798136,33.7585769 35.9204852,33.7585769 C31.0567432,33.7585769 29.9996959,29.4310823 29.941584,28.6439977 C29.941584,28.6439977 29.941584,22.1295846 29.941584,21.7669372 C29.941584,21.2020017 29.8032925,20.7393136 29.8032925,20.7393136 C30.0644281,22.0324863 28.8109773,23.423493 27.4523367,23.423493 C26.0848691,23.423493 24.8748183,22.1913745 24.8748183,20.8349407 C24.8748183,18.6443442 26.5637402,17.0584054 28.977957,17.0584054 C29.2287942,17.0584054 29.4803671,17.0709105 29.6738281,17.0863579 C30.1144484,16.862002 30.8596043,16.6001309 31.4127703,16.5604088 L31.4127703,16.0138631 C30.778689,15.7093275 30.3336552,15.0568564 30.3336552,14.3050802 C30.3336552,13.2517108 31.1884144,12.3962159 32.2439906,12.3962159 C33.2944176,12.3962159 34.1513837,13.2517108 34.1513837,14.3050802 C34.1513837,15.0627411 33.7063498,15.7218326 33.0575566,16.0278394 L33.0575566,16.7435715 C33.2208583,16.795063 33.3900447,16.8561173 33.5445193,16.9311478 C33.8402278,16.2933885 34.4360582,15.7983343 35.1061836,15.5725072 L35.1061836,14.9921242 C34.4625396,14.6839107 34.0175057,14.0343819 34.0175057,13.2723074 C34.0175057,12.2182024 34.868587,11.3671211 35.9204852,11.3671211 C36.9738546,11.3671211 37.8278783,12.2182024 37.8278783,13.2723074 C37.8278783,14.0343819 37.3865224,14.6839107 36.7414072,14.9921242 L36.7414072,15.5725072 C37.4085902,15.7953919 37.9941223,16.2933885 38.287624,16.9311478 C38.4420986,16.8561173 38.6193765,16.795063 38.7760579,16.7435715 L38.7760579,16.0175411"
					id="Fill-4" fill="#FFFFFE"></path>
				<path
					d="M46.1981928,20.8349407 C46.2106979,19.0651035 44.9874065,17.6181918 42.5091931,17.6181918 C40.8570509,17.6181918 38.8900748,18.9981646 38.8900748,22.5407812 C38.8900748,25.3051403 38.8900748,27.7921808 38.8900748,27.7921808 C39.6065425,27.3236079 40.6003289,26.8918148 41.1387831,26.8851944 C41.1387831,25.3352996 41.1387831,22.2568423 41.1387831,21.9876152 C41.1387831,20.1140594 42.4893321,19.5638357 43.1175287,19.5638357 C42.7637084,19.8911747 42.5496508,20.2986933 42.5496508,20.8349407 C42.5496508,21.8331406 43.3713083,22.6570049 44.3739218,22.6570049 C45.3757997,22.6570049 46.1555284,21.9221474 46.1981928,20.8349407"
					id="Fill-5" fill="#D82333"></path>
				<path
					d="M25.6376284,20.8349407 C25.6236521,19.0651035 26.84253,17.6181918 29.3273637,17.6181918 C30.9772992,17.6181918 32.9442753,18.9981646 32.9442753,22.5407812 C32.9442753,25.3051403 32.9442753,27.7921808 32.9442753,27.7921808 C32.2285431,27.3236079 31.2376991,26.8918148 30.6933602,26.8851944 C30.6933602,25.3352996 30.6933602,22.2568423 30.6933602,21.9876152 C30.6933602,20.1140594 29.3457535,19.5638357 28.7146146,19.5638357 C29.0713773,19.8911747 29.2876417,20.2986933 29.2876417,20.8349407 C29.2876417,21.8331406 28.4578926,22.6570049 27.4611639,22.6570049 C26.4622284,22.6570049 25.6832352,21.9221474 25.6376284,20.8349407"
					id="Fill-6" fill="#D82333"></path>
				<path
					d="M35.9204852,32.9920888 C40.0861493,32.9920888 41.023295,29.5024349 41.1505526,28.6131028 C41.1505526,28.6131028 41.1505526,27.6266723 41.1505526,27.4332113 C39.862529,27.7524588 38.7105901,28.4358248 37.9323325,29.4627129 C37.6513359,28.2659028 36.8966173,27.2412215 35.9204852,26.5813944 C34.9399395,27.2412215 34.1822786,28.2659028 33.9020176,29.4627129 C33.1230244,28.4358248 31.9703499,27.7524588 30.6845331,27.4332113 C30.6845331,27.6266723 30.6845331,28.6131028 30.6845331,28.6131028 C30.8095839,29.5024349 31.7504076,32.9920888 35.9204852,32.9920888"
					id="Fill-7" fill="#D82333"></path>
				<path
					d="M36.2154581,14.580192 L36.2073665,16.021219 C36.9194207,16.1205241 37.5549732,16.6170495 37.7727088,17.2040528 C36.9275122,17.7520697 36.242675,18.5854968 35.9138649,19.6182696 C35.5872615,18.5854968 34.9038955,17.7520697 34.0631125,17.2040528 C34.3235125,16.6170495 34.9178717,16.1205241 35.6203632,16.021219 L35.6203632,14.5721005 C35.0252683,14.437487 34.5853836,13.9041819 34.5853836,13.2723074 C34.5853836,12.5323007 35.1826853,11.934999 35.9204852,11.934999 C36.6597563,11.934999 37.2629427,12.5323007 37.2629427,13.2723074 C37.2629427,13.913009 36.8112885,14.4441073 36.2154581,14.580192"
					id="Fill-8" fill="#D82333"></path>
				<path
					d="M32.5338143,15.6026665 L32.5338143,17.145941 C34.3499938,17.5100596 35.6439022,19.4373137 35.6439022,21.2020017 C35.6439022,23.0865913 35.6439022,26.1290047 35.6439022,26.1290047 C34.7847294,26.6041978 33.9616006,27.6068113 33.6923735,28.4461231 C33.6195498,28.366679 33.5614379,28.2857638 33.4650752,28.204113 C33.4650752,28.204113 33.4650752,24.5997065 33.4650752,21.8331406 C33.4650752,19.9147136 32.4381872,17.9911375 30.6021467,17.3622054 C30.6021467,17.3622054 31.1994483,17.1069545 31.9401906,17.1135749 L31.9401906,15.6019309 C31.3473025,15.4687886 30.905211,14.9347479 30.905211,14.3050802 C30.905211,13.5643379 31.5003059,12.9640939 32.2439906,12.9640939 C32.9803193,12.9640939 33.5820346,13.5643379 33.5820346,14.3050802 C33.5820346,14.9369547 33.1303804,15.4709953 32.5338143,15.6026665"
					id="Fill-9" fill="#D82333"></path>
				<path
					d="M39.8919527,15.614436 L39.8919527,17.1135749 C40.6371086,17.1069545 41.2373526,17.3622054 41.2373526,17.3622054 C39.3976341,17.9911375 38.370746,19.9478153 38.370746,21.8331406 C38.370746,24.5997065 38.370746,28.204113 38.370746,28.204113 C38.2736477,28.2857638 38.2103867,28.366679 38.1419766,28.4461231 C37.8720139,27.6068113 37.0474139,26.6041978 36.1904479,26.1290047 C36.1904479,26.1290047 36.1904479,23.0865913 36.1904479,21.2020017 C36.1904479,19.4373137 37.4792071,17.5100596 39.2990646,17.145941 L39.2990646,15.6019309 C38.7105901,15.4687886 38.264085,14.9347479 38.264085,14.3050802 C38.264085,13.5643379 38.8606511,12.9640939 39.5991866,12.9640939 C40.3436069,12.9640939 40.9401729,13.5643379 40.9401729,14.3050802 C40.9401729,14.9369547 40.4870475,15.4820292 39.8919527,15.614436"
					id="Fill-10" fill="#D82333"></path>
				<polyline id="Fill-11" fill="#001A3A"
					points="187.097385 37.916885 186.01827 37.916885 186.01827 26.5747741 186.455212 26.5747741 193.747883 34.6192209 193.747883 26.5747741 194.771093 26.5747741 194.771093 37.916885 194.347391 37.916885 187.097385 29.9724789 187.097385 37.916885">
				</polyline>
				<polyline id="Fill-12" fill="#001A3A"
					points="160.21219 37.916885 158.518855 37.916885 158.518855 26.53873 160.21219 26.53873 160.21219 31.4738246 165.58717 31.4738246 165.58717 26.53873 167.271678 26.53873 167.271678 37.916885 165.58717 37.916885 165.58717 32.5536753 160.21219 32.5536753 160.21219 37.916885">
				</polyline>
				<path
					d="M147.487164,26.4820894 L148.51773,26.4820894 L148.51773,33.9145227 C148.51773,35.5784344 147.293703,37.924241 144.240256,37.924241 C141.700988,37.924241 139.99809,35.9484377 139.99809,33.937326 L139.99809,26.4820894 L141.68407,26.4820894 L141.68407,34.055021 C141.68407,35.7858717 143.219988,36.8605733 144.736781,36.8605733 C146.048344,36.8605733 147.487164,35.6718547 147.487164,34.027804 L147.487164,26.4820894"
					id="Fill-13" fill="#001A3A"></path>
				<polyline id="Fill-14" fill="#001A3A"
					points="154.397326 37.8911393 152.704727 37.8911393 152.704727 27.6958181 149.262886 27.6958181 149.262886 26.6586317 157.808272 26.6586317 157.808272 27.6958181 154.397326 27.6958181 154.397326 37.8911393">
				</polyline>
				<polyline id="Fill-15" fill="#001A3A"
					points="175.996548 36.7414072 175.996548 37.8153732 168.71859 37.8153732 168.71859 26.5975775 175.996548 26.5975775 175.996548 27.6384418 170.413396 27.6384418 170.413396 31.3730483 176.00464 31.3730483 176.00464 32.4014075 170.413396 32.4014075 170.413396 36.7414072 175.996548 36.7414072">
				</polyline>
				<path
					d="M120.314353,37.5593868 L120.314353,36.0499496 C124.177688,38.631146 126.447729,35.1973971 124.4528,33.8755362 C123.631142,33.3311973 122.167312,32.3631567 121.302255,31.7827737 C119.150645,30.3358619 119.642756,24.9182183 126.249854,26.7895673 L126.249854,28.1423231 C121.703888,26.2783301 120.651255,29.2052552 122.693997,30.498428 C123.669393,31.1155907 124.463098,31.643011 125.545156,32.4661397 C128.348501,34.5964175 126.513932,39.7146747 120.314353,37.5593868"
					id="Fill-16" fill="#001A3A"></path>
				<path
					d="M133.18944,36.9856241 C131.015027,36.9856241 129.252545,34.8347497 129.252545,32.1822008 C129.252545,29.5281806 131.015027,27.3743639 133.18944,27.3743639 C135.369003,27.3743639 137.132955,29.5281806 137.132955,32.1822008 C137.132955,34.8347497 135.369003,36.9856241 133.18944,36.9856241 Z M133.18944,26.3607165 C130.022711,26.3607165 127.453285,28.9639807 127.453285,32.1711669 C127.453285,35.3886514 130.022711,37.9882376 133.18944,37.9882376 C136.366467,37.9882376 138.932216,35.3886514 138.932216,32.1711669 C138.932216,28.9639807 136.366467,26.3607165 133.18944,26.3607165 L133.18944,26.3607165 Z"
					id="Fill-17" fill="#001A3A"></path>
				<polyline id="Fill-18" fill="#001A3A"
					points="84.0944813 37.8867257 82.4055594 37.8867257 82.4055594 26.5350521 84.0944813 26.5350521 84.0944813 31.4642618 89.4525419 31.4642618 89.4525419 26.5350521 91.1385214 26.5350521 91.1385214 37.8867257 89.4525419 37.8867257 89.4525419 32.5338143 84.0944813 32.5338143 84.0944813 37.8867257">
				</polyline>
				<polyline id="Fill-19" fill="#001A3A"
					points="94.6083143 37.8867257 92.9171856 37.8867257 92.9171856 26.5512351 94.6083143 26.5453504 94.6083143 37.8867257"></polyline>
				<polyline id="Fill-20" fill="#001A3A"
					points="97.5080226 37.8867257 96.4311142 37.8867257 96.4311142 26.5681538 96.863643 26.5681538 104.144544 34.6008311 104.144544 26.5681538 105.163341 26.5681538 105.163341 37.8867257 104.738168 37.8867257 97.5080226 29.9511467 97.5080226 37.8867257">
				</polyline>
				<path
					d="M81.2300815,36.1816208 L81.2300815,37.5027461 C80.2833731,37.7675596 79.0027054,38.0360511 77.5234276,38.0360511 C69.9571163,38.0360511 69.473096,26.4092656 77.5572649,26.4092656 C79.2263257,26.4092656 80.2635121,26.5784521 81.2300815,26.7711775 L81.2300815,27.9981469 C80.5643697,27.7782045 79.7147596,27.4243842 77.6734886,27.4243842 C72.5118314,27.4243842 71.9814687,37.0054851 78.3325801,37.0054851 C79.4462681,37.0054851 80.2120206,36.676675 81.2300815,36.1816208"
					id="Fill-21" fill="#001A3A"></path>
				<path
					d="M109.932927,28.4659841 L108.497784,33.3422312 L111.348943,33.3422312 L109.932927,28.4659841 M111.643916,34.3867735 L108.257981,34.3867735 L107.235507,37.8955528 L105.876866,37.8867257 L109.315028,26.4717911 L111.101049,26.4717911 L114.582611,37.8867257 L112.60313,37.8955528 L111.643916,34.3867735"
					id="Fill-22" fill="#001A3A"></path>
				<path
					d="M180.894128,31.5223737 L179.044111,31.5172246 L179.044111,27.6318215 L180.894128,27.6318215 C181.962944,27.6318215 182.825795,28.5027638 182.825795,29.578201 C182.825795,30.6492246 181.962944,31.5223737 180.894128,31.5223737 Z M182.284399,32.286655 C183.537849,31.9497533 184.695673,31.5017771 184.695673,29.4156349 C184.695673,27.2559334 182.847863,26.5666826 181.280314,26.5666826 L177.351511,26.5666826 L177.351511,37.8955528 L179.044111,37.8955528 L179.044111,32.4536346 L180.541043,32.4536346 L183.353951,37.8911393 L185.162039,37.8911393 L182.284399,32.286655 L182.284399,32.286655 Z"
					id="Fill-23" fill="#001A3A"></path>
				<path
					d="M75.1989532,14.0770463 L80.2164341,14.0770463 L80.2164341,9.05441621 L75.1989532,9.05441621 L75.1989532,14.0770463 Z M75.1989532,17.1371139 L75.1989532,16.0888936 L80.2068714,16.0888936 L80.2068714,22.8820964 L82.6571322,22.8820964 L82.6571322,16.0888936 L87.9107386,16.0888936 L87.9107386,17.0422223 L90.3735045,17.0422223 L90.3735045,6.96606723 L82.6321221,6.96606723 L82.6358,2.96370484 L80.2193765,2.96149806 L80.2193765,6.96606723 L72.8156314,6.96606723 L72.8156314,17.1371139 L75.1989532,17.1371139 Z M82.623295,14.0770463 L87.9107386,14.0770463 L87.9107386,9.05441621 L82.623295,9.05441621 L82.623295,14.0770463 Z"
					id="Fill-24" fill="#001A3A"></path>
				<path
					d="M143.0611,3.01887433 L145.558439,3.02696586 L145.567266,6.47321981 L153.864021,6.4857249 L153.864021,8.60938235 L142.306382,8.60938235 L142.241649,10.9787279 L151.583683,10.9787279 C151.465988,13.2862837 151.312249,15.9557512 151.184991,18.1345782 C151.070239,20.1081746 150.853239,21.0328152 150.175757,21.591866 C149.581398,22.0722084 147.991781,22.215649 146.058642,22.5312185 C145.882836,21.6234965 145.502534,20.8099305 145.021456,19.9492865 C147.344459,19.8279136 148.558923,20.0169611 148.682503,18.7259951 C148.797256,17.5365409 148.987774,15.5879547 148.984096,13.159026 L142.065843,13.159026 C141.561961,19.6197408 138.868219,21.1093169 136.433406,22.75631 C135.877297,22.0847135 135.344728,21.4844694 134.574562,20.8474458 C139.901728,18.4611815 139.863477,14.7008293 139.917175,8.6358637 L134.862179,8.6358637 L134.862179,6.50264354 L143.05448,6.50264354 L143.0611,3.01887433"
					id="Fill-25" fill="#001A3A"></path>
				<path
					d="M184.894283,3.12847771 L187.390151,3.13730483 L187.387944,5.34040634 L194.815964,5.33672838 L194.815964,9.87901614 L192.438527,9.87901614 L192.438527,7.33607059 L180.164419,7.34636889 L180.164419,9.92756529 L177.82744,9.94963309 L177.82744,5.34702668 L184.879571,5.34702668 L184.894283,3.12847771 L184.894283,3.12847771 Z M178.326172,14.307287 C177.993684,13.7607413 177.415508,12.9427617 176.928545,12.3226566 C178.638063,11.6429685 181.738589,10.1026365 183.322321,8.52405354 L184.895019,10.1813449 C183.988768,11.0912737 180.353467,13.3385108 178.326172,14.307287 Z M192.837218,14.1940056 L192.855608,16.2713207 L187.449734,16.2713207 L187.449734,19.7543543 L195.218333,19.7543543 L195.218333,21.8831609 L177.227931,21.8831609 L177.227931,19.7543543 L184.767026,19.7543543 L184.767026,16.2713207 L179.62008,16.2713207 L179.62008,14.1940056 L192.837218,14.1940056 Z M187.738822,10.414528 L188.969469,8.64248404 C191.321161,9.89372801 194.056832,11.1736601 195.56112,12.1733312 C195.56112,12.1733312 194.616618,13.3385108 194.008282,14.090287 C192.263456,12.7846091 189.280625,11.2464838 187.738822,10.414528 L187.738822,10.414528 Z"
					id="Fill-26" fill="#001A3A"></path>
				<path
					d="M96.046399,19.0959984 L108.813354,19.0959984 L108.813354,5.84575885 L96.046399,5.84575885 L96.046399,19.0959984 Z M96.046399,22.5849168 L96.046399,20.9614627 L108.813354,20.9614627 L108.813354,22.5385744 L111.135621,22.5385744 L111.135621,3.92218273 L93.7513483,3.92218273 L93.7513483,22.5849168 L96.046399,22.5849168 Z M105.726805,12.9361413 L107.038368,12.9515888 L107.038368,11.1721889 L103.451615,11.1721889 L103.451615,9.01542977 L107.693781,9.01542977 L107.693781,7.27501636 L97.3072056,7.27501636 L97.3072056,9.01542977 L101.300005,9.01542977 L101.300005,11.1721889 L97.7595954,11.1721889 L97.7595954,12.922165 L101.300005,12.922165 L101.300005,15.9307411 L96.9320531,15.9307411 L96.9320531,17.7719308 L107.904161,17.7719308 L107.904161,15.9241207 L103.451615,15.9307411 L103.451615,12.9280498 L105.560561,12.9361413 L104.154842,13.8092904 C104.708744,14.3764327 105.374456,15.2495818 105.787859,15.788036 L107.213439,14.8538327 C106.765462,14.2123955 106.038696,13.3149718 105.726805,12.9361413 L105.726805,12.9361413 Z"
					id="Fill-27" fill="#001A3A"></path>
				<path
					d="M125.975478,10.8492635 L129.318013,10.8367584 L129.318013,19.3063781 C129.297417,20.1192085 128.981847,20.3796085 127.920386,20.3796085 L127.000159,20.3796085 C127.464318,21.2910084 127.815196,21.9221474 128.066769,22.7474829 C129.726267,22.5172422 130.38021,22.2583134 130.826715,21.9471575 C131.312206,21.6073135 131.610857,21.3167542 131.610857,20.0140187 L131.598352,8.97129418 L124.6264,8.97129418 L124.610953,7.41992821 L133.133535,7.41992821 L133.133535,5.39410465 L124.606539,5.39410465 L124.606539,3.01887433 L122.209241,3.01225399 L122.215126,5.39410465 L113.610892,5.39410465 L113.610892,7.41992821 L122.215126,7.41992821 L122.192322,8.97129418 L115.26377,8.97129418 L115.26377,22.6547982 L117.519099,22.6547982 L117.519099,10.8367584 L121.077163,10.8492635 L119.408102,11.5877991 C119.854607,12.1549414 120.345983,12.9471752 120.711573,13.526087 L118.617339,13.526087 L118.617339,15.2466394 L122.287949,15.2466394 L122.287949,16.7362156 L118.013418,16.7362156 L118.013418,18.6097714 L122.287949,18.6097714 L122.287949,22.1178151 L124.443237,22.1178151 L124.443237,18.6097714 L128.725125,18.6097714 L128.725125,16.7362156 L124.443237,16.7362156 L124.443237,15.2466394 L128.356593,15.2466394 L128.356593,13.526087 L126.138044,13.526087 C126.515403,13.1141549 127.406942,12.0387177 127.668813,11.7025516 L125.975478,10.8492635 M125.673149,10.8779517 C124.966244,11.9600092 124.580058,12.6875108 123.917288,13.526087 L121.994448,13.5319718 L122.859505,13.1170972 C122.491709,12.4925786 121.578838,11.2891482 121.211777,10.8691245 L125.673149,10.8779517"
					id="Fill-28" fill="#001A3A"></path>
				<path
					d="M170.670118,6.33566389 L170.670118,3.03211501 L168.298566,3.03211501 L168.298566,6.33566389 L164.817004,6.33566389 L164.817004,8.35339593 L174.472399,8.35339593 L174.472399,6.33566389 L170.670118,6.33566389 L170.670118,6.33566389 Z M155.626503,11.9519177 L155.626503,13.9615582 L157.169777,13.9615582 L157.169777,14.5485615 C157.106516,17.3725037 156.629116,19.5947306 155.564713,21.0975474 C156.103903,21.5227203 156.780648,22.1604796 157.373536,22.740127 C158.573289,20.9107068 159.117628,18.9569713 159.094089,13.9483175 L162.331434,13.9483175 L162.331434,19.3063781 C162.3204,19.9588492 161.970994,19.9838594 160.090817,19.9441374 C160.498336,20.6701678 160.698417,21.3277881 160.824939,22.2112355 C163.459099,21.9471575 164.299146,21.3314661 164.299146,20.3634255 L164.289583,5.98257917 L161.588485,5.98257917 C161.747373,5.31613177 162.040139,4.09136916 162.185787,3.62941665 C161.751051,3.52128446 160.217339,3.24323024 160.003282,3.19100313 C159.91354,3.85671494 159.784075,4.98364366 159.567075,5.98257917 L157.169777,5.98257917 L157.169777,11.9519177 L155.626503,11.9519177 Z M161.229516,14.5081039 L159.405245,14.7427581 C159.654611,15.8174597 159.841451,17.4335579 159.964295,18.1831273 L161.784153,17.7307375 C161.695146,16.8723003 161.350889,15.160575 161.229516,14.5081039 Z M163.932085,21.5021237 C164.63899,21.8331406 165.312058,22.3053914 165.906417,22.6901066 C167.37319,21.1409474 168.498647,18.8789985 168.431708,12.7154634 L168.431708,12.1336092 L170.261864,12.1336092 L170.117688,20.1684933 C170.083115,21.615405 170.310413,22.1266423 171.711718,22.1604796 L173.506566,22.1604796 C174.179633,22.1266423 174.609955,21.1953813 175.135169,19.1747069 C174.526098,18.8892968 173.802274,18.4347002 173.331494,18.046307 C173.160837,18.9246052 173.034315,19.7933408 172.845267,19.964734 C172.700355,20.0905204 172.568684,20.051534 172.459816,20.0331441 C172.29063,20.0140187 172.275183,19.9132424 172.285481,19.5917882 C172.272976,17.4048698 172.478942,10.170311 172.478942,10.170311 L166.369841,10.170311 L166.369841,14.4521988 C166.369841,17.7145545 165.546712,20.2479373 163.932085,21.5021237 Z M159.094089,11.9636872 L162.331434,11.9636872 L162.331434,7.74138242 L159.094089,7.74138242 L159.094089,11.9636872 Z M161.269238,8.33132813 L159.519997,8.61820947 C159.794373,9.743667 159.970916,10.6969957 160.095231,11.4436228 L161.800336,11.0471381 C161.715743,10.430711 161.393553,8.98747723 161.269238,8.33132813 L161.269238,8.33132813 Z"
					id="Fill-29" fill="#001A3A"></path>
			</g>
		</g>
	</g>
</svg>