<?xml version="1.0" encoding="UTF-8"?>
<svg width="16px" height="16px" viewBox="0 0 16 16" version="1.1" xmlns="http://www.w3.org/2000/svg" xmlns:xlink="http://www.w3.org/1999/xlink">
    <title>成功或完成节点备份</title>
    <g id="-页面1" stroke="none" stroke-width="1" fill="none" fill-rule="evenodd">
        <g id="编组-4备份-2" transform="translate(0.000000, -87.000000)">
            <g id="成功或完成节点备份" transform="translate(0.000000, 87.000000)">
                <rect id="矩形备份-35" x="0" y="0" width="16" height="16"></rect>
                <g id="编组" transform="translate(1.000000, 1.000000)">
                    <g id="审核" fill="#17B94D">
                        <path d="M7,14 C10.8659932,14 14,10.8659932 14,7 C14,3.13400675 10.8659932,0 7,0 C3.13400675,0 0,3.13400675 0,7 C0,10.8659932 3.13400675,14 7,14 Z" id="Oval-162"></path>
                    </g>
                    <path d="M6.28290118,8.28302997 L9.40717026,5.15403945 C9.61206903,4.94885551 9.94450693,4.94862413 10.1496911,5.15352266 C10.3548753,5.35842119 10.3551067,5.69085872 10.1502079,5.89604267 L6.65547001,9.39604301 C6.4507873,9.60105374 6.11872804,9.60152363 5.91346594,9.39709301 L4.15824661,7.64901236 C4.02315114,7.51710978 3.96928914,7.32282315 4.01718595,7.14018981 C4.06508275,6.95755647 4.20736049,6.81470867 4.389801,6.76608181 C4.57224152,6.71745495 4.76674224,6.77053936 4.89918427,6.90510602 L6.28290118,8.28302997 Z" id="路径" fill="#FFFFFF" fill-rule="nonzero"></path>
                </g>
            </g>
        </g>
    </g>
</svg>