<?xml version="1.0" encoding="UTF-8"?>
<svg width="16px" height="16px" viewBox="0 0 16 16" version="1.1" xmlns="http://www.w3.org/2000/svg" xmlns:xlink="http://www.w3.org/1999/xlink">
    <title>节点-正处理备份</title>
    <g id="-页面1" stroke="none" stroke-width="1" fill="none" fill-rule="evenodd">
        <g id="编组-4备份-2" transform="translate(0.000000, -3.000000)">
            <g id="节点-正处理备份" transform="translate(0.000000, 3.000000)">
                <rect id="矩形备份-57" x="0" y="0" width="16" height="16"></rect>
                <g id="时间线-蓝" transform="translate(1.000000, 1.000000)" fill-rule="nonzero">
                    <rect id="Component-6/Group-1-(style)" fill="#037DF4" x="0" y="0" width="14" height="14" rx="7"></rect>
                    <path d="M5,7 C5,7.55228 4.55228,8 4,8 C3.44772,8 3,7.55228 3,7 C3,6.44771 3.44772,6 4,6 C4.55228,6 5,6.44771 5,7 Z" id="Ellipse-4" fill="#FFFFFF"></path>
                    <path d="M8,7 C8,7.55228 7.55228,8 7,8 C6.44771,8 6,7.55228 6,7 C6,6.44771 6.44771,6 7,6 C7.55228,6 8,6.44771 8,7 Z" id="Ellipse-5" fill="#FFFFFF"></path>
                    <path d="M11,7 C11,7.55228 10.55228,8 10,8 C9.44772,8 9,7.55228 9,7 C9,6.44771 9.44772,6 10,6 C10.55228,6 11,6.44771 11,7 Z" id="Ellipse-6" fill="#FFFFFF"></path>
                </g>
            </g>
        </g>
    </g>
</svg>